<?xml version="1.0" standalone="no"?>
<!DOCTYPE svg PUBLIC "-//W3C//DTD SVG 20010904//EN"
 "http://www.w3.org/TR/2001/REC-SVG-20010904/DTD/svg10.dtd">
<svg version="1.0" xmlns="http://www.w3.org/2000/svg"
 width="832.000000pt" height="832.000000pt" viewBox="0 0 832.000000 832.000000"
 preserveAspectRatio="xMidYMid meet">
<metadata>
Created by potrace 1.14, written by Peter Selinger 2001-2017
</metadata>
<g transform="translate(0.000000,832.000000) scale(0.100000,-0.100000)"
fill="#000000" stroke="none">
<path d="M4397 8289 c-231 -46 -417 -200 -542 -449 -35 -69 -84 -198 -91 -240
-3 -14 -7 -33 -10 -42 -3 -10 -7 -30 -10 -45 -2 -16 -6 -37 -9 -48 -18 -85
-24 -270 -11 -395 4 -41 7 -82 8 -90 1 -13 14 -77 34 -170 15 -64 26 -104 34
-115 3 -5 12 -30 19 -55 18 -62 101 -228 158 -314 158 -238 391 -409 618 -452
90 -18 258 -5 336 25 13 5 26 8 29 8 8 0 92 44 135 72 96 61 244 237 297 351
49 106 91 224 103 295 2 11 6 31 9 45 20 90 29 410 14 485 -4 17 -9 51 -12 76
-26 207 -166 536 -292 689 -46 54 -100 115 -118 129 -10 9 -32 30 -50 46 -45
43 -150 109 -229 145 -136 62 -277 78 -420 49z m865 -1294 c1 -94 -8 -251 -17
-264 -2 -4 -6 -26 -10 -49 -3 -24 -18 -78 -32 -120 -62 -186 -157 -314 -283
-381 -115 -61 -228 -70 -350 -27 -117 40 -215 115 -320 245 -48 59 -31 55 40
-9 24 -22 50 -40 57 -40 7 0 13 -4 13 -10 0 -5 6 -10 13 -10 7 0 18 -5 25 -12
6 -6 17 -13 24 -14 7 -2 40 -12 73 -23 71 -23 200 -26 257 -5 21 7 42 14 46
15 80 17 231 146 291 250 44 75 119 259 106 259 -2 0 2 17 9 38 20 55 44 265
36 307 -2 6 -1 17 0 25 5 36 20 -84 22 -175z"/>
<path d="M2096 7343 c-2 -2 -16 -6 -32 -9 -16 -2 -51 -12 -79 -21 -27 -10 -53
-16 -57 -15 -5 1 -8 -3 -8 -9 0 -5 -4 -8 -8 -5 -13 8 -135 -74 -189 -125 -50
-48 -140 -169 -126 -169 4 0 3 -4 -3 -8 -25 -17 -80 -179 -90 -266 -4 -28 -8
-54 -10 -58 -5 -8 -5 -191 0 -238 9 -83 15 -117 36 -195 6 -22 13 -51 16 -65
2 -14 8 -34 13 -45 5 -11 19 -47 32 -80 42 -112 146 -297 219 -389 112 -141
221 -247 343 -333 77 -54 249 -150 284 -158 10 -3 44 -13 75 -24 133 -46 361
-60 458 -29 8 3 40 13 70 23 163 52 323 198 396 361 9 21 18 41 19 44 1 3 11
34 22 70 11 36 24 88 28 115 13 82 12 275 -1 355 -11 69 -15 88 -28 146 -26
121 -126 343 -210 468 -25 38 -46 72 -46 76 0 5 -3 10 -7 12 -5 2 -30 30 -57
63 -262 318 -604 504 -938 510 -65 1 -119 0 -122 -2z m1159 -1433 c3 -137 -13
-221 -60 -317 -92 -187 -265 -271 -495 -240 -203 27 -451 185 -643 409 -76 90
-75 102 3 27 29 -27 78 -69 109 -91 31 -23 58 -44 61 -47 5 -7 21 -16 108 -63
276 -149 564 -137 732 32 59 60 90 96 90 107 0 3 11 29 24 58 25 52 57 204 50
239 -2 14 0 16 7 9 7 -7 12 -59 14 -123z"/>
<path d="M6740 7321 c-25 -5 -62 -16 -82 -24 -21 -9 -38 -14 -38 -11 0 6 -119
-59 -165 -90 -89 -60 -295 -305 -295 -350 0 -9 -4 -16 -9 -16 -5 0 -25 -39
-46 -87 -49 -118 -87 -249 -101 -352 -2 -19 -7 -48 -10 -65 -8 -46 -7 -233 1
-296 4 -30 8 -62 9 -70 5 -37 30 -131 52 -192 66 -189 175 -333 319 -421 108
-66 170 -82 310 -82 85 1 112 5 180 30 142 51 264 139 371 267 49 59 139 202
132 211 -2 2 5 11 15 21 9 10 17 26 17 36 0 10 4 21 9 25 9 5 41 91 41 108 0
4 7 21 15 37 9 17 13 30 11 30 -3 0 -1 11 4 26 6 14 12 39 15 57 3 18 8 43 10
57 18 89 24 314 11 413 -46 350 -238 628 -494 716 -71 24 -210 35 -282 22z
m518 -917 c0 -74 -4 -152 -9 -172 -4 -20 -10 -48 -12 -62 -8 -43 -67 -214 -83
-237 -8 -12 -14 -29 -14 -38 0 -8 -4 -15 -10 -15 -5 0 -10 -5 -10 -11 0 -34
-129 -196 -199 -252 -75 -60 -183 -96 -271 -91 -97 6 -223 87 -270 173 l-12
24 28 -20 c80 -57 228 -65 337 -20 99 42 287 203 287 247 0 6 4 10 8 10 14 0
142 230 142 254 0 3 5 17 12 33 13 32 12 31 32 103 18 66 28 132 29 182 0 21
4 35 8 33 4 -3 7 -66 7 -141z"/>
<path d="M5177 5474 c-1 -1 -42 -5 -92 -8 -49 -4 -99 -9 -110 -12 -11 -2 -36
-6 -55 -8 -56 -7 -307 -64 -400 -92 -47 -13 -92 -26 -100 -29 -29 -7 -215 -76
-250 -92 -178 -81 -342 -170 -401 -217 -15 -12 -33 -25 -42 -31 -25 -16 -28
-71 -7 -98 33 -41 96 -27 275 61 147 72 213 102 223 102 6 0 12 3 14 8 7 16
377 163 411 162 4 0 21 7 37 15 17 9 30 13 30 10 0 -3 8 -1 18 4 9 5 31 11 47
14 17 3 57 12 90 21 33 8 80 18 105 21 24 4 48 8 51 11 4 2 38 6 75 10 38 3
75 7 82 10 19 6 255 5 322 -1 239 -22 433 -77 650 -183 110 -54 331 -193 338
-213 2 -5 8 -9 13 -9 5 0 17 -8 27 -17 10 -10 43 -38 72 -63 109 -91 257 -248
350 -368 14 -18 35 -45 47 -60 13 -15 23 -30 23 -34 0 -4 6 -13 13 -20 12 -12
32 -40 153 -213 26 -38 52 -71 56 -73 4 -2 8 -9 8 -16 0 -7 23 -36 50 -64 127
-132 159 5 53 228 -132 278 -355 538 -655 762 -49 37 -98 70 -109 73 -10 4
-19 11 -19 16 0 5 -7 9 -15 9 -8 0 -15 4 -15 9 0 5 -8 11 -17 14 -10 4 -38 18
-63 33 -52 31 -194 103 -260 132 -89 38 -284 106 -335 116 -11 2 -47 11 -80
19 -61 16 -170 37 -215 42 -137 14 -384 27 -393 19z"/>
<path d="M1140 5013 c-120 -20 -263 -76 -330 -129 -54 -43 -110 -106 -144
-162 -20 -33 -36 -62 -36 -65 0 -3 -5 -18 -12 -34 -11 -29 -12 -31 -24 -73 -3
-14 -8 -73 -10 -133 -2 -92 1 -122 25 -210 74 -274 253 -509 528 -695 133 -90
332 -174 468 -197 11 -2 36 -6 55 -10 97 -19 255 -12 395 19 46 11 187 82 217
110 15 14 32 26 38 26 5 0 10 3 10 8 0 4 19 27 41 52 58 66 105 170 126 280 8
45 9 164 1 205 -22 115 -42 183 -80 264 -28 59 -103 188 -118 201 -3 3 -23 27
-45 55 -107 133 -269 263 -434 348 -98 51 -219 98 -288 112 -31 6 -55 12 -93
21 -31 7 -256 12 -290 7z m1088 -1018 c4 -55 2 -146 -4 -171 -19 -83 -67 -152
-139 -201 -33 -22 -145 -66 -145 -57 0 4 -6 2 -12 -3 -15 -10 -163 -10 -224 1
-33 5 -123 29 -189 50 -65 20 -208 95 -269 141 -75 56 -164 141 -211 200 l-39
50 34 -30 c19 -16 40 -36 48 -43 8 -7 40 -29 71 -49 187 -120 409 -190 596
-187 132 2 183 12 275 57 74 36 160 130 176 192 4 20 24 65 27 65 2 0 4 -7 5
-15z"/>
<path d="M3495 4814 c-104 -54 -352 -284 -480 -444 -33 -41 -62 -77 -66 -80
-3 -3 -35 -48 -71 -100 -98 -143 -183 -295 -248 -445 -12 -27 -28 -63 -35 -80
-41 -92 -120 -355 -139 -465 -3 -19 -8 -46 -11 -60 -3 -14 -8 -41 -10 -60 -3
-19 -7 -44 -10 -55 -25 -117 -25 -578 0 -700 2 -11 7 -42 10 -69 3 -27 12 -76
20 -110 8 -34 16 -72 19 -86 17 -88 102 -350 131 -406 8 -16 15 -32 15 -37 0
-8 97 -205 128 -259 43 -74 107 -173 114 -176 4 -2 8 -8 8 -13 0 -5 28 -47 63
-93 222 -297 502 -544 826 -729 50 -28 249 -127 256 -127 3 0 25 -9 48 -19 49
-22 245 -92 267 -95 8 -1 35 -8 60 -15 25 -7 54 -15 65 -17 19 -4 36 -7 88
-19 23 -5 70 -13 122 -20 17 -2 41 -7 55 -10 117 -25 566 -26 697 -1 11 3 44
7 74 11 30 4 57 9 60 11 4 2 23 6 42 8 20 3 53 10 74 15 21 6 47 12 58 14 33
6 109 27 130 36 11 5 63 23 115 41 52 18 115 41 140 52 63 28 261 126 285 141
382 236 589 425 853 782 32 44 112 173 112 182 0 6 4 13 8 15 17 6 154 288
168 343 3 14 10 25 15 25 5 0 8 3 7 8 -1 4 14 57 34 117 39 122 63 204 72 250
4 17 9 41 11 55 27 126 39 218 50 360 6 66 6 329 1 385 -14 158 -24 224 -51
364 -16 83 -50 203 -69 241 -24 49 -58 65 -71 33 -19 -47 -19 -75 0 -262 6
-63 7 -152 1 -261 -9 -160 -17 -221 -53 -420 -7 -42 -43 -183 -47 -187 -2 -2
-15 7 -28 20 -22 22 -101 71 -120 75 -5 1 -9 2 -10 3 -24 8 -119 24 -123 21
-2 -3 -24 -6 -49 -8 -105 -7 -224 -94 -280 -207 -32 -63 -34 -74 -32 -155 3
-103 6 -117 42 -183 59 -108 176 -181 304 -189 14 -1 19 -4 13 -7 -7 -2 -13
-9 -13 -14 0 -9 -70 -108 -94 -135 -6 -7 -27 -31 -46 -55 -44 -56 -240 -251
-288 -287 -21 -15 -46 -35 -57 -45 -44 -40 -248 -169 -349 -221 -94 -49 -114
-56 -150 -51 -22 3 -59 7 -81 9 -22 3 -56 7 -76 11 -20 3 -51 8 -70 10 -46 6
-99 14 -129 20 -14 3 -38 8 -55 10 -16 3 -75 15 -130 26 -55 12 -107 22 -115
24 -128 25 -555 151 -647 191 -17 8 -37 14 -45 14 -8 0 -18 3 -22 7 -3 4 -12
8 -19 9 -7 1 -73 27 -147 57 -128 52 -184 76 -308 134 -51 23 -55 23 -78 8
-19 -12 -24 -23 -22 -43 2 -21 21 -39 88 -83 47 -31 105 -67 130 -80 25 -13
47 -27 48 -31 2 -5 8 -8 14 -8 6 0 33 -13 59 -30 27 -16 49 -27 49 -23 0 3 8
-1 18 -9 9 -8 33 -22 52 -31 19 -8 79 -36 133 -61 54 -25 100 -46 102 -46 3 0
24 -9 48 -19 153 -68 437 -156 667 -207 19 -4 38 -9 43 -10 4 -1 14 -2 24 -3
22 -1 12 -10 -18 -16 -13 -3 -37 -8 -54 -11 -16 -4 -41 -8 -55 -9 -14 -2 -56
-6 -95 -11 -88 -9 -339 -10 -425 -1 -169 17 -171 18 -325 53 -120 28 -123 28
-145 37 -8 3 -42 14 -75 25 -33 11 -73 26 -90 33 -16 7 -34 13 -40 15 -53 13
-339 166 -411 221 -17 12 -34 23 -37 23 -4 0 -15 7 -24 15 -10 8 -63 52 -118
97 -284 234 -497 513 -646 851 -64 145 -137 379 -154 492 -3 23 -8 52 -10 65
-10 49 -15 86 -19 141 -2 31 -5 60 -8 65 -13 27 4 441 19 467 3 4 17 -8 32
-26 143 -181 338 -386 471 -498 36 -30 67 -57 70 -60 3 -3 32 -25 65 -50 33
-24 69 -52 79 -61 11 -10 25 -18 32 -18 7 0 19 -8 26 -17 7 -10 24 -24 38 -32
14 -8 72 -44 129 -79 57 -35 111 -66 120 -70 9 -3 18 -8 21 -12 13 -16 173
-90 195 -90 27 0 65 35 65 61 0 10 -29 38 -67 65 -79 56 -216 156 -223 164 -3
3 -30 24 -62 48 -31 24 -68 54 -82 67 -14 13 -34 29 -44 37 -21 14 -113 94
-201 173 -70 62 -417 413 -451 455 -14 17 -38 45 -55 63 -16 18 -46 53 -65 77
-19 25 -38 48 -42 51 -9 6 33 155 69 249 4 8 7 17 8 20 1 3 9 22 18 44 9 21
17 40 17 42 0 12 102 214 110 219 6 3 45 -31 87 -76 249 -265 615 -615 782
-749 24 -19 70 -56 102 -82 32 -27 61 -48 63 -48 3 0 17 -10 30 -21 57 -49
391 -271 456 -303 8 -4 33 -18 55 -31 22 -13 61 -34 88 -47 26 -13 47 -26 47
-30 0 -5 4 -8 9 -8 5 0 73 -31 152 -69 79 -37 162 -76 184 -85 22 -10 49 -21
60 -27 54 -24 325 -128 360 -138 22 -5 53 -9 68 -7 33 4 73 39 81 71 11 44 -9
69 -85 109 -87 46 -324 177 -386 215 -24 14 -90 54 -146 88 -57 35 -180 113
-273 175 -93 62 -173 115 -179 117 -5 2 -12 7 -15 11 -3 4 -45 36 -95 70 -138
98 -394 294 -440 338 -8 6 -16 12 -20 12 -3 0 -16 10 -29 23 -13 12 -34 30
-47 41 -13 10 -49 40 -79 66 -30 25 -65 55 -78 66 -13 10 -36 30 -51 44 -14
14 -64 59 -111 100 -111 99 -430 412 -430 422 0 4 24 45 54 90 74 115 131 235
135 286 2 40 1 42 -26 42 -15 0 -41 -7 -58 -16z"/>
<path d="M4939 4750 c-86 -24 -133 -112 -101 -191 11 -27 65 -78 85 -80 7 -1
23 -3 37 -4 42 -4 98 24 121 62 27 43 29 111 6 147 -32 48 -101 79 -148 66z"/>
<path d="M7135 2702 c-24 -24 -27 -33 -27 -67 0 -34 3 -41 31 -58 65 -38 135
-1 129 70 -6 68 -87 101 -133 55z"/>
<path d="M6500 1998 c-122 -33 -142 -201 -29 -256 95 -47 201 17 201 121 0 92
-84 158 -172 135z"/>
</g>
</svg>
