<svg fill="none" height="146" viewBox="0 0 147 146" width="147" xmlns="http://www.w3.org/2000/svg" xmlns:xlink="http://www.w3.org/1999/xlink"><clipPath id="a"><path d="m0 0h56.7273v56.7273h-56.7273z" transform="matrix(.95881973 .28401534 -.28401534 .95881973 55.2657 37.958)"/></clipPath><rect fill="#f08a4b" fill-opacity=".48" height="117" rx="22" transform="matrix(.95881973 .28401534 -.28401534 .95881973 1.368408 -9.437745)" width="118.315" x="33.2297"/><g clip-path="url(#a)"><path d="m104.74 70.412c-.023-.3226-.18-.6206-.434-.8219l-4.255-3.3816c.162-1.6503-.6535-3.252-2.0627-4.0983l.6287-3.0805c.0921-.4508-.0916-.9133-.468-1.178-.3764-.2646-.8736-.2812-1.2667-.0421l-1.6457 1.0007.0279-2.9103c.005-.5016-.314-.9493-.7901-1.1084-.4786-.1604-1 .0066-1.2979.4104l-10.4094 14.106s-21.5117-5.2946-21.5207-5.2967c-4.4285-1.0274-7.8609-4.5765-8.7417-9.0416-.1238-.627-.7323-1.0351-1.359-.9113-.6271.1237-1.035.7322-.9114 1.3591.7874 3.9917 3.2746 7.3726 6.69 9.347-.5136.3319-1.6604 1.1915-2.6536 2.783-1.0799 1.7306-2.1579 4.6796-1.3705 9.0633l-4.3618 3.3035c-.2547.1928-.4183.4824-.452.8004l-.8299 7.8287c-.0588.5547.2869 1.0728.8221 1.2313l1.3944.413c.329.0975.6843.0438.97-.1461.2857-.1904.4721-.4976.509-.8385l.5436-5.0184 11.2111-4.1685c.0198-.0075-.0195.0087 0 0 1.0951-.4769 1.972-1.0994 2.6744-1.7986 4.5314 2.2552 10.7369 5.3285 14.7297 7.2457l-1.6332 12.2968c-.0746.5647.2723 1.0998.8186 1.2616l1.1474.3399c.6127.1815 1.2564-.168 1.4379-.7807l3.533-11.9271c1.2524-.4027 1.977-1.482 2.5689-2.5738.0187-.0343 5.8428-10.6613 5.8428-10.6613.4409.2147.8971.3939 1.3689.5337 3.249.9624 6.7879-.0585 9.2349-2.6643.221-.2357.334-.5533.31-.8761z" fill="#fff"/></g></svg>