<svg fill="none" height="78" viewBox="0 0 79 78" width="79" xmlns="http://www.w3.org/2000/svg" xmlns:xlink="http://www.w3.org/1999/xlink"><clipPath id="a"><path d="m0 0h28.9214v28.9214h-28.9214z" transform="matrix(.98162718 -.190809 .190809 .98162718 22.4641 27.2546)"/></clipPath><rect fill="#f08a4b" fill-opacity=".75" height="66" rx="16" transform="matrix(.98162718 -.190809 .190809 .98162718 -2.429933 .233976)" width="66.7416" y="12.7349"/><g clip-path="url(#a)"><path d="m46.5793 22.907c-.3237-.178-.8541-.3038-1.2895-.0023-.7859.7912 3.7901 2.5161 3.362 11.3457-.0911 1.8248-1.3235 1.1248-2.6517.9853-3.0296-.3388-6.121.0573-9.1422.3193-1.0674.087-2.1512.2134-3.2153.1311-1.1244-.0827-1.1821-.1317-1.1047-1.1587.5602-1.0847.0079-2.3147-.1307-2.8419.318-1.3388.3194-2.4475-.2278-2.9073-1.471-1.1839-.9553 2.5229-2.5086 2.8368-.7217.068-1.1748.2163-1.4234-.1329-.442-.6008-1.0966-1.3651-1.8025-1.6495-1.0876-.4512-.942 1.3517-.2107 2.9444.0709 1.0464.2991 1.7249.9659 2.3663.3393.3196.4876.7726.6546 1.198.2998.7368.5777 1.6707.7289 2.4485.0857.4411.4333 1.7952.5887 2.2228.7132 1.9335.8944 2.3079 2.6762 3.4795.7465.4935 1.8022.8424 2.3571 1.5899.4121.5705.8007 1.2058 1.1895 1.7807.7571 1.1058 1.3213 2.2732 1.7924 3.5189.2631.6717-1.3677 1.1452-.9018 2.0546.374.7466 2.4846.3243 2.4363-.606-.018-.5266.0452-1.5027.0237-2.2334.0985-2.778-1.0078-3.6352-.769-6.1874.0164-.9068 3.7451.1153 4.2703.3384 1.0645.4557 2.1737.7702 3.2452 1.2005 1.6594.6653.8003 1.6997-.0005 2.6625-.4295.5172-.425.5404-1.1045.5158-.5542-.0006-.909.4057-.9507.8114-.068.5794.7936.7975 1.3257.6218 1.603-.4923 3.5351-2.6388 3.9566-4.2508.5842.4647.4885 1.0254.3591 1.7855-.0575.3243-.1287.6393-.1745.9616-.0991.73-.3558.5872-.8882.8231-.7724.4272-.1661 1.5623.7123 1.2471.3044-.1074 1.4614-.4769 1.4831-1.0473.0107-.2551.1574-.8016.226-1.068.1381-.6533.9406-4.0862.1965-4.568-.3838-.2387-.7001-.5025-1.0162-.8266-.5003-.5292-.3398-.6326-.1023-1.2088.2444-.6018.436-1.2896.6295-1.9055.4277-1.4565-.3042-2.4949-.0436-4.3768.7701-6.0168-1.3613-12.0238-3.5212-13.2183z" fill="#fff"/></g></svg>