<svg fill="none" height="92" viewBox="0 0 92 92" width="92" xmlns="http://www.w3.org/2000/svg" xmlns:xlink="http://www.w3.org/1999/xlink"><clipPath id="a"><path d="m0 0h30.4045v30.4045h-30.4045z" transform="matrix(.8480481 .52991926 -.52991926 .8480481 40.6366 24.5249)"/></clipPath><rect fill="#f08a4b" fill-opacity=".48" height="66" rx="16" transform="matrix(.8480481 .52991926 -.52991926 .8480481 5.314472 -18.533767)" width="66.7416" x="34.9747"/><g clip-path="url(#a)" fill="#fff"><path d="m58.4664 48.5843c-1.4303-1.5214-2.4365-3.4077-2.9091-5.4545-.4737-2.0519-.3947-4.1937.2286-6.1937.0064-.0205.0064-.0205.2563-.7177.0081-.0224.0161-.0447.0241-.067-2.5898-.5165-5.0334-.5157-7.2952.0064-2.5301.5842-5.0004 1.8686-7.3422 3.8176-1.7378 1.4464-3.1278 3.0371-4.0895 4.2765l-6.0209-3.2119c-.0029-.0015-.006-.0027-.009-.0042-.0161-.0084-.0327-.0158-.0493-.0232-.011-.0049-.022-.0101-.0331-.0145-.0138-.0054-.028-.01-.0421-.0147-.0143-.0049-.0285-.01-.0429-.0141-.0107-.0031-.0215-.0052-.0323-.0079-.0177-.0043-.0354-.0088-.0531-.0119-.0086-.0016-.0174-.0024-.0261-.0037-.0196-.0029-.0393-.0058-.059-.0074-.0095-.0008-.0192-.0007-.0288-.0012-.0186-.0009-.0371-.0019-.0556-.0016-.014.0001-.0279.0014-.0418.0023-.0141.0009-.0281.0013-.0421.0028-.0182.002-.0364.0053-.0546.0084-.0096.0016-.0193.0028-.0289.0048-.0191.0039-.0381.0092-.0571.0144-.0087.0024-.0175.0043-.0261.007-.017.0052-.0337.0117-.0504.018-.0107.004-.0215.0076-.032.012-.0135.0057-.0267.0123-.0399.0188-.0138.0066-.0275.013-.0409.0203-.0102.0055-.0201.0118-.0301.0178-.016.0095-.0319.0192-.0473.0297-.0026.0018-.0055.0032-.0081.0051-.006.0043-.0113.0091-.0172.0134-.0155.0114-.0307.023-.0454.0354-.0091.0076-.0177.0156-.0264.0236-.0125.0115-.0249.023-.0367.0351-.0101.0103-.0196.021-.0291.0317-.0094.0107-.0187.0213-.0277.0325-.0107.0133-.0207.0271-.0306.0409-.0068.0096-.0137.0191-.0201.0289-.0106.0161-.0202.0327-.0297.0494-.0036.0063-.0077.0122-.0112.0187-.0015.0029-.0026.0059-.0042.0089-.0078.0151-.0148.0305-.0217.0459-.0052.0116-.0106.0231-.0152.0348-.0051.0129-.0095.0259-.014.0389-.0051.0148-.0103.0295-.0146.0444-.003.0106-.0054.0212-.0081.0318-.0043.0174-.0085.0348-.0117.0523-.0018.0096-.003.0193-.0045.0289-.0027.0182-.0053.0364-.0068.0545-.0009.0105-.0013.021-.0019.0315-.0009.0171-.0016.0341-.0015.0512 0 .0124.0007.0248.0012.0372.0008.0149.0016.0297.003.0446.0013.0143.0033.0286.0054.0429.0019.0128.0038.0256.0063.0383.0029.0153.0064.0305.0101.0458.003.0119.006.0237.0095.0354.0043.0151.0091.03.0143.0449.0043.0124.009.0247.0139.0369.0053.0134.0108.0267.0169.0398.0066.0145.0138.0287.0212.0429.0055.0104.0108.0209.0167.0312.0102.0178.0213.0349.0327.052.0035.0052.0063.0107.0099.0158l.009.0128c.0006.0008.0011.0016.0017.0024l4.0088 5.7123-1.09 6.9659c-.0005.0034-.0007.0069-.0012.0103-.0015.0105-.0026.0209-.0037.0314-.0018.0169-.0033.0338-.0041.0505-.0004.0087-.0009.0174-.001.0261-.0006.0232-.0002.0463.001.0692.0002.0023.0001.0047.0003.007.0017.0277.0049.0551.0091.0822.0003.0018.0007.0035.001.0053.0041.0244.0091.0484.0151.0721.0013.0052.0027.0103.0041.0155.0058.0216.0125.043.0199.0639.0016.0045.0029.009.0045.0135.009.0241.0188.0478.0298.0709.0031.0066.0067.0129.01.0195.0081.016.0165.0319.0255.0474.0053.0091.0107.018.0164.0269.0088.014.0181.0276.0275.041.0055.0077.0106.0155.0164.0231.0148.0194.0304.0381.0467.0563.0055.0061.0114.012.0171.018.0137.0145.028.0286.0426.0421.0052.0047.0101.0094.0154.014.036.0317.0745.0609.1156.0866.0315.0197.0649.0367.0991.0525.019.0088.0381.0176.0574.0249.005.0019.0103.0032.0154.005.0228.0082.0458.0158.0689.022.0061.0016.0123.0027.0184.0042.0225.0055.0449.0104.0677.0141.0023.0004.0046.0011.007.0015.0069.0011.0137.0013.0206.0021.0191.0025.0382.0048.0573.006.0125.0009.0249.0011.0374.0015.0152.0003.0304.0006.0456.0001.0149-.0004.0298-.0012.0446-.0023.0126-.001.0251-.0022.0377-.0037.0161-.0019.0321-.0042.048-.007.0115-.002.0229-.0044.0343-.0068.0158-.0035.0316-.0071.0472-.0114.012-.0033.0238-.007.0357-.0108.0142-.0046.0284-.0092.0423-.0144.0136-.0051.0269-.0109.0403-.0166.0117-.0052.0235-.0101.035-.0157.0152-.0073.03-.0154.0448-.0237.0094-.0052.0188-.0101.0279-.0157.0156-.0094.0308-.0198.0459-.0302.008-.0055.0162-.0109.024-.0167.0143-.0106.028-.022.0417-.0335.0084-.007.0168-.0138.025-.0211.0114-.0104.0222-.0215.0332-.0325.0098-.0098.0197-.0195.029-.0298.0082-.0091.016-.0187.0239-.0283.0111-.0132.0221-.0265.0323-.0403.0017-.0023.0036-.0043.0053-.0066l4.0303-5.563c1.4064.6892 3.349 1.5046 5.5385 2.0383 2.9488.7188 5.7227.788 8.2448.2057 2.2491-.5192 4.4338-1.5808 6.5242-3.1654-.2968-.3222-.5441-.5908-.5725-.6217z"/><path d="m65.7291 41.7006c.3617-.5989.1847-1.3654-.403-1.7452-.8344-.5394-3.0942-1.9028-6.0602-2.9278-.4907-.1695-.9769-.3216-1.4587-.4571-.0252.0704-.0545.1524-.0891.2487-.1053.2935-.2122.5918-.2378.6634-.5246 1.6934-.5899 3.5077-.1884 5.2468.402 1.741 1.2574 3.3449 2.4741 4.6382.0056.006.0065.007.6499.7058.3868-.3432.7702-.7044 1.1497-1.0847 2.2166-2.2214 3.6501-4.4382 4.1635-5.2881zm-5.4748 1.2711c-.0287.0067-.0576.0116-.0865.0152-.0289.0037-.0581.0057-.0871.0072-.0291.0007-.0581.0001-.0875-.0022-.0289-.002-.0576-.0052-.0862-.0098-.0283-.0051-.0573-.0112-.0849-.0187-.0281-.0077-.0563-.0163-.0833-.0269-.0273-.01-.0542-.0219-.0804-.0348-.0257-.0125-.0518-.0267-.0765-.0422-.0247-.0154-.0489-.0326-.0719-.0505-.0226-.0177-.0451-.0366-.0661-.0567-.0213-.0197-.0413-.0413-.0606-.0631-.0188-.0216-.0371-.0449-.0541-.0681-.0167-.0237-.0327-.0484-.0471-.0736-.0144-.0251-.0277-.0508-.0398-.0773-.0118-.027-.0223-.0539-.0317-.0814-.0094-.0276-.0177-.0558-.0242-.0844-.0527-.2281-.0116-.4733.1123-.6716.0154-.0246.0322-.0491.0501-.0722.018-.0231.0371-.0447.0567-.0661.0202-.0209.0413-.0413.0631-.0606.0223-.019.0449-.037.0686-.0537s.0484-.0327.073-.0474c.0251-.0145.0517-.0279.0779-.0395.0265-.0122.0537-.0232.0812-.0325.0276-.0094.056-.0169.0841-.0238.0286-.0066.0576-.0115.0865-.0152.0288-.0036.0576-.006.087-.0071.0291-.0007.0581-.0001.087.0019s.0581.0055.0864.0106c.0286.0046.0576.0108.0852.0182.0281.0077.056.0167.0833.0269.0273.01.0541.0219.0799.0345.0524.0257.1028.0572.1484.0927.0231.018.0456.0368.0666.057s.0414.0413.0607.0631c.0187.0216.037.0449.0537.0686.017.0233.0325.0477.0469.0727.0149.0254.0281.0512.0403.0777.0114.0267.0223.0538.0318.0813.0094.0277.0176.0559.0242.0845.0527.2281.0115.4732-.1127.672-.1239.1981-.3261.3426-.5543.3953z"/></g></svg>