<svg fill="none" height="106" viewBox="0 0 107 106" width="107" xmlns="http://www.w3.org/2000/svg" xmlns:xlink="http://www.w3.org/1999/xlink"><clipPath id="a"><path d="m0 0h34.7925v42.5242h-34.7925z" transform="matrix(.98325491 -.18223553 .18223553 .98325491 32.303 35.3324)"/></clipPath><rect fill="#f08a4b" height="90.1108" rx="16" transform="matrix(.98325491 -.18223553 .18223553 .98325491 -3.026203 .278069)" width="91.1233" y="16.606"/><g clip-path="url(#a)"><path d="m54.774 66.1389c-.7485-.689-1.1339-1.6522-.7191-2.7637l5.9846-16.8359c.4518-.9115 1.3409-1.697 2.3782-1.6824 2.0748.0294 4.09-1.3788 4.7566-3.3647.7925-2.4231-.4898-4.8756-2.9499-5.8681-1.3487-.5778-2.7862-.5183-3.9124.1043-.363.2742-.8373-.0517-1.1115-.4148-.6226-1.1262-1.6453-2.1782-2.9569-2.5559-2.4231-.7925-5.0756.5268-5.9052 2.7499-1.2667 2.0972-.6217 4.4608 1.0382 5.6016.7485.689 1.134 1.6522.7192 2.7638l-5.9846 16.8358c-.4519.9115-1.3409 1.6971-2.3783 1.6824-2.0747-.0293-4.09 1.3788-4.7566 3.3648-.7924 2.4231.4898 4.8755 2.95 5.868 1.3487.5778 2.7862.5183 3.9123-.1043.7632-.3483 1.2004-.2224 1.5117.3407.6226 1.1261 1.6453 2.1782 2.9569 2.5559 2.4231.7925 5.0756-.5269 5.9051-2.7499.8667-2.023.2217-4.3866-1.4383-5.5275z" fill="#fff"/></g></svg>