<svg fill="none" height="33" viewBox="0 0 142 33" width="142" xmlns="http://www.w3.org/2000/svg" xmlns:xlink="http://www.w3.org/1999/xlink"><clipPath id="a"><path d="m0 0h142v32.2378h-142z"/></clipPath><g clip-path="url(#a)" fill="#f08a4b"><path d="m23.5233 5.17642c-1.5255-.27448-3.0628 1.20041-3.4445 3.29846-.3816 2.09802.556 4.01352 2.0816 4.28802 1.5255.2745 3.0629-1.2004 3.4434-3.29847.3804-2.09806-.5549-4.01354-2.0805-4.28801zm1.1239 4.11484c-.1743.97424-.9023 2.44204-2.0368 2.52454-.0933.0076-.1871.0028-.2792-.0142-.0919-.0166-.1813-.0447-.2662-.0836-.2893-.1384-.5284-.3631-.6845-.6432.1003.0782.2109.142.3287.1896.0913.0368.1866.0625.2839.0766.0998.0118.2007.0118.3004 0 1.2228-.1178 2.0521-1.62919 2.2713-2.62111.0583-.27418.0879-.55373.0883-.83404.0745.46568.0725.94042-.0059 1.40541z"/><path clip-rule="evenodd" d="m5.15794 14.5865c-1.73759-1.2276-3.87099-1.1957-4.765111.0694-.89412 1.2652-.210866 3.2879 1.531431 4.5154 1.74229 1.2275 3.87099 1.1957 4.76511-.0695s.20616-3.2878-1.53143-4.5153zm.86466 3.7072c-.03356.0875-.07788.1707-.13193.2473-.05396.0764-.11728.1457-.18849.2062-.86585.7351-2.41377.2014-3.22189-.3699-.38096-.275-.71442-.6105-.98719-.9931.19662.1995.4138.3776.64791.5314.85289.5536 2.50213 1.046 3.45751.2732.07828-.0627.14869-.1347.20969-.2144.0595-.0781.10933-.1632.14843-.2533.05017-.117.08462-.2402.10248-.3663.08486.3092.07211.6371-.03652.9389z" fill-rule="evenodd"/><path d="m18.2115 5.48132c-.4299-2.47384-2.2382-4.22321-4.0418-3.90985-1.8035.31335-2.9132 2.5728-2.4832 5.04547.43 2.47269 2.2382 4.22316 4.0418 3.90986 1.8035-.3134 2.9144-2.57279 2.4832-5.04548zm-2.2924 3.97935c-.2289.10308-.4801.14683-.7303.12726-.7693-.06125-1.3854-.60906-1.8248-1.29581.4099.45233.9282.77394 1.5467.80695.1321.00721.2646-.00154.3947-.02595.1306-.0244.2579-.06393.3793-.11782 1.2381-.55487 1.6163-2.20878 1.5444-3.44334.0094.04594.0177.0907.0259.13428.2144 1.23811-.0306 3.2254-1.3359 3.81443z"/><path clip-rule="evenodd" d="m9.83452 7.37589c-1.42775-2.0639-3.80616-2.89323-5.30932-1.85185-1.50316 1.04136-1.56442 3.55759-.13547 5.62146 1.42894 2.064 3.80619 2.8933 5.30931 1.8531 1.50316-1.0402 1.56446-3.55997.13548-5.62271zm-.40643 4.57431c-.08228.0941-.17562.1779-.27801.2497-.10285.0707-.214.1285-.33098.172-1.34295.4971-2.91208-.7469-3.62714-1.7788-.02592-.0366-.05065-.0743-.07658-.1179.8152.9307 2.24532 1.8436 3.51644 1.3689.1245-.0463.24316-.1071.35339-.1814.10976-.0737.21023-.1602.29919-.2579.41702-.4571.56079-1.0497.53484-1.66106.16611.79986.11077 1.62336-.39115 2.20646z" fill-rule="evenodd"/><path d="m26.1219 19.7755c-.2356-.9259-.5407-.6491-.4429.0318.1779 1.2287-.0542 2.6435-.3181 3.6601-.0284-.0327-.0587-.0638-.0907-.093-.1628-.1535-.3607-.2648-.5763-.3242-.2157-.0595-.4426-.0652-.661-.0168-.2185.0484-.4216.1495-.592.2945s-.3027.3295-.3854.5374c-.0826.2079-.1133.4328-.0891.6552.0243.2224.1025.4354.228.6207.1254.1852.2944.3369.4919.4418.1975.105.4177.1601.6415.1604-.8825 1.3233-2.1188 2.3723-3.5683 3.0275-2.4552-.2597-4.848-.937-7.0752-2.0027-.0426-.0194-.0909-.0221-.1356-.0078-.0446.0143-.0823.0448-.1056.0854-.0234.0406-.0309.0884-.0209.1342s.0367.0862.0748.1134c1.6596 1.1105 3.5251 1.8768 5.4861 2.2536l-.1496.0364c-1.3314.2543-2.7041.1876-4.0046-.1945-1.3004-.3821-2.4911-1.0686-3.4733-2.0026-.9823-.9339-1.7278-2.0885-2.17483-3.3681-.44704-1.2796-.58274-2.6472-.39584-3.9897 1.14038 1.449 2.34547 2.6541 4.59427 3.7779.2627.1308.4889-.1955.3086-.3181-1.7752-1.2153-3.3681-2.6773-4.73086-4.3421.18714-.7526.47643-1.476.85998-2.15.11775.1285.23558.2628.33218.3593 2.4209 2.5316 4.5225 4.5107 8.8352 6.0422.4252.1507.7068-.39.4111-.5443-3.1892-1.654-6.1042-3.7902-8.642-6.333-.1037-.1025-.2427-.2474-.3781-.3888.9954-1.449.9613-2.0085-.0507-1.1709-1.73985 1.4368-2.9347 3.4266-3.38545 5.6376-.45076 2.211-.13018 4.5097.90835 6.5129 1.03852 2.0034 2.7322 3.5903 4.7988 4.4963 2.0666.9059 4.3812 1.0763 6.5583.4828 5.2504-1.4337 8.285-6.8408 6.9173-12.1148z"/><path d="m21.6419 25.0011c-.0702.0746-.1167.1684-.1336.2694-.0169.1011-.0034.2049.0386.2983.0421.0934.1109.1723.1979.2266.0869.0543.1879.0816.2904.0784.1024-.003.2015-.0365.285-.096.0834-.0595.1473-.1424.1837-.2382.0363-.0958.0433-.2003.0203-.3001-.0231-.0998-.0752-.1906-.1498-.2609-.0495-.0467-.1077-.0832-.1714-.1074-.0637-.0243-.1314-.0356-.1995-.0336-.068.0021-.135.0176-.1971.0457-.0621.028-.1179.068-.1645.1178z"/><path d="m15.845 14.8347c-.07.0745-.1163.168-.1331.2689-.0168.1008-.0034.2043.0386.2975s.1107.1718.1974.226c.0867.0541.1875.0813.2897.0782.1021-.0032.2011-.0365.2843-.0958s.147-.142.1832-.2376.0433-.1998.0204-.2993c-.0229-.0996-.0749-.1902-.1493-.2603-.0494-.0467-.1075-.0832-.1711-.1074-.0635-.0242-.1312-.0356-.1991-.0335-.068.0021-.1349.0176-.1968.0457-.062.028-.1178.068-.1642.1176z"/><path d="m24.2102 22.2691c-.0415.0446-.0688.1006-.0785.1607-.0098.0601-.0016.1217.0237.1771.0252.0555.0663.1022.118.1344.0518.0321.1119.0482.1727.0462.0609-.0019.1199-.0219.1694-.0573.0496-.0354.0876-.0846.1091-.1416.0217-.057.0259-.119.0123-.1784-.0136-.0593-.0444-.1134-.0887-.1552-.0296-.028-.0644-.0499-.1026-.0643-.038-.0144-.0787-.0212-.1193-.0199-.0408.0013-.0809.0107-.1179.0276-.0371.0169-.0705.0409-.0982.0707z"/><path d="m11.953 14.2383c1.0778-.258 6.3024-4.24091 11.0369.7645.6962.7362 1.3582 1.7905 1.7493 2.3195.4795.6515.7975.2957.2969-.7445-1.3477-2.8014-5.2517-5.1774-9.1544-4.4411-1.5986.3003-3.0771.8151-4.3057 1.7104-.0566.2886.0189.476.377.3912z"/><path d="m44.8566 7.03094h2.7019c.5526.02048.8904.16375 1.0132.42984.1023.19445.1535.48104.1535.85968v3.37734c0 .3275-.1433.6396-.4299.9364-.8596.8904-2.1491 1.3356-3.8685 1.3356-1.5249 0-2.8502-.5732-3.976-1.7194-1.1258-1.1565-1.6886-2.54832-1.6886-4.17556 0-1.62725.5731-2.98329 1.7193-4.06811 1.1462-1.09507 2.4971-1.6426 4.0528-1.6426 1.2076 0 2.3487.39914 3.4233 1.19741.2763.20469.4145.43496.4145.69081 0 .24562-.1177.53218-.3531.85968-.3991.54241-.7624.81362-1.0899.81362-.1944 0-.5066-.13816-.9365-.41449-.4298-.28655-.9415-.42984-1.5351-.42984-.7778 0-1.4686.27633-2.0724.82898-.6039.54241-.9058 1.25881-.9058 2.14919 0 .88017.3071 1.63238.9211 2.25661.6141.6141 1.31.9211 2.0878.9211.5629 0 1.0695-.0921 1.5198-.2763v-1.67331h-1.2128c-.3172 0-.5424-.04091-.6754-.12281s-.2201-.19957-.261-.35308c-.0409-.16372-.0614-.37864-.0614-.64476 0-.27632.0205-.49636.0614-.6601.0512-.16375.1382-.27633.261-.33773.1842-.09211.4298-.13817.7368-.13817zm5.0946-3.76108c0-.23539.0052-.40936.0154-.52194.0205-.12281.0665-.26097.1381-.41449.1433-.27632.5425-.41448 1.1974-.41448.6244 0 1.0132.13816 1.1667.41448.0819.15352.128.29168.1382.41449.0205.12281.0307.30191.0307.5373v7.10768c0 .3684.0307.6038.0921.7062.0614.0921.1945.1381.3991.1381.215 0 .3583.0102.4299.0307.0717.0102.1586.0512.261.1228.2047.133.307.4964.307 1.09 0 .6447-.1023 1.0387-.307 1.182-.2661.1842-.9006.2149-1.9036.0921-.788-.1023-1.2997-.3633-1.5351-.7829-.2866-.5014-.4299-1.2997-.4299-2.3948zm4.7919 6.50898c0-1.22811.4299-2.2413 1.2896-3.03957.8596-.79827 1.8421-1.19741 2.9474-1.19741s2.0827.39914 2.9321 1.19741c.8495.78804 1.2742 1.79611 1.2742 3.02422 0 .84951-.2201 1.60671-.6601 2.27201-.4401.655-.9774 1.1411-1.6119 1.4584-.6243.307-1.2742.4605-1.9496.4605-.6755 0-1.3305-.1637-1.965-.4912-.6346-.3378-1.1719-.829-1.6119-1.4738-.4298-.6549-.6448-1.3918-.6448-2.21056zm3.2085 1.10526c.3275.2457.6601.3685.9978.3685s.6755-.128 1.0132-.3838.5066-.6346.5066-1.13602c0-.50145-.1587-.87502-.4759-1.12065-.3172-.24562-.6601-.36843-1.0285-.36843-.3685 0-.7113.12795-1.0286.38379-.3172.25583-.4759.63454-.4759 1.136 0 .49121.1638.86481.4913 1.12061zm10.6632-5.14267c.9109 0 1.7449.40426 2.5022 1.21276.7676.80848 1.1514 1.75005 1.1514 2.82465 0 1.06436-.3786 2.00086-1.136 2.80926-.7574.7983-1.571 1.1974-2.4409 1.1974-.8698 0-1.489-.2456-1.8575-.7368-.0819.5014-.5219.7522-1.3202.7522-.6448 0-1.0387-.1382-1.182-.4145-.0717-.1535-.1177-.2865-.1382-.3991-.0102-.1228-.0154-.3019-.0154-.5373v-9.16478c0-.23539.0052-.40937.0154-.52195.0205-.12281.0665-.25585.1382-.39914.1433-.27632.5424-.41448 1.1974-.41448.6447 0 1.0336.13816 1.1667.41448.0819.15352.1279.29168.1381.41449.0205.11258.0307.28656.0307.52195v3.19308c.4094-.50148.9927-.75222 1.7501-.75222zm-1.3509 4.95847c.2558.2763.5731.4145.9517.4145.3787 0 .7011-.1382.9672-.4145s.3991-.5833.3991-.92106c0-.33773-.1228-.64476-.3684-.92108-.2456-.28654-.5732-.42984-.9825-.42984s-.7369.1433-.9825.42984c-.2354.28653-.3531.5987-.3531.93643 0 .32751.1228.62941.3685.90571zm11.249-4.11414c.0615-.57312.466-.85968 1.2128-.85968.3991 0 .6962.0307.8904.09211.1949.0614.3277.16886.3991.32238.0821.15351.1282.29167.1382.41448.0207.11258.0307.28656.0307.52195v5.373c0 .2354-.01.4145-.0307.5373-.01.1126-.0507.2456-.1228.3991-.1428.2661-.4959.3991-1.0593.3991-.5526 0-.9257-.0665-1.1206-.1995-.1842-.1433-.2917-.348-.3224-.6141-.3784.5425-1.0132.8136-1.9033.8136-.8801 0-1.6988-.4042-2.4562-1.2127-.7573-.8085-1.136-1.7449-1.136-2.80931 0-1.0746.3787-2.01103 1.136-2.8093.7676-.8085 1.6068-1.21276 2.5176-1.21276.3482 0 .6652.06141.9515.18422.2871.12281.4867.2405.5987.35308.1129.10234.205.20469.2763.30703zm-2.7936 3.19308c0 .33776.1331.64476.3991.92106.2662.2661.5885.3992.9669.3992.3792 0 .6908-.1382.9364-.4145.2564-.2764.3838-.5782.3838-.90576 0-.33773-.1228-.6499-.3684-.93644-.2349-.28653-.5573-.42983-.9672-.42983-.3988 0-.7263.1433-.9822.42983-.2456.28654-.3684.59871-.3684.93644zm6.6891-6.50898c0-.23539.0046-.40936.0153-.52194.02-.12281.066-.26097.1382-.41449.1427-.27632.5419-.41448 1.1974-.41448.624 0 1.0132.13816 1.1667.41448.0813.15352.1274.29168.1381.41449.02.12281.0307.30191.0307.5373v7.10768c0 .3684.0307.6038.0921.7062.0615.0921.1942.1381.3992.1381.2149 0 .3577.0102.4298.0307.0714.0102.1581.0512.261.1228.2042.133.307.4964.307 1.09 0 .6447-.1028 1.0387-.307 1.182-.2664.1842-.9011.2149-1.9036.0921-.7883-.1023-1.3002-.3633-1.5351-.7829-.2871-.5014-.4298-1.2997-.4298-2.3948zm17.2096 1.56584c.2663.54242.399 1.14623.399 1.81146s-.1327 1.26902-.399 1.81146c-.2664.53216-.6087.95693-1.0286 1.27416-.8497.65492-1.7293.98252-2.6404.98252h-1.9189v1.7347c0 .2354-.01.4145-.0307.5373-.01.1126-.056.2456-.1382.3991-.1435.2763-.5426.4145-1.1974.4145-.7161 0-1.136-.1894-1.2588-.568-.0614-.174-.0921-.4401-.0921-.7983v-8.51998c0-.23539.0054-.40937.0154-.52194.0207-.12282.0713-.26098.1535-.41449.1435-.27633.5426-.41449 1.1974-.41449h3.2852c.9003 0 1.7753.3275 2.625.98249.4199.31726.7622.7471 1.0286 1.28951zm-3.6536 3.16238c.307 0 .6086-.1126.9057-.33773.297-.22515.4452-.56288.4452-1.01319s-.1482-.78804-.4452-1.01319c-.2971-.23539-.6041-.35308-.9211-.35308h-1.9189v2.71719zm12.3816.81362c0 .62426-.158 1.08995-.476 1.397-.307.2968-.649.4452-1.028.4452h-3.639c0 .2865.169.5271.507.7215s.675.2917 1.013.2917c.594 0 1.059-.0615 1.397-.1843l.169-.0614c.246-.1126.45-.1688.614-.1688.328 0 .609.2302.844.6908.134.2763.2.5117.2.7061 0 .9109-1.09 1.3663-3.27 1.3663-.757 0-1.432-.1279-2.026-.3838-.584-.2661-1.039-.614-1.367-1.0439-.644-.8289-.967-1.7552-.967-2.77856 0-1.28951.415-2.31805 1.244-3.08562.839-.7778 1.883-1.1667 3.131-1.1667 1.423 0 2.467.50147 3.132 1.50443.349.53217.522 1.1155.522 1.75005zm-3.239.44519c.389 0 .583-.16372.583-.49124 0-.23542-.092-.4247-.276-.568-.174-.14331-.43-.21492-.768-.21492-.327 0-.654.13816-.982.41448-.327.26612-.491.55265-.491.85968zm8.789-.81362-.998-.06141v2.11844c0 .2764.04.4759.122.5988.093.1228.256.1842.492.1842.245 0 .43.0102.552.0307.133.0102.271.0562.415.1381.236.1331.353.4759.353 1.0286 0 .6447-.144 1.0387-.43 1.182-.153.0716-.292.1177-.414.1382-.113.0102-.282.0153-.507.0153-1.065 0-1.873-.2404-2.425-.7215-.553-.481-.829-1.2946-.829-2.4408v-2.27204c-.195.03071-.405.04606-.63.04606s-.414-.08697-.568-.26098c-.143-.174-.215-.47074-.215-.89037 0-.41961.026-.72152.077-.90573.051-.19445.123-.33261.215-.41449.163-.13304.368-.19957.614-.19957l.507.06141v-1.58119c0-.23539.005-.40937.015-.52195.021-.11258.071-.23539.153-.36843.133-.25585.528-.38378 1.182-.38378.697 0 1.111.18933 1.244.568.051.16374.077.42472.077.78292v1.50443c.45-.04094.788-.06141 1.013-.06141.235 0 .409.01023.522.03071.123.01023.261.05628.414.13816.267.13304.399.52706.399 1.18205 0 .64476-.138 1.03875-.414 1.18206-.154.07161-.292.11766-.415.13816-.112.01021-.286.01535-.521.01535zm-61.4404 10.30073c.6856.2456 1.0285.5732 1.0285.9825 0 .133-.0614.3838-.1842.7522l-2.9475 8.52c-.0205.0716-.0562.1587-.1074.261s-.1894.2405-.4145.4145c-.2149.1637-.4759.2456-.7829.2456-.2969 0-.5578-.0819-.783-.2456-.2149-.174-.3582-.3429-.4298-.5066l-1.7961-5.2962c-1.136 3.3568-1.7142 5.0659-1.7347 5.1273s-.0666.1484-.1382.261-.1535.2149-.2456.307c-.2354.2354-.5168.3531-.8443.3531s-.5987-.0767-.8136-.2303c-.2047-.1535-.3429-.307-.4145-.4605l-.1075-.2303-2.9628-8.52c-.1126-.3377-.1689-.5885-.1689-.7522 0-.4093.3429-.7317 1.0286-.9671.2968-.1023.5628-.1535.7983-.1535.2456 0 .4298.0819.5526.2456.133.1637.2508.4145.3531.7522l1.6886 5.1274 1.6733-5.0506c.1433-.4299.4043-.7267.7829-.8904.1638-.0716.3736-.1075.6295-.1075.2661 0 .5117.087.7368.261.2251.1637.3684.3275.4299.4912l1.7654 5.327 1.6886-5.1581c.0819-.2354.1484-.4093.1996-.5219s.1433-.2201.2763-.3224c.1433-.1126.3172-.1689.5219-.1689.2048 0 .4452.0512.7216.1535zm.5635 7.1538c0-1.2282.4299-2.2413 1.2895-3.0396.8597-.7983 1.8422-1.1974 2.9475-1.1974s2.0827.3991 2.9321 1.1974c.8495.788 1.2742 1.7961 1.2742 3.0242 0 .8495-.22 1.6068-.6602 2.272-.44.655-.9773 1.1411-1.6118 1.4584-.6243.307-1.2742.4605-1.9497.4605-.6754 0-1.3304-.1637-1.9649-.4912-.6345-.3377-1.1718-.829-1.6119-1.4738-.4299-.6549-.6448-1.3918-.6448-2.2105zm3.2084 1.1053c.3276.2456.6601.3684.9979.3684.3377 0 .6754-.128 1.0132-.3838.3377-.2558.5066-.6345.5066-1.136s-.1586-.875-.4759-1.1206c-.3173-.2457-.6601-.3685-1.0286-.3685-.3684 0-.7112.128-1.0285.3838-.3172.2558-.4759.6346-.4759 1.136 0 .4912.1638.8648.4912 1.1207zm11.7225-5.066c.1944.0614.3531.1689.4759.3224.133.1433.1996.3786.1996.7061 0 .3276-.0973.6857-.2917 1.0746-.1945.389-.4759.5834-.8444.5834-.1842 0-.3632-.0409-.5372-.1228-.1638-.0819-.3838-.1228-.6602-.1228-.2763 0-.5373.0972-.7829.2916-.2354.1945-.3531.4299-.3531.7062v3.2238c0 .2354-.0102.4145-.0307.5373-.0102.1126-.0562.2456-.1381.3991-.1535.2661-.5527.3992-1.1974.3992-.4913 0-.8444-.087-1.0593-.261-.1637-.1433-.2558-.3633-.2763-.6601 0-.1023 0-.2508 0-.4452v-5.3883c0-.2354.0051-.4094.0154-.522.0204-.1228.0665-.2558.1381-.3991.1433-.2763.5425-.4145 1.1974-.4145.6141 0 .9979.1177 1.1514.3531.1126.1637.1688.3326.1688.5066.0512-.0716.1229-.1587.215-.261.1023-.1023.3121-.2405.6294-.4145.3172-.174.5935-.261.8289-.261.2457 0 .4504.0154.6141.0461.1637.0205.3429.0614.5373.1228zm1.5202-2.5483c0-.2354.0052-.4094.0154-.522.0205-.1228.0665-.2609.1381-.4144.1434-.2764.5425-.4145 1.1975-.4145.6243 0 1.0131.1381 1.1667.4145.0819.1535.1279.2916.1381.4144.0205.1228.0307.3019.0307.5373v7.1077c0 .3684.0307.6039.0921.7062.0614.0921.1945.1381.3992.1381.2149 0 .3582.0102.4298.0307.0717.0102.1587.0512.261.1228.2047.1331.307.4964.307 1.09 0 .6447-.1023 1.0387-.307 1.182-.2661.1843-.9006.215-1.9036.0922-.788-.1024-1.2997-.3633-1.5351-.783-.2866-.5014-.4299-1.2997-.4299-2.3948zm10.4413-.9057c.0821-.1536.2202-.261.4144-.3224s.4506-.0921.7676-.0921c.3278 0 .5887.0307.7829.0921s.3278.1688.3992.3224c.0821.1535.1281.2916.1381.4144.0208.1126.0307.2866.0307.522v9.1647c0 .2355-.0099.4145-.0307.5373-.01.1126-.056.2405-.1381.3838-.1535.2763-.5888.4145-1.3049.4145-.7062 0-1.0999-.2508-1.1821-.7522-.4298.4912-1.0285.7369-1.7961.7369-.921 0-1.7602-.3992-2.5176-1.1974-.7573-.8085-1.136-1.745-1.136-2.8093 0-1.0746.3787-2.0162 1.136-2.8247.7676-.8085 1.6065-1.2128 2.5176-1.2128.7576 0 1.3456.2559 1.7654.7676v-3.2238c0-.2354.0054-.4093.0154-.5219.0207-.1228.0668-.2558.1382-.3991zm-2.487 8.3357c.2664.2764.5888.4145.9672.4145s.6908-.1381.9364-.4145c.2556-.2763.3838-.5782.3838-.9057 0-.3377-.1228-.6499-.3684-.9364-.2357-.2866-.5581-.4299-.9672-.4299s-.7368.1433-.9825.4299c-.2456.2763-.3684.5833-.3684.9211 0 .3377.1328.6447.3991.921zm12.843.8444h4.1755c.3378 0 .5834.0409.7369.1228.1535.0716.2556.1893.307.3531.0507.1637.0768.3837.0768.6601 0 .2661-.0261.481-.0768.6447-.0514.1637-.1381.2763-.2609.3377-.195.1024-.4606.1536-.7983.1536h-5.5265c-.7169 0-1.136-.1945-1.2588-.5834-.0614-.1637-.0921-.4247-.0921-.7829v-8.5354c0-.2354.0046-.4093.0153-.5219.02-.1228.0714-.261.1536-.4145.1427-.2763.5419-.4145 1.1974-.4145.7161 0 1.1406.1894 1.2741.568.0507.174.0768.4401.0768.7983zm6.2925-4.4673c0-.2354.0054-.4093.0153-.5219.0208-.1228.0668-.261.1382-.4145.1435-.2661.5427-.3992 1.1974-.3992.4913 0 .839.087 1.0439.261.1742.1433.2663.3633.2763.6601.01.1023.0154.2508.0154.4452v5.373c0 .2354-.01.4145-.0307.5373-.01.1126-.0561.2456-.1382.3991-.1328.2661-.5273.3992-1.182.3992-.6448 0-1.0386-.1382-1.1821-.4145-.0714-.1535-.1174-.2866-.1382-.3992-.0099-.1126-.0153-.2916-.0153-.5373zm2.5176-2.84c-.0714.1433-.2049.2456-.3991.307s-.4552.0922-.7829.0922c-.317 0-.5734-.0308-.7676-.0922s-.3324-.1688-.4145-.3223c-.0714-.1535-.1174-.2866-.1382-.3992-.0099-.1228-.0153-.3019-.0153-.5373s.0054-.4093.0153-.5219c.0208-.1228.0668-.2558.1382-.3991.1435-.2764.5427-.4145 1.1974-.4145.6448 0 1.0339.1381 1.1667.4145.0821.1535.1282.2916.1382.4144.0207.1126.0307.2866.0307.522s-.01.4145-.0307.5373c-.01.1126-.0561.2456-.1382.3991zm4.0354 2.5637c.481-.7267 1.06-1.09 1.735-1.09 1.044 0 1.822.4452 2.334 1.3356.112-.1535.245-.3122.399-.4759.163-.174.419-.3582.767-.5526.348-.2047.706-.3071 1.075-.3071.818 0 1.504.3173 2.057.9518.553.6243.829 1.6631.829 3.1164v2.6864c0 .2355-.011.4145-.031.5373-.011.1126-.057.2457-.138.3992-.133.2763-.527.4145-1.182.4145-.645 0-1.039-.1433-1.182-.4299-.072-.1535-.118-.2865-.138-.3991-.011-.1228-.016-.3019-.016-.5373v-2.6865c0-.8904-.317-1.3356-.951-1.3356-.359 0-.604.1177-.737.3531-.123.2354-.184.568-.184.9979v2.6864c0 .2457-.011.4247-.031.5373-.011.1126-.057.2457-.138.3992-.144.2763-.543.4145-1.198.4145-.644 0-1.039-.1433-1.182-.4299-.072-.1535-.118-.2865-.138-.3991-.011-.1228-.015-.3019-.015-.5373v-2.6865c0-.8904-.318-1.3356-.952-1.3356-.614 0-.921.4452-.921 1.3356v2.7172c0 .2354-.011.4145-.031.5373-.011.1126-.057.2456-.138.3991-.153.2661-.553.3992-1.197.3992-.645 0-1.04-.1382-1.182-.4145-.073-.1535-.119-.2866-.139-.3992-.01-.1126-.015-.2916-.015-.5373v-5.4036c0-.2354.005-.4094.015-.522.02-.1228.072-.2558.154-.3991.153-.2763.516-.4145 1.09-.4145.572 0 .946.0921 1.121.2763.173.1842.26.4504.26.7983zm10.417.2763c0-.2354.006-.4093.015-.5219.021-.1228.067-.261.139-.4145.143-.2661.542-.3992 1.197-.3992.491 0 .84.087 1.044.261.174.1433.266.3633.276.6601.011.1023.016.2508.016.4452v5.373c0 .2354-.01.4145-.031.5373-.01.1126-.056.2456-.138.3991-.133.2661-.527.3992-1.182.3992-.645 0-1.039-.1382-1.182-.4145-.072-.1535-.118-.2866-.139-.3992-.009-.1126-.015-.2916-.015-.5373zm2.518-2.84c-.072.1433-.204.2456-.399.307s-.456.0922-.783.0922c-.317 0-.573-.0308-.768-.0922-.194-.0614-.332-.1688-.414-.3223-.072-.1535-.118-.2866-.139-.3992-.009-.1228-.015-.3019-.015-.5373s.006-.4093.015-.5219c.021-.1228.067-.2558.139-.3991.143-.2764.542-.4145 1.197-.4145.645 0 1.034.1381 1.167.4145.082.1535.128.2916.138.4144.021.1126.031.2866.031.522s-.01.4145-.031.5373c-.01.1126-.056.2456-.138.3991zm6.093 4.2063-.998-.0614v2.1185c0 .2763.041.4759.123.5987.092.1228.255.1842.491.1842.246 0 .43.0102.553.0307.132.0102.271.0563.414.1382.236.133.353.4758.353 1.0285 0 .6447-.143 1.0387-.43 1.182-.153.0717-.291.1177-.414.1382-.113.0102-.282.0154-.507.0154-1.064 0-1.873-.2405-2.425-.7216-.553-.481-.829-1.2946-.829-2.4408v-2.272c-.194.0307-.405.046-.63.046s-.414-.0869-.568-.2609c-.143-.174-.215-.4708-.215-.8904s.026-.7215.077-.9057c.052-.1945.123-.3326.215-.4145.164-.1331.369-.1996.614-.1996l.507.0614v-1.5812c0-.2354.005-.4093.015-.5219.021-.1126.071-.2354.154-.3685.132-.2558.527-.3837 1.182-.3837.696 0 1.11.1893 1.243.568.052.1637.077.4247.077.7829v1.5044c.45-.0409.788-.0614 1.013-.0614.236 0 .409.0102.522.0307.123.0102.261.0563.415.1382.266.133.399.5271.399 1.182 0 .6448-.139 1.0388-.415 1.1821-.153.0716-.292.1176-.414.1381-.113.0102-.287.0154-.522.0154zm9.697.3684c0 .6243-.159 1.09-.476 1.397-.307.2968-.65.4452-1.028.4452h-3.639c0 .2865.169.5271.507.7215s.676.2917 1.013.2917c.594 0 1.059-.0614 1.397-.1842l.169-.0615c.246-.1126.45-.1688.614-.1688.327 0 .609.2303.844.6908.133.2763.2.5117.2.7062 0 .9108-1.09 1.3662-3.27 1.3662-.757 0-1.433-.1279-2.026-.3838-.584-.2661-1.039-.614-1.366-1.0438-.645-.829-.968-1.7552-.968-2.7786 0-1.2896.415-2.3181 1.244-3.0857.839-.7777 1.883-1.1667 3.132-1.1667 1.422 0 2.466.5015 3.131 1.5045.348.5321.522 1.1155.522 1.75zm-3.239.4452c.388 0 .583-.1637.583-.4912 0-.2354-.092-.4247-.276-.568-.174-.1433-.43-.215-.768-.215-.327 0-.655.1382-.982.4145-.328.2661-.491.5527-.491.8597zm9.66-6.8927c.081-.1536.219-.261.414-.3224s.45-.0921.768-.0921c.327 0 .588.0307.783.0921.194.0614.327.1688.399.3224.081.1535.127.2916.138.4144.02.1126.031.2866.031.522v9.1647c0 .2355-.011.4145-.031.5373-.011.1126-.057.2405-.138.3838-.154.2763-.589.4145-1.305.4145-.706 0-1.101-.2508-1.182-.7522-.43.4912-1.028.7369-1.796.7369-.921 0-1.761-.3992-2.518-1.1974-.757-.8085-1.136-1.745-1.136-2.8093 0-1.0746.379-2.0162 1.136-2.8247.768-.8085 1.607-1.2128 2.518-1.2128.757 0 1.345.2559 1.765.7676v-3.2238c0-.2354.005-.4093.016-.5219.02-.1228.066-.2558.138-.3991zm-2.487 8.3357c.266.2764.588.4145.967.4145.378 0 .691-.1381.937-.4145.255-.2763.383-.5782.383-.9057 0-.3377-.123-.6499-.368-.9364-.236-.2866-.558-.4299-.967-.4299-.41 0-.737.1433-.983.4299-.245.2763-.368.5833-.368.9211 0 .3377.133.6447.399.921z"/></g></svg>