<svg width="168" height="38" viewBox="0 0 168 38" fill="none" xmlns="http://www.w3.org/2000/svg">
<g clip-path="url(#clip0_39_88)">
<path d="M27.7278 6.10155C25.9296 5.778 24.1175 7.51651 23.6676 9.98957C23.2177 12.4626 24.323 14.7205 26.1212 15.044C27.9194 15.3676 29.7316 13.6291 30.18 11.156C30.6285 8.68292 29.526 6.42508 27.7278 6.10155ZM29.0525 10.9519C28.8471 12.1002 27.9889 13.8304 26.6517 13.9276C26.5417 13.9366 26.4311 13.931 26.3226 13.9109C26.2142 13.8914 26.1088 13.8582 26.0087 13.8124C25.6678 13.6492 25.386 13.3843 25.202 13.0542C25.3201 13.1464 25.4505 13.2216 25.5894 13.2777C25.697 13.3211 25.8093 13.3514 25.9241 13.368C26.0417 13.3819 26.1606 13.3819 26.2782 13.368C27.7195 13.2292 28.6971 11.4476 28.9554 10.2784C29.0241 9.95519 29.059 9.62567 29.0595 9.29526C29.1473 9.84417 29.1449 10.4038 29.0525 10.9519Z" fill="white"/>
<path fill-rule="evenodd" clip-rule="evenodd" d="M6.07986 17.1938C4.0317 15.7468 1.51698 15.7843 0.463043 17.2756C-0.590892 18.767 0.214487 21.1512 2.2682 22.5981C4.32191 24.045 6.83109 24.0075 7.88502 22.5162C8.93896 21.0248 8.12803 18.6407 6.07986 17.1938ZM7.09908 21.5636C7.05951 21.6668 7.00727 21.7648 6.94356 21.8552C6.87996 21.9452 6.80532 22.0268 6.72139 22.0982C5.70078 22.9647 3.87618 22.3356 2.92361 21.6622C2.47456 21.338 2.0815 20.9426 1.75998 20.4916C1.99173 20.7268 2.24774 20.9367 2.5237 21.1179C3.52903 21.7705 5.47305 22.3509 6.5992 21.44C6.69147 21.3661 6.77446 21.2812 6.84636 21.1873C6.9165 21.0952 6.97524 20.9949 7.02132 20.8887C7.08046 20.7507 7.12107 20.6055 7.14213 20.4569C7.24215 20.8214 7.22712 21.2079 7.09908 21.5636Z" fill="white"/>
<path d="M21.4667 6.46102C20.9599 3.54499 18.8284 1.48294 16.7025 1.85231C14.5765 2.22167 13.2685 4.88497 13.7754 7.79961C14.2822 10.7143 16.4137 12.7777 18.5396 12.4083C20.6655 12.0389 21.975 9.37567 21.4667 6.46102ZM18.7645 11.1516C18.4947 11.2731 18.1986 11.3247 17.9036 11.3016C16.9969 11.2294 16.2706 10.5837 15.7527 9.77422C16.2359 10.3074 16.8469 10.6865 17.5759 10.7254C17.7316 10.7339 17.8878 10.7236 18.041 10.6948C18.195 10.666 18.345 10.6194 18.4882 10.5559C19.9476 9.90188 20.3933 7.95235 20.3087 6.49712C20.3197 6.55127 20.3295 6.60404 20.3391 6.65541C20.5919 8.11482 20.303 10.4573 18.7645 11.1516Z" fill="white"/>
<path fill-rule="evenodd" clip-rule="evenodd" d="M11.5923 8.69422C9.90939 6.26143 7.10587 5.28387 5.33404 6.51138C3.56221 7.73888 3.49 10.7049 5.17435 13.1377C6.8587 15.5705 9.66085 16.5481 11.4326 15.3219C13.2045 14.0958 13.2767 11.1257 11.5923 8.69422ZM11.1133 14.0861C11.0163 14.1971 10.9063 14.2959 10.7856 14.3805C10.6643 14.4638 10.5333 14.5319 10.3954 14.5832C8.81243 15.1692 6.96283 13.7029 6.11997 12.4864C6.08942 12.4434 6.06026 12.3989 6.02971 12.3475C6.99061 13.4446 8.67635 14.5207 10.1747 13.9611C10.3214 13.9065 10.4613 13.8348 10.5912 13.7473C10.7206 13.6604 10.839 13.5584 10.9439 13.4432C11.4355 12.9044 11.6049 12.2059 11.5743 11.4853C11.7701 12.4282 11.7049 13.3988 11.1133 14.0861Z" fill="white"/>
<path d="M30.7911 23.31C30.5134 22.2186 30.1538 22.5449 30.269 23.3475C30.4787 24.7958 30.2051 26.4634 29.8941 27.6618C29.8605 27.6233 29.8249 27.5866 29.7871 27.5521C29.5952 27.3713 29.362 27.2401 29.1078 27.1701C28.8536 27.0999 28.5861 27.0932 28.3287 27.1502C28.0712 27.2073 27.8317 27.3265 27.6308 27.4974C27.4301 27.6683 27.2741 27.8858 27.1766 28.1308C27.0792 28.3758 27.0431 28.6409 27.0716 28.9031C27.1002 29.1652 27.1924 29.4164 27.3403 29.6347C27.4881 29.853 27.6873 30.0319 27.9201 30.1556C28.153 30.2794 28.4125 30.3442 28.6763 30.3446C27.6361 31.9045 26.1788 33.141 24.4702 33.9133C21.5762 33.6071 18.7556 32.8087 16.1304 31.5526C16.0802 31.5297 16.0232 31.5265 15.9705 31.5434C15.918 31.5602 15.8735 31.5962 15.846 31.644C15.8184 31.6919 15.8097 31.7482 15.8214 31.8023C15.8332 31.8562 15.8647 31.9039 15.9096 31.9359C17.8658 33.2449 20.0647 34.1482 22.3762 34.5923L22.1999 34.6353C20.6306 34.935 19.0125 34.8564 17.4796 34.406C15.9467 33.9556 14.5433 33.1464 13.3854 32.0455C12.2276 30.9446 11.3488 29.5836 10.8219 28.0753C10.2949 26.567 10.135 24.9549 10.3553 23.3725C11.6995 25.0804 13.12 26.501 15.7707 27.8257C16.0804 27.9798 16.3471 27.5952 16.1346 27.4507C14.042 26.0182 12.1644 24.2948 10.5581 22.3325C10.7786 21.4454 11.1196 20.5927 11.5717 19.7982C11.7105 19.9496 11.8494 20.1079 11.9633 20.2218C14.8169 23.2059 17.2941 25.5387 22.3777 27.3439C22.8789 27.5216 23.2108 26.8842 22.8623 26.7023C19.103 24.7526 15.6671 22.2347 12.6756 19.2373C12.5534 19.1165 12.3896 18.9457 12.2299 18.779C13.4033 17.0711 13.363 16.4115 12.1702 17.3988C10.1193 19.0925 8.71092 21.4379 8.17959 24.0441C7.64827 26.6503 8.02616 29.3599 9.25031 31.7212C10.4745 34.0826 12.4708 35.9531 14.9068 37.0211C17.3428 38.089 20.0712 38.2899 22.6374 37.5902C28.8262 35.9003 32.4033 29.5267 30.7911 23.31Z" fill="white"/>
<path d="M25.5102 29.4698C25.4275 29.5578 25.3726 29.6683 25.3527 29.7875C25.3328 29.9065 25.3486 30.029 25.3982 30.1391C25.4478 30.2492 25.529 30.3422 25.6315 30.4062C25.7339 30.4701 25.853 30.5023 25.9738 30.4986C26.0944 30.495 26.2113 30.4556 26.3097 30.3854C26.408 30.3153 26.4834 30.2176 26.5262 30.1046C26.569 29.9917 26.5773 29.8685 26.5502 29.7508C26.5229 29.6332 26.4615 29.5262 26.3736 29.4434C26.3152 29.3883 26.2466 29.3452 26.1715 29.3167C26.0965 29.2881 26.0166 29.2748 25.9364 29.2772C25.8562 29.2796 25.7772 29.2979 25.7041 29.331C25.6309 29.3641 25.5651 29.4112 25.5102 29.4698Z" fill="white"/>
<path d="M18.677 17.4863C18.5945 17.574 18.54 17.6843 18.5201 17.8032C18.5003 17.922 18.5162 18.0441 18.5657 18.1539C18.6152 18.2637 18.6962 18.3564 18.7984 18.4203C18.9005 18.484 19.0194 18.5162 19.1398 18.5125C19.2602 18.5087 19.3769 18.4695 19.4749 18.3995C19.573 18.3296 19.6482 18.2322 19.6909 18.1195C19.7336 18.0068 19.7419 17.884 19.715 17.7667C19.6879 17.6492 19.6267 17.5425 19.539 17.4599C19.4807 17.4048 19.4122 17.3618 19.3373 17.3333C19.2624 17.3048 19.1826 17.2913 19.1025 17.2937C19.0224 17.2963 18.9436 17.3145 18.8706 17.3476C18.7975 17.3806 18.7318 17.4277 18.677 17.4863Z" fill="white"/>
<path d="M28.5374 26.2494C28.4886 26.302 28.4564 26.3679 28.4449 26.4388C28.4334 26.5096 28.4431 26.5822 28.4728 26.6476C28.5026 26.7129 28.551 26.768 28.612 26.8059C28.673 26.8437 28.7438 26.8627 28.8156 26.8604C28.8873 26.8581 28.9568 26.8346 29.0152 26.7929C29.0736 26.7512 29.1184 26.6931 29.1438 26.6259C29.1693 26.5588 29.1743 26.4857 29.1583 26.4157C29.1423 26.3457 29.1059 26.2821 29.0538 26.2327C29.0189 26.1997 28.9778 26.1739 28.9328 26.1569C28.8879 26.1399 28.8401 26.1319 28.7921 26.1335C28.7441 26.135 28.6969 26.1461 28.6532 26.166C28.6095 26.1859 28.5701 26.2142 28.5374 26.2494Z" fill="white"/>
<path d="M14.0893 16.7833C15.3599 16.4792 21.5182 11.7844 27.099 17.6845C27.9196 18.5523 28.7 19.7951 29.161 20.4186C29.7262 21.1865 30.1011 20.7672 29.5109 19.541C27.9224 16.2389 23.3206 13.4382 18.7203 14.3061C16.836 14.6601 15.0933 15.2669 13.645 16.3223C13.5783 16.6624 13.6673 16.8833 14.0893 16.7833Z" fill="white"/>
<path d="M52.8743 8.28762H56.059C56.7105 8.31175 57.1086 8.48063 57.2533 8.79428C57.3739 9.02349 57.4343 9.3613 57.4343 9.80762V13.7886C57.4343 14.1746 57.2654 14.5425 56.9276 14.8924C55.9143 15.9419 54.3943 16.4667 52.3676 16.4667C50.5701 16.4667 49.008 15.7911 47.681 14.44C46.3539 13.0768 45.6905 11.4362 45.6905 9.51809C45.6905 7.6 46.3661 6.00158 47.7171 4.72285C49.0682 3.43206 50.6606 2.78666 52.4943 2.78666C53.9177 2.78666 55.2629 3.25714 56.5295 4.19809C56.8552 4.43937 57.0181 4.71079 57.0181 5.01238C57.0181 5.3019 56.8794 5.63968 56.6019 6.02571C56.1314 6.66508 55.7032 6.98476 55.3171 6.98476C55.088 6.98476 54.72 6.8219 54.2133 6.49619C53.7067 6.15841 53.1035 5.98952 52.4038 5.98952C51.487 5.98952 50.6727 6.31524 49.961 6.96666C49.2492 7.60603 48.8933 8.45047 48.8933 9.5C48.8933 10.5375 49.2552 11.4242 49.979 12.16C50.7029 12.8838 51.5232 13.2457 52.44 13.2457C53.1035 13.2457 53.7006 13.1371 54.2314 12.92V10.9476H52.8019C52.428 10.9476 52.1625 10.8994 52.0057 10.8029C51.8489 10.7063 51.7463 10.5676 51.6981 10.3867C51.6499 10.1937 51.6257 9.94035 51.6257 9.62666C51.6257 9.30095 51.6499 9.04158 51.6981 8.84857C51.7584 8.65556 51.861 8.52285 52.0057 8.45047C52.2229 8.3419 52.5124 8.28762 52.8743 8.28762ZM58.8795 3.85428C58.8795 3.57682 58.8855 3.37175 58.8976 3.23904C58.9217 3.09428 58.976 2.93143 59.0604 2.75047C59.2293 2.42476 59.6998 2.2619 60.4718 2.2619C61.2078 2.2619 61.6661 2.42476 61.8471 2.75047C61.9436 2.93143 61.9979 3.09428 62.0099 3.23904C62.0341 3.38381 62.0461 3.59492 62.0461 3.87238V12.2505C62.0461 12.6848 62.0823 12.9623 62.1547 13.0829C62.2271 13.1914 62.384 13.2457 62.6252 13.2457C62.8785 13.2457 63.0474 13.2577 63.1318 13.2819C63.2163 13.2939 63.3189 13.3423 63.4395 13.4267C63.6808 13.5835 63.8014 14.0118 63.8014 14.7114C63.8014 15.4714 63.6808 15.9358 63.4395 16.1048C63.1259 16.3219 62.3779 16.3581 61.1957 16.2133C60.2668 16.0927 59.6636 15.7851 59.3861 15.2905C59.0484 14.6994 58.8795 13.7584 58.8795 12.4676V3.85428ZM64.5279 11.5267C64.5279 10.079 65.0346 8.88476 66.0479 7.94381C67.0612 7.00285 68.2193 6.53238 69.5222 6.53238C70.825 6.53238 71.9771 7.00285 72.9784 7.94381C73.9797 8.8727 74.4803 10.061 74.4803 11.5086C74.4803 12.5099 74.2209 13.4025 73.7022 14.1867C73.1835 14.9587 72.5501 15.5318 71.8022 15.9057C71.0663 16.2676 70.3003 16.4486 69.5041 16.4486C68.7079 16.4486 67.9359 16.2556 67.1879 15.8695C66.4399 15.4714 65.8066 14.8924 65.2879 14.1324C64.7812 13.3603 64.5279 12.4918 64.5279 11.5267ZM68.3098 12.8295C68.6959 13.119 69.0879 13.2638 69.486 13.2638C69.8841 13.2638 70.2822 13.113 70.6803 12.8114C71.0784 12.5099 71.2774 12.0635 71.2774 11.4724C71.2774 10.8813 71.0904 10.441 70.7165 10.1514C70.3425 9.8619 69.9384 9.71714 69.5041 9.71714C69.0698 9.71714 68.6656 9.86796 68.2917 10.1695C67.9178 10.4711 67.7308 10.9175 67.7308 11.5086C67.7308 12.0876 67.9237 12.528 68.3098 12.8295ZM80.8789 6.76762C81.9526 6.76762 82.9357 7.24413 83.8285 8.19714C84.7332 9.15013 85.1856 10.26 85.1856 11.5267C85.1856 12.7813 84.7393 13.8851 83.8466 14.8381C82.9538 15.779 81.9948 16.2495 80.9694 16.2495C79.944 16.2495 79.2142 15.96 78.7799 15.3809C78.6834 15.972 78.1646 16.2676 77.2237 16.2676C76.4637 16.2676 75.9993 16.1048 75.8304 15.779C75.7459 15.5981 75.6917 15.4413 75.6675 15.3086C75.6555 15.1638 75.6494 14.9527 75.6494 14.6752V3.87238C75.6494 3.59492 75.6555 3.38984 75.6675 3.25714C75.6917 3.11238 75.7459 2.95556 75.8304 2.78666C75.9993 2.46095 76.4698 2.29809 77.2418 2.29809C78.0018 2.29809 78.4602 2.46095 78.617 2.78666C78.7136 2.96762 78.7679 3.13047 78.7799 3.27524C78.804 3.40794 78.8161 3.61301 78.8161 3.89047V7.65428C79.2986 7.06318 79.9862 6.76762 80.8789 6.76762ZM79.2866 12.6124C79.5881 12.9381 79.9621 13.101 80.4085 13.101C80.8548 13.101 81.2348 12.9381 81.5485 12.6124C81.8621 12.2867 82.0189 11.9248 82.0189 11.5267C82.0189 11.1286 81.8742 10.7667 81.5847 10.441C81.2951 10.1032 80.9091 9.93428 80.4266 9.93428C79.944 9.93428 79.558 10.1032 79.2685 10.441C78.991 10.7787 78.8523 11.1467 78.8523 11.5448C78.8523 11.9308 78.997 12.2867 79.2866 12.6124ZM92.5463 7.76285C92.6187 7.0873 93.0955 6.74952 93.9758 6.74952C94.4463 6.74952 94.7964 6.78571 95.0253 6.85809C95.2552 6.93047 95.4117 7.05714 95.4958 7.23809C95.5926 7.41904 95.6469 7.5819 95.6587 7.72666C95.6831 7.85937 95.6949 8.06444 95.6949 8.3419V14.6752C95.6949 14.9527 95.6831 15.1638 95.6587 15.3086C95.6469 15.4413 95.599 15.5981 95.5139 15.779C95.3456 16.0927 94.9294 16.2495 94.2653 16.2495C93.6139 16.2495 93.1742 16.1711 92.9444 16.0143C92.7272 15.8454 92.6006 15.6042 92.5644 15.2905C92.1183 15.9299 91.3701 16.2495 90.3209 16.2495C89.2835 16.2495 88.3184 15.773 87.4257 14.82C86.5331 13.867 86.0867 12.7632 86.0867 11.5086C86.0867 10.2419 86.5331 9.13809 87.4257 8.19714C88.3305 7.24413 89.3197 6.76762 90.3933 6.76762C90.8037 6.76762 91.1774 6.84 91.5149 6.98476C91.8533 7.12952 92.0885 7.26825 92.2206 7.40095C92.3536 7.52158 92.4622 7.64222 92.5463 7.76285ZM89.2533 11.5267C89.2533 11.9248 89.4102 12.2867 89.7238 12.6124C90.0375 12.9261 90.4175 13.0829 90.8634 13.0829C91.3104 13.0829 91.6777 12.92 91.9673 12.5943C92.2694 12.2686 92.4196 11.9127 92.4196 11.5267C92.4196 11.1286 92.2749 10.7606 91.9853 10.4229C91.7085 10.0851 91.3285 9.91619 90.8453 9.91619C90.3752 9.91619 89.9893 10.0851 89.6876 10.4229C89.3981 10.7606 89.2533 11.1286 89.2533 11.5267ZM97.138 3.85428C97.138 3.57682 97.1434 3.37175 97.1561 3.23904C97.1796 3.09428 97.2339 2.93143 97.3189 2.75047C97.4872 2.42476 97.9577 2.2619 98.7303 2.2619C99.4659 2.2619 99.9246 2.42476 100.106 2.75047C100.201 2.93143 100.256 3.09428 100.268 3.23904C100.292 3.38381 100.305 3.59492 100.305 3.87238V12.2505C100.305 12.6848 100.341 12.9623 100.413 13.0829C100.486 13.1914 100.642 13.2457 100.884 13.2457C101.137 13.2457 101.305 13.2577 101.39 13.2819C101.474 13.2939 101.577 13.3423 101.698 13.4267C101.939 13.5835 102.06 14.0118 102.06 14.7114C102.06 15.4714 101.939 15.9358 101.698 16.1048C101.384 16.3219 100.636 16.3581 99.4542 16.2133C98.525 16.0927 97.9215 15.7851 97.6446 15.2905C97.3062 14.6994 97.138 13.7584 97.138 12.4676V3.85428ZM117.424 5.7C117.738 6.33937 117.894 7.05111 117.894 7.83524C117.894 8.61937 117.738 9.33108 117.424 9.97047C117.11 10.5977 116.706 11.0984 116.211 11.4724C115.21 12.2444 114.173 12.6305 113.099 12.6305H110.837V14.6752C110.837 14.9527 110.825 15.1638 110.801 15.3086C110.789 15.4413 110.735 15.5981 110.638 15.779C110.469 16.1048 109.998 16.2676 109.226 16.2676C108.382 16.2676 107.887 16.0444 107.743 15.5981C107.67 15.393 107.634 15.0794 107.634 14.6571V4.61428C107.634 4.33682 107.64 4.13175 107.652 3.99904C107.677 3.85428 107.736 3.69143 107.833 3.51047C108.002 3.18476 108.473 3.0219 109.245 3.0219H113.117C114.178 3.0219 115.21 3.40794 116.211 4.18C116.706 4.55396 117.11 5.06063 117.424 5.7ZM113.117 9.42762C113.479 9.42762 113.834 9.29489 114.185 9.02952C114.535 8.76413 114.709 8.36603 114.709 7.83524C114.709 7.30444 114.535 6.90634 114.185 6.64095C113.834 6.36349 113.473 6.22476 113.099 6.22476H110.837V9.42762H113.117ZM127.712 10.3867C127.712 11.1225 127.525 11.6714 127.151 12.0333C126.789 12.3832 126.385 12.5581 125.938 12.5581H121.65C121.65 12.8958 121.849 13.1794 122.247 13.4086C122.645 13.6377 123.043 13.7524 123.441 13.7524C124.141 13.7524 124.69 13.68 125.088 13.5352L125.287 13.4629C125.576 13.3301 125.818 13.2638 126.011 13.2638C126.397 13.2638 126.729 13.5352 127.006 14.0781C127.163 14.4038 127.241 14.6813 127.241 14.9105C127.241 15.9842 125.956 16.521 123.387 16.521C122.495 16.521 121.699 16.3701 120.998 16.0686C120.311 15.7549 119.774 15.3448 119.388 14.8381C118.628 13.8609 118.248 12.7692 118.248 11.5629C118.248 10.0429 118.736 8.83047 119.714 7.92571C120.703 7.00889 121.934 6.55047 123.405 6.55047C125.082 6.55047 126.313 7.14158 127.096 8.32381C127.507 8.95111 127.712 9.6387 127.712 10.3867ZM123.894 10.9114C124.352 10.9114 124.581 10.7184 124.581 10.3324C124.581 10.0549 124.473 9.83177 124.256 9.66286C124.051 9.49394 123.749 9.40952 123.351 9.40952C122.965 9.40952 122.579 9.57238 122.193 9.89809C121.807 10.2118 121.614 10.5495 121.614 10.9114H123.894ZM134.253 9.95238L133.077 9.88V12.3771C133.077 12.7029 133.125 12.9381 133.222 13.0829C133.33 13.2276 133.523 13.3 133.801 13.3C134.09 13.3 134.307 13.312 134.452 13.3362C134.609 13.3482 134.772 13.4025 134.941 13.499C135.218 13.6558 135.357 14.06 135.357 14.7114C135.357 15.4714 135.188 15.9358 134.85 16.1048C134.669 16.1892 134.506 16.2435 134.362 16.2676C134.229 16.2796 134.03 16.2857 133.765 16.2857C132.51 16.2857 131.557 16.0022 130.905 15.4352C130.254 14.8682 129.928 13.9092 129.928 12.5581V9.88C129.699 9.91619 129.452 9.93428 129.186 9.93428C128.921 9.93428 128.698 9.83177 128.517 9.62666C128.348 9.42156 128.264 9.07177 128.264 8.57714C128.264 8.08253 128.293 7.72666 128.354 7.50952C128.415 7.28032 128.499 7.11746 128.607 7.02095C128.8 6.86413 129.042 6.78571 129.331 6.78571L129.928 6.85809V4.99428C129.928 4.71682 129.935 4.51175 129.946 4.37905C129.971 4.24634 130.031 4.10158 130.127 3.94476C130.284 3.64317 130.749 3.49238 131.521 3.49238C132.341 3.49238 132.83 3.71556 132.986 4.1619C133.047 4.35491 133.077 4.66253 133.077 5.08476V6.85809C133.608 6.80984 134.006 6.78571 134.271 6.78571C134.549 6.78571 134.753 6.79777 134.886 6.8219C135.031 6.83396 135.194 6.88825 135.375 6.98476C135.689 7.14158 135.845 7.60603 135.845 8.37809C135.845 9.13809 135.683 9.60251 135.357 9.77143C135.176 9.85584 135.013 9.91013 134.868 9.93428C134.735 9.94632 134.531 9.95238 134.253 9.95238ZM61.8314 22.0943C62.6397 22.3838 63.0438 22.7699 63.0438 23.2524C63.0438 23.4092 62.9714 23.7048 62.8267 24.139L59.3524 34.1819C59.3282 34.2663 59.2861 34.3689 59.2257 34.4895C59.1654 34.6101 59.0025 34.773 58.7371 34.9781C58.4838 35.1711 58.1762 35.2676 57.8143 35.2676C57.4644 35.2676 57.1568 35.1711 56.8914 34.9781C56.6381 34.773 56.4692 34.5739 56.3848 34.381L54.2676 28.1381C52.9286 32.0949 52.247 34.1095 52.2229 34.1819C52.1987 34.2543 52.1444 34.3568 52.06 34.4895C51.9756 34.6222 51.879 34.7429 51.7705 34.8514C51.493 35.1289 51.1613 35.2676 50.7752 35.2676C50.3892 35.2676 50.0695 35.1771 49.8162 34.9962C49.5749 34.8152 49.412 34.6343 49.3276 34.4533L49.201 34.1819L45.7086 24.139C45.5758 23.741 45.5095 23.4454 45.5095 23.2524C45.5095 22.7699 45.9137 22.3899 46.7219 22.1124C47.0718 21.9918 47.3854 21.9314 47.6629 21.9314C47.9524 21.9314 48.1695 22.028 48.3143 22.221C48.4711 22.4139 48.6099 22.7095 48.7305 23.1076L50.721 29.1514L52.6933 23.1981C52.8623 22.6914 53.1699 22.3416 53.6162 22.1486C53.8092 22.0642 54.0565 22.0219 54.3581 22.0219C54.6718 22.0219 54.9613 22.1244 55.2267 22.3295C55.492 22.5225 55.661 22.7156 55.7333 22.9086L57.8143 29.1876L59.8048 23.1076C59.9013 22.8301 59.9797 22.6251 60.04 22.4924C60.1004 22.3597 60.2089 22.233 60.3657 22.1124C60.5346 21.9797 60.7397 21.9133 60.981 21.9133C61.2223 21.9133 61.5057 21.9737 61.8314 22.0943ZM62.4957 30.5267C62.4957 29.079 63.0024 27.8848 64.0157 26.9438C65.029 26.0029 66.1871 25.5324 67.49 25.5324C68.7929 25.5324 69.945 26.0029 70.9462 26.9438C71.9475 27.8727 72.4481 29.061 72.4481 30.5086C72.4481 31.5099 72.1888 32.4025 71.67 33.1867C71.1513 33.9587 70.518 34.5318 69.77 34.9057C69.0341 35.2676 68.2681 35.4486 67.4719 35.4486C66.6757 35.4486 65.9037 35.2556 65.1557 34.8695C64.4078 34.4714 63.7745 33.8924 63.2557 33.1324C62.749 32.3603 62.4957 31.4918 62.4957 30.5267ZM66.2776 31.8295C66.6637 32.119 67.0557 32.2638 67.4538 32.2638C67.8519 32.2638 68.25 32.113 68.6481 31.8114C69.0462 31.5099 69.2452 31.0635 69.2452 30.4724C69.2452 29.8813 69.0583 29.441 68.6843 29.1514C68.3103 28.8619 67.9062 28.7171 67.4719 28.7171C67.0376 28.7171 66.6335 28.868 66.2595 29.1695C65.8856 29.4711 65.6986 29.9175 65.6986 30.5086C65.6986 31.0876 65.8916 31.528 66.2776 31.8295ZM80.0953 25.8581C80.3245 25.9305 80.5115 26.0571 80.6563 26.2381C80.8131 26.407 80.8915 26.6844 80.8915 27.0705C80.8915 27.4565 80.7769 27.8787 80.5477 28.3371C80.3185 28.7956 79.9868 29.0248 79.5525 29.0248C79.3353 29.0248 79.1242 28.9765 78.9191 28.88C78.7261 28.7835 78.4668 28.7352 78.141 28.7352C77.8153 28.7352 77.5077 28.8499 77.2182 29.079C76.9407 29.3082 76.802 29.5857 76.802 29.9114V33.7114C76.802 33.9889 76.79 34.2 76.7658 34.3448C76.7538 34.4775 76.6995 34.6343 76.6029 34.8152C76.422 35.1289 75.9515 35.2857 75.1915 35.2857C74.6125 35.2857 74.1963 35.1832 73.9429 34.9781C73.75 34.8092 73.6414 34.5499 73.6172 34.2C73.6172 34.0794 73.6172 33.9044 73.6172 33.6752V27.3238C73.6172 27.0463 73.6233 26.8413 73.6353 26.7086C73.6595 26.5638 73.7138 26.407 73.7982 26.2381C73.9671 25.9124 74.4376 25.7495 75.2096 25.7495C75.9334 25.7495 76.3858 25.8882 76.5668 26.1657C76.6995 26.3587 76.7658 26.5577 76.7658 26.7629C76.8261 26.6784 76.9106 26.5758 77.0191 26.4552C77.1397 26.3346 77.3871 26.1718 77.761 25.9667C78.135 25.7616 78.4607 25.659 78.7382 25.659C79.0277 25.659 79.269 25.6771 79.462 25.7133C79.655 25.7375 79.8661 25.7857 80.0953 25.8581ZM81.8873 22.8543C81.8873 22.5768 81.8934 22.3718 81.9054 22.239C81.9295 22.0943 81.9838 21.9314 82.0682 21.7505C82.2372 21.4248 82.7076 21.2619 83.4797 21.2619C84.2156 21.2619 84.674 21.4248 84.8549 21.7505C84.9515 21.9314 85.0057 22.0943 85.0178 22.239C85.0419 22.3838 85.054 22.5949 85.054 22.8724V31.2505C85.054 31.6848 85.0902 31.9623 85.1625 32.0829C85.2349 32.1914 85.3918 32.2457 85.633 32.2457C85.8863 32.2457 86.0553 32.2577 86.1397 32.2819C86.2242 32.2939 86.3267 32.3423 86.4473 32.4267C86.6886 32.5835 86.8092 33.0118 86.8092 33.7114C86.8092 34.4714 86.6886 34.9358 86.4473 35.1048C86.1337 35.3219 85.3857 35.3581 84.2035 35.2133C83.2747 35.0927 82.6715 34.7851 82.394 34.2905C82.0562 33.6994 81.8873 32.7584 81.8873 31.4676V22.8543ZM94.1948 21.7867C94.2916 21.6057 94.4544 21.479 94.6833 21.4067C94.9123 21.3343 95.2144 21.2981 95.5881 21.2981C95.9744 21.2981 96.2821 21.3343 96.511 21.4067C96.7399 21.479 96.8973 21.6057 96.9814 21.7867C97.0783 21.9676 97.1325 22.1305 97.1443 22.2752C97.1687 22.408 97.1805 22.613 97.1805 22.8905V33.6933C97.1805 33.9708 97.1687 34.1819 97.1443 34.3267C97.1325 34.4594 97.0783 34.6101 96.9814 34.779C96.8005 35.1048 96.2875 35.2676 95.4433 35.2676C94.611 35.2676 94.1468 34.972 94.05 34.381C93.5433 34.96 92.8376 35.2495 91.9329 35.2495C90.8472 35.2495 89.858 34.779 88.9652 33.8381C88.0725 32.8851 87.6262 31.7813 87.6262 30.5267C87.6262 29.26 88.0725 28.1501 88.9652 27.1971C89.87 26.2442 90.8589 25.7676 91.9329 25.7676C92.8259 25.7676 93.5189 26.0692 94.0138 26.6724V22.8724C94.0138 22.5949 94.0202 22.3899 94.0319 22.2571C94.0563 22.1124 94.1106 21.9556 94.1948 21.7867ZM91.2633 31.6124C91.5773 31.9381 91.9573 32.101 92.4033 32.101C92.8494 32.101 93.2176 31.9381 93.5072 31.6124C93.8084 31.2867 93.9595 30.9308 93.9595 30.5448C93.9595 30.1467 93.8148 29.7787 93.5253 29.441C93.2475 29.1032 92.8675 28.9343 92.3853 28.9343C91.903 28.9343 91.5167 29.1032 91.2272 29.441C90.9376 29.7667 90.7929 30.1286 90.7929 30.5267C90.7929 30.9248 90.9494 31.2867 91.2633 31.6124ZM106.402 32.6076H111.324C111.722 32.6076 112.011 32.6558 112.192 32.7524C112.373 32.8368 112.494 32.9756 112.554 33.1686C112.614 33.3616 112.645 33.621 112.645 33.9467C112.645 34.2603 112.614 34.5137 112.554 34.7067C112.494 34.8997 112.391 35.0324 112.247 35.1048C112.017 35.2254 111.704 35.2857 111.306 35.2857H104.791C103.946 35.2857 103.452 35.0565 103.308 34.5981C103.235 34.4051 103.199 34.0975 103.199 33.6752V23.6143C103.199 23.3368 103.204 23.1318 103.217 22.999C103.241 22.8543 103.301 22.6914 103.398 22.5105C103.566 22.1848 104.037 22.0219 104.809 22.0219C105.654 22.0219 106.154 22.2451 106.311 22.6914C106.371 22.8965 106.402 23.2101 106.402 23.6324V32.6076ZM113.819 27.3419C113.819 27.0644 113.825 26.8594 113.837 26.7267C113.862 26.5819 113.916 26.419 114 26.2381C114.169 25.9244 114.64 25.7676 115.411 25.7676C115.99 25.7676 116.4 25.8701 116.642 26.0752C116.847 26.2442 116.956 26.5035 116.968 26.8533C116.979 26.9739 116.986 27.1489 116.986 27.3781V33.7114C116.986 33.9889 116.974 34.2 116.95 34.3448C116.938 34.4775 116.883 34.6343 116.787 34.8152C116.63 35.1289 116.165 35.2857 115.393 35.2857C114.633 35.2857 114.169 35.1229 114 34.7971C113.916 34.6162 113.862 34.4594 113.837 34.3267C113.825 34.1939 113.819 33.9829 113.819 33.6933V27.3419ZM116.787 23.9943C116.703 24.1632 116.545 24.2838 116.316 24.3562C116.087 24.4286 115.78 24.4648 115.393 24.4648C115.02 24.4648 114.717 24.4286 114.489 24.3562C114.26 24.2838 114.097 24.1571 114 23.9762C113.916 23.7952 113.862 23.6384 113.837 23.5057C113.825 23.361 113.819 23.1499 113.819 22.8724C113.819 22.5949 113.825 22.3899 113.837 22.2571C113.862 22.1124 113.916 21.9556 114 21.7867C114.169 21.461 114.64 21.2981 115.411 21.2981C116.171 21.2981 116.63 21.461 116.787 21.7867C116.883 21.9676 116.938 22.1305 116.95 22.2752C116.974 22.408 116.986 22.613 116.986 22.8905C116.986 23.168 116.974 23.379 116.95 23.5238C116.938 23.6565 116.883 23.8133 116.787 23.9943ZM121.544 27.0162C122.11 26.1597 122.792 25.7314 123.589 25.7314C124.819 25.7314 125.736 26.2562 126.339 27.3057C126.471 27.1248 126.629 26.9377 126.81 26.7448C127.002 26.5396 127.304 26.3225 127.714 26.0933C128.124 25.852 128.547 25.7314 128.981 25.7314C129.946 25.7314 130.754 26.1054 131.406 26.8533C132.057 27.5892 132.383 28.8137 132.383 30.5267V33.6933C132.383 33.9708 132.37 34.1819 132.347 34.3267C132.334 34.4594 132.28 34.6162 132.184 34.7971C132.027 35.1229 131.562 35.2857 130.791 35.2857C130.031 35.2857 129.566 35.1168 129.397 34.779C129.312 34.5981 129.258 34.4413 129.234 34.3086C129.222 34.1638 129.216 33.9527 129.216 33.6752V30.5086C129.216 29.459 128.842 28.9343 128.094 28.9343C127.672 28.9343 127.382 29.073 127.226 29.3505C127.081 29.628 127.009 30.02 127.009 30.5267V33.6933C127.009 33.9829 126.996 34.1939 126.972 34.3267C126.96 34.4594 126.906 34.6162 126.81 34.7971C126.64 35.1229 126.17 35.2857 125.398 35.2857C124.638 35.2857 124.173 35.1168 124.005 34.779C123.92 34.5981 123.866 34.4413 123.842 34.3086C123.829 34.1638 123.824 33.9527 123.824 33.6752V30.5086C123.824 29.459 123.449 28.9343 122.702 28.9343C121.978 28.9343 121.616 29.459 121.616 30.5086V33.7114C121.616 33.9889 121.604 34.2 121.58 34.3448C121.567 34.4775 121.513 34.6343 121.417 34.8152C121.236 35.1289 120.766 35.2857 120.006 35.2857C119.246 35.2857 118.781 35.1229 118.612 34.7971C118.527 34.6162 118.473 34.4594 118.45 34.3267C118.437 34.1939 118.432 33.9829 118.432 33.6933V27.3238C118.432 27.0463 118.437 26.8413 118.45 26.7086C118.473 26.5638 118.534 26.407 118.631 26.2381C118.812 25.9124 119.239 25.7495 119.915 25.7495C120.59 25.7495 121.031 25.8581 121.236 26.0752C121.441 26.2924 121.544 26.6061 121.544 27.0162ZM133.822 27.3419C133.822 27.0644 133.829 26.8594 133.841 26.7267C133.865 26.5819 133.919 26.419 134.003 26.2381C134.173 25.9244 134.643 25.7676 135.415 25.7676C135.994 25.7676 136.405 25.8701 136.645 26.0752C136.851 26.2442 136.959 26.5035 136.971 26.8533C136.984 26.9739 136.989 27.1489 136.989 27.3781V33.7114C136.989 33.9889 136.977 34.2 136.953 34.3448C136.941 34.4775 136.887 34.6343 136.79 34.8152C136.634 35.1289 136.169 35.2857 135.397 35.2857C134.637 35.2857 134.173 35.1229 134.003 34.7971C133.919 34.6162 133.865 34.4594 133.841 34.3267C133.829 34.1939 133.822 33.9829 133.822 33.6933V27.3419ZM136.79 23.9943C136.706 24.1632 136.549 24.2838 136.32 24.3562C136.091 24.4286 135.783 24.4648 135.397 24.4648C135.023 24.4648 134.722 24.4286 134.492 24.3562C134.263 24.2838 134.1 24.1571 134.003 23.9762C133.919 23.7952 133.865 23.6384 133.841 23.5057C133.829 23.361 133.822 23.1499 133.822 22.8724C133.822 22.5949 133.829 22.3899 133.841 22.2571C133.865 22.1124 133.919 21.9556 134.003 21.7867C134.173 21.461 134.643 21.2981 135.415 21.2981C136.175 21.2981 136.634 21.461 136.79 21.7867C136.887 21.9676 136.941 22.1305 136.953 22.2752C136.977 22.408 136.989 22.613 136.989 22.8905C136.989 23.168 136.977 23.379 136.953 23.5238C136.941 23.6565 136.887 23.8133 136.79 23.9943ZM143.972 28.9524L142.796 28.88V31.3771C142.796 31.7029 142.844 31.9381 142.941 32.0829C143.049 32.2276 143.242 32.3 143.52 32.3C143.809 32.3 144.026 32.312 144.171 32.3362C144.328 32.3482 144.49 32.4025 144.66 32.499C144.937 32.6558 145.076 33.06 145.076 33.7114C145.076 34.4714 144.907 34.9358 144.569 35.1048C144.388 35.1892 144.225 35.2435 144.081 35.2676C143.948 35.2797 143.749 35.2857 143.484 35.2857C142.229 35.2857 141.276 35.0023 140.624 34.4352C139.973 33.8682 139.647 32.9092 139.647 31.5581V28.88C139.418 28.9162 139.17 28.9343 138.905 28.9343C138.64 28.9343 138.417 28.8318 138.236 28.6267C138.067 28.4216 137.983 28.0718 137.983 27.5771C137.983 27.0825 138.012 26.7267 138.073 26.5095C138.134 26.2803 138.218 26.1175 138.326 26.021C138.519 25.8642 138.761 25.7857 139.05 25.7857L139.647 25.8581V23.9943C139.647 23.7168 139.654 23.5118 139.665 23.379C139.69 23.2463 139.75 23.1016 139.846 22.9448C140.003 22.6432 140.468 22.4924 141.24 22.4924C142.06 22.4924 142.549 22.7156 142.705 23.1619C142.766 23.3549 142.796 23.6625 142.796 24.0848V25.8581C143.327 25.8099 143.725 25.7857 143.99 25.7857C144.268 25.7857 144.472 25.7977 144.605 25.8219C144.75 25.8339 144.913 25.8882 145.094 25.9848C145.408 26.1416 145.564 26.6061 145.564 27.3781C145.564 28.1381 145.402 28.6025 145.076 28.7714C144.895 28.8558 144.732 28.9101 144.587 28.9343C144.454 28.9463 144.25 28.9524 143.972 28.9524ZM155.403 29.3867C155.403 30.1225 155.216 30.6714 154.842 31.0333C154.48 31.3832 154.076 31.5581 153.629 31.5581H149.341C149.341 31.8958 149.54 32.1794 149.938 32.4086C150.336 32.6377 150.734 32.7524 151.132 32.7524C151.832 32.7524 152.381 32.68 152.779 32.5352L152.978 32.4629C153.268 32.3301 153.508 32.2638 153.702 32.2638C154.087 32.2638 154.419 32.5352 154.697 33.0781C154.854 33.4038 154.932 33.6813 154.932 33.9105C154.932 34.9842 153.648 35.521 151.078 35.521C150.185 35.521 149.389 35.3701 148.689 35.0686C148.002 34.7549 147.464 34.3448 147.079 33.8381C146.319 32.861 145.939 31.7692 145.939 30.5629C145.939 29.0429 146.428 27.8305 147.405 26.9257C148.394 26.0089 149.624 25.5505 151.096 25.5505C152.773 25.5505 154.003 26.1416 154.788 27.3238C155.197 27.9511 155.403 28.6387 155.403 29.3867ZM151.585 29.9114C152.043 29.9114 152.272 29.7184 152.272 29.3324C152.272 29.0549 152.164 28.8318 151.947 28.6629C151.741 28.4939 151.44 28.4095 151.042 28.4095C150.656 28.4095 150.269 28.5724 149.884 28.8981C149.497 29.2118 149.305 29.5495 149.305 29.9114H151.585ZM162.971 21.7867C163.067 21.6057 163.23 21.479 163.46 21.4067C163.689 21.3343 163.99 21.2981 164.365 21.2981C164.75 21.2981 165.058 21.3343 165.287 21.4067C165.516 21.479 165.673 21.6057 165.758 21.7867C165.854 21.9676 165.908 22.1305 165.921 22.2752C165.944 22.408 165.957 22.613 165.957 22.8905V33.6933C165.957 33.9708 165.944 34.1819 165.921 34.3267C165.908 34.4594 165.854 34.6101 165.758 34.779C165.577 35.1048 165.064 35.2676 164.22 35.2676C163.387 35.2676 162.922 34.972 162.826 34.381C162.32 34.96 161.614 35.2495 160.709 35.2495C159.624 35.2495 158.634 34.779 157.742 33.8381C156.849 32.8851 156.403 31.7813 156.403 30.5267C156.403 29.26 156.849 28.1501 157.742 27.1971C158.646 26.2442 159.635 25.7676 160.709 25.7676C161.601 25.7676 162.295 26.0692 162.79 26.6724V22.8724C162.79 22.5949 162.796 22.3899 162.808 22.2571C162.832 22.1124 162.886 21.9556 162.971 21.7867ZM160.04 31.6124C160.353 31.9381 160.733 32.101 161.18 32.101C161.626 32.101 161.994 31.9381 162.284 31.6124C162.585 31.2867 162.736 30.9308 162.736 30.5448C162.736 30.1467 162.591 29.7787 162.302 29.441C162.024 29.1032 161.644 28.9343 161.162 28.9343C160.679 28.9343 160.293 29.1032 160.004 29.441C159.714 29.7667 159.569 30.1286 159.569 30.5267C159.569 30.9248 159.726 31.2867 160.04 31.6124Z" fill="white"/>
</g>
<defs>
<clipPath id="clip0_39_88">
<rect width="167.381" height="38" fill="white"/>
</clipPath>
</defs>
</svg>
