<svg fill="none" height="38" viewBox="0 0 168 38" width="168" xmlns="http://www.w3.org/2000/svg" xmlns:xlink="http://www.w3.org/1999/xlink"><clipPath id="a"><path d="m0 0h167.381v38h-167.381z"/></clipPath><g clip-path="url(#a)" fill="#fff"><path d="m27.7278 6.10155c-1.7982-.32355-3.6103 1.41496-4.0602 3.88802-.4499 2.47303.6554 4.73093 2.4536 5.05443 1.7982.3236 3.6104-1.4149 4.0588-3.888.4485-2.47308-.654-4.73092-2.4522-5.05445zm1.3247 4.85035c-.2054 1.1483-1.0636 2.8785-2.4008 2.9757-.11.009-.2206.0034-.3291-.0167-.1084-.0195-.2138-.0527-.3139-.0985-.3409-.1632-.6227-.4281-.8067-.7582.1181.0922.2485.1674.3874.2235.1076.0434.2199.0737.3347.0903.1176.0139.2365.0139.3541 0 1.4413-.1388 2.4189-1.9204 2.6772-3.0896.0687-.32321.1036-.65273.1041-.98314.0878.54891.0854 1.10854-.007 1.65664z"/><path clip-rule="evenodd" d="m6.07986 17.1938c-2.04816-1.447-4.56288-1.4095-5.616817.0818-1.053935 1.4914-.248556 3.8756 1.805157 5.3225 2.05371 1.4469 4.56289 1.4094 5.61682-.0819 1.05394-1.4914.24301-3.8755-1.80516-5.3224zm1.01922 4.3698c-.03957.1032-.09181.2012-.15552.2916-.0636.09-.13824.1716-.22217.243-1.02061.8665-2.84521.2374-3.79778-.436-.44905-.3242-.84211-.7196-1.16363-1.1706.23175.2352.48776.4451.76372.6263 1.00533.6526 2.94935 1.233 4.0755.3221.09227-.0739.17526-.1588.24716-.2527.07014-.0921.12888-.1924.17496-.2986.05914-.138.09975-.2832.12081-.4318.10002.3645.08499.751-.04305 1.1067z" fill-rule="evenodd"/><path d="m21.4667 6.46102c-.5068-2.91603-2.6383-4.97808-4.7642-4.60871-2.126.36936-3.434 3.03266-2.9271 5.9473.5068 2.91469 2.6383 4.97809 4.7642 4.60869s3.4354-3.03263 2.9271-5.94728zm-2.7022 4.69058c-.2698.1215-.5659.1731-.8609.15-.9067-.0722-1.633-.7179-2.1509-1.52738.4832.53318 1.0942.91228 1.8232.95118.1557.0085.3119-.0018.4651-.0306.154-.0288.304-.0754.4472-.1389 1.4594-.65402 1.9051-2.60355 1.8205-4.05878.011.05415.0208.10692.0304.15829.2528 1.45941-.0361 3.80189-1.5746 4.49619z"/><path clip-rule="evenodd" d="m11.5923 8.69422c-1.68291-2.43279-4.48643-3.41035-6.25826-2.18284-1.77183 1.2275-1.84404 4.19352-.15969 6.62632s4.4865 3.4104 6.25825 2.1842c1.7719-1.2261 1.8441-4.1962.1597-6.62768zm-.479 5.39188c-.097.111-.207.2098-.3277.2944-.1213.0833-.2523.1514-.3902.2027-1.58297.586-3.43257-.8803-4.27543-2.0968-.03055-.043-.05971-.0875-.09026-.1389.9609 1.0971 2.64664 2.1732 4.14499 1.6136.1467-.0546.2866-.1263.4165-.2138.1294-.0869.2478-.1889.3527-.3041.4916-.5388.661-1.2373.6304-1.9579.1958.9429.1306 1.9135-.461 2.6008z" fill-rule="evenodd"/><path d="m30.7911 23.31c-.2777-1.0914-.6373-.7651-.5221.0375.2097 1.4483-.0639 3.1159-.3749 4.3143-.0336-.0385-.0692-.0752-.107-.1097-.1919-.1808-.4251-.312-.6793-.382-.2542-.0702-.5217-.0769-.7791-.0199-.2575.0571-.497.1763-.6979.3472-.2007.1709-.3567.3884-.4542.6334-.0974.245-.1335.5101-.105.7723.0286.2621.1208.5133.2687.7316.1478.2183.347.3972.5798.5209.2329.1238.4924.1886.7562.189-1.0402 1.5599-2.4975 2.7964-4.2061 3.5687-2.894-.3062-5.7146-1.1046-8.3398-2.3607-.0502-.0229-.1072-.0261-.1599-.0092-.0525.0168-.097.0528-.1245.1006-.0276.0479-.0363.1042-.0246.1583.0118.0539.0433.1016.0882.1336 1.9562 1.309 4.1551 2.2123 6.4666 2.6564l-.1763.043c-1.5693.2997-3.1874.2211-4.7203-.2293s-2.9363-1.2596-4.0942-2.3605c-1.1578-1.1009-2.0366-2.4619-2.5635-3.9702-.527-1.5083-.6869-3.1204-.4666-4.7028 1.3442 1.7079 2.7647 3.1285 5.4154 4.4532.3097.1541.5764-.2305.3639-.375-2.0926-1.4325-3.9702-3.1559-5.5765-5.1182.2205-.8871.5615-1.7398 1.0136-2.5343.1388.1514.2777.3097.3916.4236 2.8536 2.9841 5.3308 5.3169 10.4144 7.1221.5012.1777.8331-.4597.4846-.6416-3.7593-1.9497-7.1952-4.4676-10.1867-7.465-.1222-.1208-.286-.2916-.4457-.4583 1.1734-1.7079 1.1331-2.3675-.0597-1.3802-2.0509 1.6937-3.45928 4.0391-3.99061 6.6453-.53132 2.6062-.15343 5.3158 1.07072 7.6771 1.22419 2.3614 3.22049 4.2319 5.65649 5.2999 2.436 1.0679 5.1644 1.2688 7.7306.5691 6.1888-1.6899 9.7659-8.0635 8.1537-14.2802z"/><path d="m25.5102 29.4698c-.0827.088-.1376.1985-.1575.3177-.0199.119-.0041.2415.0455.3516s.1308.2031.2333.2671c.1024.0639.2215.0961.3423.0924.1206-.0036.2375-.043.3359-.1132.0983-.0701.1737-.1678.2165-.2808.0428-.1129.0511-.2361.024-.3538-.0273-.1176-.0887-.2246-.1766-.3074-.0584-.0551-.127-.0982-.2021-.1267-.075-.0286-.1549-.0419-.2351-.0395s-.1592.0207-.2323.0538c-.0732.0331-.139.0802-.1939.1388z"/><path d="m18.677 17.4863c-.0825.0877-.137.198-.1569.3169-.0198.1188-.0039.2409.0456.3507s.1305.2025.2327.2664c.1021.0637.221.0959.3414.0922.1204-.0038.2371-.043.3351-.113.0981-.0699.1733-.1673.216-.28s.051-.2355.0241-.3528c-.0271-.1175-.0883-.2242-.176-.3068-.0583-.0551-.1268-.0981-.2017-.1266s-.1547-.042-.2348-.0396c-.0801.0026-.1589.0208-.2319.0539-.0731.033-.1388.0801-.1936.1387z"/><path d="m28.5374 26.2494c-.0488.0526-.081.1185-.0925.1894-.0115.0708-.0018.1434.0279.2088.0298.0653.0782.1204.1392.1583.061.0378.1318.0568.2036.0545.0717-.0023.1412-.0258.1996-.0675s.1032-.0998.1286-.167c.0255-.0671.0305-.1402.0145-.2102s-.0524-.1336-.1045-.183c-.0349-.033-.076-.0588-.121-.0758-.0449-.017-.0927-.025-.1407-.0234-.048.0015-.0952.0126-.1389.0325s-.0831.0482-.1158.0834z"/><path d="m14.0893 16.7833c1.2706-.3041 7.4289-4.9989 13.0097.9012.8206.8678 1.601 2.1106 2.062 2.7341.5652.7679.9401.3486.3499-.8776-1.5885-3.3021-6.1903-6.1028-10.7906-5.2349-1.8843.354-3.627.9608-5.0753 2.0162-.0667.3401.0223.561.4443.461z"/><path d="m52.8743 8.28762h3.1847c.6515.02413 1.0496.19301 1.1943.50666.1206.22921.181.56702.181 1.01334v3.98098c0 .386-.1689.7539-.5067 1.1038-1.0133 1.0495-2.5333 1.5743-4.56 1.5743-1.7975 0-3.3596-.6756-4.6866-2.0267-1.3271-1.3632-1.9905-3.0038-1.9905-4.92191 0-1.91809.6756-3.51651 2.0266-4.79524 1.3511-1.29079 2.9435-1.93619 4.7772-1.93619 1.4234 0 2.7686.47048 4.0352 1.41143.3257.24128.4886.5127.4886.81429 0 .28952-.1387.6273-.4162 1.01333-.4705.63937-.8987.95905-1.2848.95905-.2291 0-.5971-.16286-1.1038-.48857-.5066-.33778-1.1098-.50667-1.8095-.50667-.9168 0-1.7311.32572-2.4428.97714-.7118.63937-1.0677 1.48381-1.0677 2.53334 0 1.0375.3619 1.9242 1.0857 2.66.7239.7238 1.5442 1.0857 2.461 1.0857.6635 0 1.2606-.1086 1.7914-.3257v-1.9724h-1.4295c-.3739 0-.6394-.0482-.7962-.1447-.1568-.0966-.2594-.2353-.3076-.4162-.0482-.193-.0724-.44635-.0724-.76004 0-.32571.0242-.58508.0724-.77809.0603-.19301.1629-.32572.3076-.3981.2172-.10857.5067-.16285.8686-.16285zm6.0052-4.43334c0-.27746.006-.48253.0181-.61524.0241-.14476.0784-.30761.1628-.48857.1689-.32571.6394-.48857 1.4114-.48857.736 0 1.1943.16286 1.3753.48857.0965.18096.1508.34381.1628.48857.0242.14477.0362.35588.0362.63334v8.37812c0 .4343.0362.7118.1086.8324.0724.1085.2293.1628.4705.1628.2533 0 .4222.012.5066.0362.0845.012.1871.0604.3077.1448.2413.1568.3619.5851.3619 1.2847 0 .76-.1206 1.2244-.3619 1.3934-.3136.2171-1.0616.2533-2.2438.1085-.9289-.1206-1.5321-.4282-1.8096-.9228-.3377-.5911-.5066-1.5321-.5066-2.8229zm5.6484 7.67242c0-1.4477.5067-2.64194 1.52-3.58289 1.0133-.94096 2.1714-1.41143 3.4743-1.41143 1.3028 0 2.4549.47047 3.4562 1.41143 1.0013.92889 1.5019 2.11719 1.5019 3.56479 0 1.0013-.2594 1.8939-.7781 2.6781-.5187.772-1.1521 1.3451-1.9 1.719-.7359.3619-1.5019.5429-2.2981.5429s-1.5682-.193-2.3162-.5791c-.748-.3981-1.3813-.9771-1.9-1.7371-.5067-.7721-.76-1.6406-.76-2.6057zm3.7819 1.3028c.3861.2895.7781.4343 1.1762.4343s.7962-.1508 1.1943-.4524c.3981-.3015.5971-.7479.5971-1.339s-.187-1.0314-.5609-1.321c-.374-.2895-.7781-.43426-1.2124-.43426s-.8385.15082-1.2124.45236c-.3739.3016-.5609.748-.5609 1.3391 0 .579.1929 1.0194.579 1.3209zm12.5691-6.06188c1.0737 0 2.0568.47651 2.9496 1.42952.9047.95299 1.3571 2.06286 1.3571 3.32956 0 1.2546-.4463 2.3584-1.339 3.3114-.8928.9409-1.8518 1.4114-2.8772 1.4114s-1.7552-.2895-2.1895-.8686c-.0965.5911-.6153.8867-1.5562.8867-.76 0-1.2244-.1628-1.3933-.4886-.0845-.1809-.1387-.3377-.1629-.4704-.012-.1448-.0181-.3559-.0181-.6334v-10.80282c0-.27746.0061-.48254.0181-.61524.0242-.14476.0784-.30158.1629-.47048.1689-.32571.6394-.48857 1.4114-.48857.76 0 1.2184.16286 1.3752.48857.0966.18096.1509.34381.1629.48858.0241.1327.0362.33777.0362.61523v3.76381c.4825-.5911 1.1701-.88666 2.0628-.88666zm-1.5923 5.84478c.3015.3257.6755.4886 1.1219.4886.4463 0 .8263-.1629 1.14-.4886.3136-.3257.4704-.6876.4704-1.0857s-.1447-.76-.4342-1.0857c-.2896-.3378-.6756-.50672-1.1581-.50672-.4826 0-.8686.16892-1.1581.50672-.2775.3377-.4162.7057-.4162 1.1038 0 .386.1447.7419.4343 1.0676zm13.2597-4.84955c.0724-.67555.5492-1.01333 1.4295-1.01333.4705 0 .8206.03619 1.0495.10857.2299.07238.3864.19905.4705.38.0968.18095.1511.34381.1629.48857.0244.13271.0362.33778.0362.61524v6.3333c0 .2775-.0118.4886-.0362.6334-.0118.1327-.0597.2895-.1448.4704-.1683.3137-.5845.4705-1.2486.4705-.6514 0-1.0911-.0784-1.3209-.2352-.2172-.1689-.3438-.4101-.38-.7238-.4461.6394-1.1943.959-2.2435.959-1.0374 0-2.0025-.4765-2.8952-1.4295-.8926-.953-1.339-2.0568-1.339-3.3114 0-1.2667.4464-2.37051 1.339-3.31146.9048-.95301 1.894-1.42952 2.9676-1.42952.4104 0 .7841.07238 1.1216.21714.3384.14476.5736.28349.7057.41619.133.12063.2416.24127.3257.3619zm-3.293 3.76385c0 .3981.1569.76.4705 1.0857.3137.3137.6937.4705 1.1396.4705.447 0 .8143-.1629 1.1039-.4886.3021-.3257.4523-.6816.4523-1.0676 0-.3981-.1447-.7661-.4343-1.1038-.2768-.3378-.6568-.50671-1.14-.50671-.4701 0-.856.16891-1.1577.50671-.2895.3377-.4343.7057-.4343 1.1038zm7.8847-7.67242c0-.27746.0054-.48253.0181-.61524.0235-.14476.0778-.30761.1628-.48857.1683-.32571.6388-.48857 1.4114-.48857.7356 0 1.1943.16286 1.3757.48857.095.18096.15.34381.162.48857.024.14477.037.35588.037.63334v8.37812c0 .4343.036.7118.108.8324.073.1085.229.1628.471.1628.253 0 .421.012.506.0362.084.012.187.0604.308.1448.241.1568.362.5851.362 1.2847 0 .76-.121 1.2244-.362 1.3934-.314.2171-1.062.2533-2.2438.1085-.9292-.1206-1.5327-.4282-1.8096-.9228-.3384-.5911-.5066-1.5321-.5066-2.8229zm20.286 1.84572c.314.63937.47 1.35111.47 2.13524s-.156 1.49584-.47 2.13523c-.314.62723-.718 1.12793-1.213 1.50193-1.001.772-2.038 1.1581-3.112 1.1581h-2.262v2.0447c0 .2775-.012.4886-.036.6334-.012.1327-.066.2895-.163.4704-.169.3258-.64.4886-1.412.4886-.844 0-1.339-.2232-1.483-.6695-.073-.2051-.109-.5187-.109-.941v-10.04282c0-.27746.006-.48253.018-.61524.025-.14476.084-.30761.181-.48857.169-.32571.64-.48857 1.412-.48857h3.872c1.061 0 2.093.38604 3.094 1.1581.495.37396.899.88063 1.213 1.52zm-4.307 3.72762c.362 0 .717-.13273 1.068-.3981.35-.26539.524-.66349.524-1.19428 0-.5308-.174-.9289-.524-1.19429-.351-.27746-.712-.41619-1.086-.41619h-2.262v3.20286zm14.595.95908c0 .7358-.187 1.2847-.561 1.6466-.362.3499-.766.5248-1.213.5248h-4.288c0 .3377.199.6213.597.8505.398.2291.796.3438 1.194.3438.7 0 1.249-.0724 1.647-.2172l.199-.0723c.289-.1328.531-.1991.724-.1991.386 0 .718.2714.995.8143.157.3257.235.6032.235.8324 0 1.0737-1.285 1.6105-3.854 1.6105-.892 0-1.688-.1509-2.389-.4524-.687-.3137-1.224-.7238-1.61-1.2305-.76-.9772-1.14-2.0689-1.14-3.2752 0-1.52.488-2.73243 1.466-3.63719.989-.91682 2.22-1.37524 3.691-1.37524 1.677 0 2.908.59111 3.691 1.77334.411.6273.616 1.31489.616 2.06289zm-3.818.5247c.458 0 .687-.193.687-.579 0-.2775-.108-.50063-.325-.66954-.205-.16892-.507-.25334-.905-.25334-.386 0-.772.16286-1.158.48857-.386.31371-.579.65141-.579 1.01331zm10.359-.95902-1.176-.07238v2.4971c0 .3258.048.561.145.7058.108.1447.301.2171.579.2171.289 0 .506.012.651.0362.157.012.32.0663.489.1628.277.1568.416.561.416 1.2124 0 .76-.169 1.2244-.507 1.3934-.181.0844-.344.1387-.488.1628-.133.012-.332.0181-.597.0181-1.255 0-2.208-.2835-2.86-.8505-.651-.567-.977-1.526-.977-2.8771v-2.6781c-.229.03619-.476.05428-.742.05428-.265 0-.488-.10251-.669-.30762-.169-.2051-.253-.55489-.253-1.04952 0-.49461.029-.85048.09-1.06762.061-.2292.145-.39206.253-.48857.193-.15682.435-.23524.724-.23524l.597.07238v-1.86381c0-.27746.007-.48253.018-.61523.025-.13271.085-.27747.181-.43429.157-.30159.622-.45238 1.394-.45238.82 0 1.309.22318 1.465.66952.061.19301.091.50063.091.92286v1.77333c.531-.04825.929-.07238 1.194-.07238.278 0 .482.01206.615.03619.145.01206.308.06635.489.16286.314.15682.47.62127.47 1.39333 0 .76-.162 1.22442-.488 1.39334-.181.08441-.344.1387-.489.16285-.133.01204-.337.0181-.615.0181zm-72.4216 12.14192c.8083.2895 1.2124.6756 1.2124 1.1581 0 .1568-.0724.4524-.2171.8866l-3.4743 10.0429c-.0242.0844-.0663.187-.1267.3076-.0603.1206-.2232.2835-.4886.4886-.2533.193-.5609.2895-.9228.2895-.3499 0-.6575-.0965-.9229-.2895-.2533-.2051-.4222-.4042-.5066-.5971l-2.1172-6.2429c-1.339 3.9568-2.0206 5.9714-2.0447 6.0438-.0242.0724-.0785.1749-.1629.3076s-.181.2534-.2895.3619c-.2775.2775-.6092.4162-.9953.4162-.386 0-.7057-.0905-.959-.2714-.2413-.181-.4042-.3619-.4886-.5429l-.1266-.2714-3.4924-10.0429c-.1328-.398-.1991-.6936-.1991-.8866 0-.4825.4042-.8625 1.2124-1.14.3499-.1206.6635-.181.941-.181.2895 0 .5066.0966.6514.2896.1568.1929.2956.4885.4162.8866l1.9905 6.0438 1.9723-5.9533c.169-.5067.4766-.8565.9229-1.0495.193-.0844.4403-.1267.7419-.1267.3137 0 .6032.1025.8686.3076.2653.193.4343.3861.5066.5791l2.081 6.279 1.9905-6.08c.0965-.2775.1749-.4825.2352-.6152.0604-.1327.1689-.2594.3257-.38.1689-.1327.374-.1991.6153-.1991s.5247.0604.8504.181zm.6643 8.4324c0-1.4477.5067-2.6419 1.52-3.5829 1.0133-.9409 2.1714-1.4114 3.4743-1.4114s2.455.4705 3.4562 1.4114c1.0013.9289 1.5019 2.1172 1.5019 3.5648 0 1.0013-.2593 1.8939-.7781 2.6781-.5187.772-1.152 1.3451-1.9 1.719-.7359.3619-1.5019.5429-2.2981.5429s-1.5682-.193-2.3162-.5791c-.7479-.3981-1.3812-.9771-1.9-1.7371-.5067-.7721-.76-1.6406-.76-2.6057zm3.7819 1.3028c.3861.2895.7781.4343 1.1762.4343s.7962-.1508 1.1943-.4524c.3981-.3015.5971-.7479.5971-1.339s-.1869-1.0314-.5609-1.321c-.374-.2895-.7781-.4343-1.2124-.4343s-.8384.1509-1.2124.4524c-.3739.3016-.5609.748-.5609 1.3391 0 .579.193 1.0194.579 1.3209zm13.8177-5.9714c.2292.0724.4162.199.561.38.1568.1689.2352.4463.2352.8324 0 .386-.1146.8082-.3438 1.2666-.2292.4585-.5609.6877-.9952.6877-.2172 0-.4283-.0483-.6334-.1448-.193-.0965-.4523-.1448-.7781-.1448-.3257 0-.6333.1147-.9228.3438-.2775.2292-.4162.5067-.4162.8324v3.8c0 .2775-.012.4886-.0362.6334-.012.1327-.0663.2895-.1629.4704-.1809.3137-.6514.4705-1.4114.4705-.579 0-.9952-.1025-1.2486-.3076-.1929-.1689-.3015-.4282-.3257-.7781 0-.1206 0-.2956 0-.5248v-6.3514c0-.2775.0061-.4825.0181-.6152.0242-.1448.0785-.3016.1629-.4705.1689-.3257.6394-.4886 1.4114-.4886.7238 0 1.1762.1387 1.3572.4162.1327.193.199.392.199.5972.0603-.0845.1448-.1871.2533-.3077.1206-.1206.368-.2834.7419-.4885.374-.2051.6997-.3077.9772-.3077.2895 0 .5308.0181.7238.0543.193.0242.4041.0724.6333.1448zm1.792-3.0038c0-.2775.0061-.4825.0181-.6153.0241-.1447.0784-.3076.1628-.4885.169-.3257.6394-.4886 1.4115-.4886.7359 0 1.1943.1629 1.3752.4886.0966.1809.1508.3438.1629.4885.0241.1448.0362.3559.0362.6334v8.3781c0 .4343.0362.7118.1085.8324.0724.1085.2293.1628.4705.1628.2533 0 .4223.012.5067.0362.0845.012.187.0604.3076.1448.2413.1568.3619.5851.3619 1.2847 0 .76-.1206 1.2244-.3619 1.3934-.3136.2171-1.0616.2533-2.2438.1085-.9288-.1206-1.532-.4282-1.8095-.9228-.3378-.5911-.5067-1.5321-.5067-2.8229zm12.3075-1.0676c.0968-.181.2596-.3077.4885-.38.229-.0724.5311-.1086.9048-.1086.3863 0 .694.0362.9229.1086.2289.0723.3863.199.4704.38.0969.1809.1511.3438.1629.4885.0244.1328.0362.3378.0362.6153v10.8028c0 .2775-.0118.4886-.0362.6334-.0118.1327-.066.2834-.1629.4523-.1809.3258-.6939.4886-1.5381.4886-.8323 0-1.2965-.2956-1.3933-.8866-.5067.579-1.2124.8685-2.1171.8685-1.0857 0-2.0749-.4705-2.9677-1.4114-.8927-.953-1.339-2.0568-1.339-3.3114 0-1.2667.4463-2.3766 1.339-3.3296.9048-.9529 1.8937-1.4295 2.9677-1.4295.893 0 1.586.3016 2.0809.9048v-3.8c0-.2775.0064-.4825.0181-.6153.0244-.1447.0787-.3015.1629-.4704zm-2.9315 9.8257c.314.3257.694.4886 1.14.4886.4461 0 .8143-.1629 1.1039-.4886.3012-.3257.4523-.6816.4523-1.0676 0-.3981-.1447-.7661-.4342-1.1038-.2778-.3378-.6578-.5067-1.14-.5067-.4823 0-.8686.1689-1.1581.5067-.2896.3257-.4343.6876-.4343 1.0857s.1565.76.4704 1.0857zm15.1387.9952h4.922c.398 0 .687.0482.868.1448.181.0844.302.2232.362.4162s.091.4524.091.7781c0 .3136-.031.567-.091.76s-.163.3257-.307.3981c-.23.1206-.543.1809-.941.1809h-6.515c-.845 0-1.339-.2292-1.483-.6876-.073-.193-.109-.5006-.109-.9229v-10.0609c0-.2775.005-.4825.018-.6153.024-.1447.084-.3076.181-.4885.168-.3257.639-.4886 1.411-.4886.845 0 1.345.2232 1.502.6695.06.2051.091.5187.091.941zm7.417-5.2657c0-.2775.006-.4825.018-.6152.025-.1448.079-.3077.163-.4886.169-.3137.64-.4705 1.411-.4705.579 0 .989.1025 1.231.3076.205.169.314.4283.326.7781.011.1206.018.2956.018.5248v6.3333c0 .2775-.012.4886-.036.6334-.012.1327-.067.2895-.163.4704-.157.3137-.622.4705-1.394.4705-.76 0-1.224-.1628-1.393-.4886-.084-.1809-.138-.3377-.163-.4704-.012-.1328-.018-.3438-.018-.6334zm2.968-3.3476c-.084.1689-.242.2895-.471.3619s-.536.1086-.923.1086c-.373 0-.676-.0362-.904-.1086-.229-.0724-.392-.1991-.489-.38-.084-.181-.138-.3378-.163-.4705-.012-.1447-.018-.3558-.018-.6333s.006-.4825.018-.6153c.025-.1447.079-.3015.163-.4704.169-.3257.64-.4886 1.411-.4886.76 0 1.219.1629 1.376.4886.096.1809.151.3438.163.4885.024.1328.036.3378.036.6153s-.012.4885-.036.6333c-.012.1327-.067.2895-.163.4705zm4.757 3.0219c.566-.8565 1.248-1.2848 2.045-1.2848 1.23 0 2.147.5248 2.75 1.5743.132-.1809.29-.368.471-.5609.192-.2052.494-.4223.904-.6515.41-.2413.833-.3619 1.267-.3619.965 0 1.773.374 2.425 1.1219.651.7359.977 1.9604.977 3.6734v3.1666c0 .2775-.013.4886-.036.6334-.013.1327-.067.2895-.163.4704-.157.3258-.622.4886-1.393.4886-.76 0-1.225-.1689-1.394-.5067-.085-.1809-.139-.3377-.163-.4704-.012-.1448-.018-.3559-.018-.6334v-3.1666c0-1.0496-.374-1.5743-1.122-1.5743-.422 0-.712.1387-.868.4162-.145.2775-.217.6695-.217 1.1762v3.1666c0 .2896-.013.5006-.037.6334-.012.1327-.066.2895-.162.4704-.17.3258-.64.4886-1.412.4886-.76 0-1.225-.1689-1.393-.5067-.085-.1809-.139-.3377-.163-.4704-.013-.1448-.018-.3559-.018-.6334v-3.1666c0-1.0496-.375-1.5743-1.122-1.5743-.724 0-1.086.5247-1.086 1.5743v3.2028c0 .2775-.012.4886-.036.6334-.013.1327-.067.2895-.163.4704-.181.3137-.651.4705-1.411.4705s-1.225-.1628-1.394-.4886c-.085-.1809-.139-.3377-.162-.4704-.013-.1328-.018-.3438-.018-.6334v-6.3695c0-.2775.005-.4825.018-.6152.023-.1448.084-.3016.181-.4705.181-.3257.608-.4886 1.284-.4886.675 0 1.116.1086 1.321.3257.205.2172.308.5309.308.941zm12.278.3257c0-.2775.007-.4825.019-.6152.024-.1448.078-.3077.162-.4886.17-.3137.64-.4705 1.412-.4705.579 0 .99.1025 1.23.3076.206.169.314.4283.326.7781.013.1206.018.2956.018.5248v6.3333c0 .2775-.012.4886-.036.6334-.012.1327-.066.2895-.163.4704-.156.3137-.621.4705-1.393.4705-.76 0-1.224-.1628-1.394-.4886-.084-.1809-.138-.3377-.162-.4704-.012-.1328-.019-.3438-.019-.6334zm2.968-3.3476c-.084.1689-.241.2895-.47.3619s-.537.1086-.923.1086c-.374 0-.675-.0362-.905-.1086-.229-.0724-.392-.1991-.489-.38-.084-.181-.138-.3378-.162-.4705-.012-.1447-.019-.3558-.019-.6333s.007-.4825.019-.6153c.024-.1447.078-.3015.162-.4704.17-.3257.64-.4886 1.412-.4886.76 0 1.219.1629 1.375.4886.097.1809.151.3438.163.4885.024.1328.036.3378.036.6153s-.012.4885-.036.6333c-.012.1327-.066.2895-.163.4705zm7.182 4.9581-1.176-.0724v2.4971c0 .3258.048.561.145.7058.108.1447.301.2171.579.2171.289 0 .506.012.651.0362.157.012.319.0663.489.1628.277.1568.416.561.416 1.2124 0 .76-.169 1.2244-.507 1.3934-.181.0844-.344.1387-.488.1628-.133.0121-.332.0181-.597.0181-1.255 0-2.208-.2834-2.86-.8505-.651-.567-.977-1.526-.977-2.8771v-2.6781c-.229.0362-.477.0543-.742.0543s-.488-.1025-.669-.3076c-.169-.2051-.253-.5549-.253-1.0496 0-.4946.029-.8504.09-1.0676.061-.2292.145-.392.253-.4885.193-.1568.435-.2353.724-.2353l.597.0724v-1.8638c0-.2775.007-.4825.018-.6153.025-.1327.085-.2774.181-.4342.157-.3016.622-.4524 1.394-.4524.82 0 1.309.2232 1.465.6695.061.193.091.5006.091.9229v1.7733c.531-.0482.929-.0724 1.194-.0724.278 0 .482.012.615.0362.145.012.308.0663.489.1629.314.1568.47.6213.47 1.3933 0 .76-.162 1.2244-.488 1.3933-.181.0844-.344.1387-.489.1629-.133.012-.337.0181-.615.0181zm11.431.4343c0 .7358-.187 1.2847-.561 1.6466-.362.3499-.766.5248-1.213.5248h-4.288c0 .3377.199.6213.597.8505.398.2291.796.3438 1.194.3438.7 0 1.249-.0724 1.647-.2172l.199-.0723c.29-.1328.53-.1991.724-.1991.385 0 .717.2714.995.8143.157.3257.235.6032.235.8324 0 1.0737-1.284 1.6105-3.854 1.6105-.893 0-1.689-.1509-2.389-.4524-.687-.3137-1.225-.7238-1.61-1.2305-.76-.9771-1.14-2.0689-1.14-3.2752 0-1.52.489-2.7324 1.466-3.6372.989-.9168 2.219-1.3752 3.691-1.3752 1.677 0 2.907.5911 3.692 1.7733.409.6273.615 1.3149.615 2.0629zm-3.818.5247c.458 0 .687-.193.687-.579 0-.2775-.108-.5006-.325-.6695-.206-.169-.507-.2534-.905-.2534-.386 0-.773.1629-1.158.4886-.387.3137-.579.6514-.579 1.0133zm11.386-8.1247c.096-.181.259-.3077.489-.38.229-.0724.53-.1086.905-.1086.385 0 .693.0362.922.1086.229.0723.386.199.471.38.096.1809.15.3438.163.4885.023.1328.036.3378.036.6153v10.8028c0 .2775-.013.4886-.036.6334-.013.1327-.067.2834-.163.4523-.181.3258-.694.4886-1.538.4886-.833 0-1.298-.2956-1.394-.8866-.506.579-1.212.8685-2.117.8685-1.085 0-2.075-.4705-2.967-1.4114-.893-.953-1.339-2.0568-1.339-3.3114 0-1.2667.446-2.3766 1.339-3.3296.904-.9529 1.893-1.4295 2.967-1.4295.892 0 1.586.3016 2.081.9048v-3.8c0-.2775.006-.4825.018-.6153.024-.1447.078-.3015.163-.4704zm-2.931 9.8257c.313.3257.693.4886 1.14.4886.446 0 .814-.1629 1.104-.4886.301-.3257.452-.6816.452-1.0676 0-.3981-.145-.7661-.434-1.1038-.278-.3378-.658-.5067-1.14-.5067-.483 0-.869.1689-1.158.5067-.29.3257-.435.6876-.435 1.0857s.157.76.471 1.0857z"/></g></svg>