<svg width="142" height="33" viewBox="0 0 142 33" fill="none" xmlns="http://www.w3.org/2000/svg">
<g clip-path="url(#clip0_90_13535)">
<path d="M23.5233 5.17642C21.9978 4.90194 20.4605 6.37683 20.0788 8.47488C19.6972 10.5729 20.6348 12.4884 22.1604 12.7629C23.6859 13.0374 25.2233 11.5625 25.6038 9.46443C25.9842 7.36637 25.0489 5.45089 23.5233 5.17642ZM24.6472 9.29126C24.4729 10.2655 23.7449 11.7333 22.6104 11.8158C22.5171 11.8234 22.4233 11.8186 22.3312 11.8016C22.2393 11.785 22.1499 11.7569 22.065 11.718C21.7757 11.5796 21.5366 11.3549 21.3805 11.0748C21.4808 11.153 21.5914 11.2168 21.7092 11.2644C21.8005 11.3012 21.8958 11.3269 21.9931 11.341C22.0929 11.3528 22.1938 11.3528 22.2935 11.341C23.5163 11.2232 24.3456 9.71181 24.5648 8.71989C24.6231 8.44571 24.6527 8.16616 24.6531 7.88585C24.7276 8.35153 24.7256 8.82627 24.6472 9.29126Z" fill="#F08A4B"/>
<path fill-rule="evenodd" clip-rule="evenodd" d="M5.15794 14.5865C3.42035 13.3589 1.28695 13.3908 0.392829 14.6559C-0.501291 15.9211 0.181963 17.9438 1.92426 19.1713C3.66655 20.3988 5.79525 20.367 6.68937 19.1018C7.58349 17.8366 6.89553 15.814 5.15794 14.5865ZM6.0226 18.2937C5.98904 18.3812 5.94472 18.4644 5.89067 18.541C5.83671 18.6174 5.77339 18.6867 5.70218 18.7472C4.83633 19.4823 3.28841 18.9486 2.48029 18.3773C2.09933 18.1023 1.76587 17.7668 1.4931 17.3842C1.68972 17.5837 1.9069 17.7618 2.14101 17.9156C2.9939 18.4692 4.64314 18.9616 5.59852 18.1888C5.6768 18.1261 5.74721 18.0541 5.80821 17.9744C5.86771 17.8963 5.91754 17.8112 5.95664 17.7211C6.00681 17.6041 6.04126 17.4809 6.05912 17.3548C6.14398 17.664 6.13123 17.9919 6.0226 18.2937Z" fill="#F08A4B"/>
<path d="M18.2115 5.48132C17.7816 3.00748 15.9733 1.25811 14.1697 1.57147C12.3662 1.88482 11.2565 4.14427 11.6865 6.61694C12.1165 9.08963 13.9247 10.8401 15.7283 10.5268C17.5318 10.2134 18.6427 7.95401 18.2115 5.48132ZM15.9191 9.46067C15.6902 9.56375 15.439 9.6075 15.1888 9.58793C14.4195 9.52668 13.8034 8.97887 13.364 8.29212C13.7739 8.74445 14.2922 9.06606 14.9107 9.09907C15.0428 9.10628 15.1753 9.09753 15.3054 9.07312C15.436 9.04872 15.5633 9.00919 15.6847 8.9553C16.9228 8.40043 17.301 6.74652 17.2291 5.51196C17.2385 5.5579 17.2468 5.60266 17.255 5.64624C17.4694 6.88435 17.2244 8.87164 15.9191 9.46067Z" fill="#F08A4B"/>
<path fill-rule="evenodd" clip-rule="evenodd" d="M9.83452 7.37589C8.40677 5.31199 6.02836 4.48266 4.5252 5.52404C3.02204 6.5654 2.96078 9.08163 4.38973 11.1455C5.81867 13.2095 8.19592 14.0388 9.69904 12.9986C11.2022 11.9584 11.2635 9.43863 9.83452 7.37589ZM9.42809 11.9502C9.34581 12.0443 9.25247 12.1281 9.15008 12.1999C9.04723 12.2706 8.93608 12.3284 8.8191 12.3719C7.47615 12.869 5.90702 11.625 5.19196 10.5931C5.16604 10.5565 5.14131 10.5188 5.11538 10.4752C5.93058 11.4059 7.3607 12.3188 8.63182 11.8441C8.75632 11.7978 8.87498 11.737 8.98521 11.6627C9.09497 11.589 9.19544 11.5025 9.2844 11.4048C9.70142 10.9477 9.84519 10.3551 9.81924 9.74374C9.98535 10.5436 9.93001 11.3671 9.42809 11.9502Z" fill="#F08A4B"/>
<path d="M26.1219 19.7755C25.8863 18.8496 25.5812 19.1264 25.679 19.8073C25.8569 21.036 25.6248 22.4508 25.3609 23.4674C25.3325 23.4347 25.3022 23.4036 25.2702 23.3744C25.1074 23.2209 24.9095 23.1096 24.6939 23.0502C24.4782 22.9907 24.2513 22.985 24.0329 23.0334C23.8144 23.0818 23.6113 23.1829 23.4409 23.3279C23.2705 23.4729 23.1382 23.6574 23.0555 23.8653C22.9729 24.0732 22.9422 24.2981 22.9664 24.5205C22.9907 24.7429 23.0689 24.9559 23.1944 25.1412C23.3198 25.3264 23.4888 25.4781 23.6863 25.583C23.8838 25.688 24.104 25.7431 24.3278 25.7434C23.4453 27.0667 22.209 28.1157 20.7595 28.7709C18.3043 28.5112 15.9115 27.8339 13.6843 26.7682C13.6417 26.7488 13.5934 26.7461 13.5487 26.7604C13.5041 26.7747 13.4664 26.8052 13.4431 26.8458C13.4197 26.8864 13.4122 26.9342 13.4222 26.98C13.4322 27.0258 13.4589 27.0662 13.497 27.0934C15.1566 28.2039 17.0221 28.9702 18.9831 29.347L18.8335 29.3834C17.5021 29.6377 16.1294 29.571 14.8289 29.1889C13.5285 28.8068 12.3378 28.1203 11.3556 27.1863C10.3733 26.2524 9.6278 25.0978 9.18077 23.8182C8.73373 22.5386 8.59803 21.171 8.78493 19.8285C9.92531 21.2775 11.1304 22.4826 13.3792 23.6064C13.6419 23.7372 13.8681 23.4109 13.6878 23.2883C11.9126 22.073 10.3197 20.611 8.95694 18.9462C9.14408 18.1936 9.43337 17.4702 9.81692 16.7962C9.93467 16.9247 10.0525 17.059 10.1491 17.1555C12.57 19.6871 14.6716 21.6662 18.9843 23.1977C19.4095 23.3484 19.6911 22.8077 19.3954 22.6534C16.2062 20.9994 13.2912 18.8632 10.7534 16.3204C10.6497 16.2179 10.5107 16.073 10.3753 15.9316C11.3707 14.4826 11.3366 13.9231 10.3246 14.7607C8.58475 16.1975 7.3899 18.1873 6.93915 20.3983C6.48839 22.6093 6.80897 24.908 7.8475 26.9112C8.88602 28.9146 10.5797 30.5015 12.6463 31.4075C14.7129 32.3134 17.0275 32.4838 19.2046 31.8903C24.455 30.4566 27.4896 25.0495 26.1219 19.7755Z" fill="#F08A4B"/>
<path d="M21.6419 25.0011C21.5717 25.0757 21.5252 25.1695 21.5083 25.2705C21.4914 25.3716 21.5049 25.4754 21.5469 25.5688C21.589 25.6622 21.6578 25.7411 21.7448 25.7954C21.8317 25.8497 21.9327 25.877 22.0352 25.8738C22.1376 25.8708 22.2367 25.8373 22.3202 25.7778C22.4036 25.7183 22.4675 25.6354 22.5039 25.5396C22.5402 25.4438 22.5472 25.3393 22.5242 25.2395C22.5011 25.1397 22.449 25.0489 22.3744 24.9786C22.3249 24.9319 22.2667 24.8954 22.203 24.8712C22.1393 24.8469 22.0716 24.8356 22.0035 24.8376C21.9355 24.8397 21.8685 24.8552 21.8064 24.8833C21.7443 24.9113 21.6885 24.9513 21.6419 25.0011Z" fill="#F08A4B"/>
<path d="M15.845 14.8347C15.775 14.9092 15.7287 15.0027 15.7119 15.1036C15.6951 15.2044 15.7085 15.3079 15.7505 15.4011C15.7925 15.4943 15.8612 15.5729 15.9479 15.6271C16.0346 15.6812 16.1354 15.7084 16.2376 15.7053C16.3397 15.7021 16.4387 15.6688 16.5219 15.6095C16.6051 15.5502 16.6689 15.4675 16.7051 15.3719C16.7413 15.2763 16.7484 15.1721 16.7255 15.0726C16.7026 14.973 16.6506 14.8824 16.5762 14.8123C16.5268 14.7656 16.4687 14.7291 16.4051 14.7049C16.3416 14.6807 16.2739 14.6693 16.206 14.6714C16.138 14.6735 16.0711 14.689 16.0092 14.7171C15.9472 14.7451 15.8914 14.7851 15.845 14.8347Z" fill="#F08A4B"/>
<path d="M24.2102 22.2691C24.1687 22.3137 24.1414 22.3697 24.1317 22.4298C24.1219 22.4899 24.1301 22.5515 24.1554 22.6069C24.1806 22.6624 24.2217 22.7091 24.2734 22.7413C24.3252 22.7734 24.3853 22.7895 24.4461 22.7875C24.507 22.7856 24.566 22.7656 24.6155 22.7302C24.6651 22.6948 24.7031 22.6456 24.7246 22.5886C24.7463 22.5316 24.7505 22.4696 24.7369 22.4102C24.7233 22.3509 24.6925 22.2968 24.6482 22.255C24.6186 22.227 24.5838 22.2051 24.5456 22.1907C24.5076 22.1763 24.4669 22.1695 24.4263 22.1708C24.3855 22.1721 24.3454 22.1815 24.3084 22.1984C24.2713 22.2153 24.2379 22.2393 24.2102 22.2691Z" fill="#F08A4B"/>
<path d="M11.953 14.2383C13.0308 13.9803 18.2554 9.99739 22.9899 15.0028C23.6861 15.739 24.3481 16.7933 24.7392 17.3223C25.2187 17.9738 25.5367 17.618 25.0361 16.5778C23.6884 13.7764 19.7844 11.4004 15.8817 12.1367C14.2831 12.437 12.8046 12.9518 11.576 13.8471C11.5194 14.1357 11.5949 14.3231 11.953 14.2383Z" fill="#F08A4B"/>
<path d="M44.8566 7.03094H47.5585C48.1111 7.05142 48.4489 7.19469 48.5717 7.46078C48.674 7.65523 48.7252 7.94182 48.7252 8.32046V11.6978C48.7252 12.0253 48.5819 12.3374 48.2953 12.6342C47.4357 13.5246 46.1462 13.9698 44.4268 13.9698C42.9019 13.9698 41.5766 13.3966 40.4508 12.2504C39.325 11.0939 38.7622 9.70208 38.7622 8.07484C38.7622 6.44759 39.3353 5.09155 40.4815 4.00673C41.6277 2.91166 42.9786 2.36413 44.5343 2.36413C45.7419 2.36413 46.883 2.76327 47.9576 3.56154C48.2339 3.76623 48.3721 3.9965 48.3721 4.25235C48.3721 4.49797 48.2544 4.78453 48.019 5.11203C47.6199 5.65444 47.2566 5.92565 46.9291 5.92565C46.7347 5.92565 46.4225 5.78749 45.9926 5.51116C45.5628 5.22461 45.0511 5.08132 44.4575 5.08132C43.6797 5.08132 42.9889 5.35765 42.3851 5.9103C41.7812 6.45271 41.4793 7.16911 41.4793 8.05949C41.4793 8.93966 41.7864 9.69187 42.4004 10.3161C43.0145 10.9302 43.7104 11.2372 44.4882 11.2372C45.0511 11.2372 45.5577 11.1451 46.008 10.9609V9.28759H44.7952C44.478 9.28759 44.2528 9.24668 44.1198 9.16478C43.9868 9.08288 43.8997 8.96521 43.8588 8.8117C43.8179 8.64798 43.7974 8.43306 43.7974 8.16694C43.7974 7.89062 43.8179 7.67058 43.8588 7.50684C43.91 7.34309 43.997 7.23051 44.1198 7.16911C44.304 7.077 44.5496 7.03094 44.8566 7.03094ZM49.9512 3.26986C49.9512 3.03447 49.9564 2.8605 49.9666 2.74792C49.9871 2.62511 50.0331 2.48695 50.1047 2.33343C50.248 2.05711 50.6472 1.91895 51.3021 1.91895C51.9265 1.91895 52.3153 2.05711 52.4688 2.33343C52.5507 2.48695 52.5968 2.62511 52.607 2.74792C52.6275 2.87073 52.6377 3.04983 52.6377 3.28522V10.3929C52.6377 10.7613 52.6684 10.9967 52.7298 11.0991C52.7912 11.1912 52.9243 11.2372 53.1289 11.2372C53.3439 11.2372 53.4872 11.2474 53.5588 11.2679C53.6305 11.2781 53.7174 11.3191 53.8198 11.3907C54.0245 11.5237 54.1268 11.8871 54.1268 12.4807C54.1268 13.1254 54.0245 13.5194 53.8198 13.6627C53.5537 13.8469 52.9192 13.8776 51.9162 13.7548C51.1282 13.6525 50.6165 13.3915 50.3811 12.9719C50.0945 12.4705 49.9512 11.6722 49.9512 10.5771V3.26986ZM54.7431 9.77884C54.7431 8.55073 55.173 7.53754 56.0327 6.73927C56.8923 5.941 57.8748 5.54186 58.9801 5.54186C60.0854 5.54186 61.0628 5.941 61.9122 6.73927C62.7617 7.52731 63.1864 8.53538 63.1864 9.76349C63.1864 10.613 62.9663 11.3702 62.5263 12.0355C62.0862 12.6905 61.5489 13.1766 60.9144 13.4939C60.2901 13.8009 59.6402 13.9544 58.9648 13.9544C58.2893 13.9544 57.6343 13.7907 56.9998 13.4632C56.3652 13.1254 55.8279 12.6342 55.3879 11.9894C54.9581 11.3345 54.7431 10.5976 54.7431 9.77884ZM57.9516 10.8841C58.2791 11.1298 58.6117 11.2526 58.9494 11.2526C59.2871 11.2526 59.6249 11.1246 59.9626 10.8688C60.3003 10.613 60.4692 10.2342 60.4692 9.73278C60.4692 9.23133 60.3105 8.85776 59.9933 8.61213C59.6761 8.36651 59.3332 8.2437 58.9648 8.2437C58.5963 8.2437 58.2535 8.37165 57.9362 8.62749C57.619 8.88332 57.4603 9.26203 57.4603 9.76349C57.4603 10.2547 57.6241 10.6283 57.9516 10.8841ZM68.6148 5.74143C69.5257 5.74143 70.3597 6.14569 71.117 6.95419C71.8846 7.76267 72.2684 8.70424 72.2684 9.77884C72.2684 10.8432 71.8898 11.7797 71.1324 12.5881C70.375 13.3864 69.5614 13.7855 68.6915 13.7855C67.8217 13.7855 67.2025 13.5399 66.834 13.0487C66.7521 13.5501 66.3121 13.8009 65.5138 13.8009C64.869 13.8009 64.4751 13.6627 64.3318 13.3864C64.2601 13.2329 64.2141 13.0999 64.1936 12.9873C64.1834 12.8645 64.1782 12.6854 64.1782 12.45V3.28522C64.1782 3.04983 64.1834 2.87585 64.1936 2.76327C64.2141 2.64046 64.2601 2.50742 64.3318 2.36413C64.4751 2.08781 64.8742 1.94965 65.5292 1.94965C66.1739 1.94965 66.5628 2.08781 66.6959 2.36413C66.7778 2.51765 66.8238 2.65581 66.834 2.77862C66.8545 2.8912 66.8647 3.06518 66.8647 3.30057V6.49365C67.2741 5.99217 67.8574 5.74143 68.6148 5.74143ZM67.2639 10.6999C67.5197 10.9762 67.837 11.1144 68.2156 11.1144C68.5943 11.1144 68.9167 10.9762 69.1828 10.6999C69.4489 10.4236 69.5819 10.1166 69.5819 9.77884C69.5819 9.44111 69.4591 9.13408 69.2135 8.85776C68.9679 8.57122 68.6403 8.42792 68.231 8.42792C67.8217 8.42792 67.4941 8.57122 67.2485 8.85776C67.0131 9.14429 66.8954 9.45646 66.8954 9.79419C66.8954 10.1217 67.0182 10.4236 67.2639 10.6999ZM78.5129 6.58576C78.5744 6.01264 78.9789 5.72608 79.7257 5.72608C80.1248 5.72608 80.4219 5.75678 80.6161 5.81819C80.811 5.87959 80.9438 5.98705 81.0152 6.14057C81.0973 6.29408 81.1434 6.43224 81.1534 6.55505C81.1741 6.66763 81.1841 6.84161 81.1841 7.077V12.45C81.1841 12.6854 81.1741 12.8645 81.1534 12.9873C81.1434 13.0999 81.1027 13.2329 81.0306 13.3864C80.8878 13.6525 80.5347 13.7855 79.9713 13.7855C79.4187 13.7855 79.0456 13.719 78.8507 13.586C78.6665 13.4427 78.559 13.238 78.5283 12.9719C78.1499 13.5144 77.5151 13.7855 76.625 13.7855C75.7449 13.7855 74.9262 13.3813 74.1688 12.5728C73.4115 11.7643 73.0328 10.8279 73.0328 9.76349C73.0328 8.68889 73.4115 7.75246 74.1688 6.95419C74.9364 6.14569 75.7756 5.74143 76.6864 5.74143C77.0346 5.74143 77.3516 5.80284 77.6379 5.92565C77.925 6.04846 78.1246 6.16615 78.2366 6.27873C78.3495 6.38107 78.4416 6.48342 78.5129 6.58576ZM75.7193 9.77884C75.7193 10.1166 75.8524 10.4236 76.1184 10.6999C76.3846 10.966 76.7069 11.0991 77.0853 11.0991C77.4645 11.0991 77.7761 10.9609 78.0217 10.6846C78.2781 10.4082 78.4055 10.1064 78.4055 9.77884C78.4055 9.44111 78.2827 9.12894 78.0371 8.8424C77.8022 8.55587 77.4798 8.41257 77.0699 8.41257C76.6711 8.41257 76.3436 8.55587 76.0877 8.8424C75.8421 9.12894 75.7193 9.44111 75.7193 9.77884ZM82.4084 3.26986C82.4084 3.03447 82.413 2.8605 82.4237 2.74792C82.4437 2.62511 82.4897 2.48695 82.5619 2.33343C82.7046 2.05711 83.1038 1.91895 83.7593 1.91895C84.3833 1.91895 84.7725 2.05711 84.926 2.33343C85.0073 2.48695 85.0534 2.62511 85.0641 2.74792C85.0841 2.87073 85.0948 3.04983 85.0948 3.28522V10.3929C85.0948 10.7613 85.1255 10.9967 85.1869 11.0991C85.2484 11.1912 85.3811 11.2372 85.5861 11.2372C85.801 11.2372 85.9438 11.2474 86.0159 11.2679C86.0873 11.2781 86.174 11.3191 86.2769 11.3907C86.4811 11.5237 86.5839 11.8871 86.5839 12.4807C86.5839 13.1254 86.4811 13.5194 86.2769 13.6627C86.0105 13.8469 85.3758 13.8776 84.3733 13.7548C83.585 13.6525 83.0731 13.3915 82.8382 12.9719C82.5511 12.4705 82.4084 11.6722 82.4084 10.5771V3.26986ZM99.618 4.8357C99.8843 5.37812 100.017 5.98193 100.017 6.64716C100.017 7.31239 99.8843 7.91618 99.618 8.45862C99.3516 8.99078 99.0093 9.41555 98.5894 9.73278C97.7397 10.3877 96.8601 10.7153 95.949 10.7153H94.0301V12.45C94.0301 12.6854 94.0201 12.8645 93.9994 12.9873C93.9894 13.0999 93.9434 13.2329 93.8612 13.3864C93.7177 13.6627 93.3186 13.8009 92.6638 13.8009C91.9477 13.8009 91.5278 13.6115 91.405 13.2329C91.3436 13.0589 91.3129 12.7928 91.3129 12.4346V3.91462C91.3129 3.67923 91.3183 3.50525 91.3283 3.39268C91.349 3.26986 91.3996 3.1317 91.4818 2.97819C91.6253 2.70186 92.0244 2.5637 92.6792 2.5637H95.9644C96.8647 2.5637 97.7397 2.8912 98.5894 3.54619C99.0093 3.86345 99.3516 4.29329 99.618 4.8357ZM95.9644 7.99808C96.2714 7.99808 96.573 7.88548 96.8701 7.66035C97.1671 7.4352 97.3153 7.09747 97.3153 6.64716C97.3153 6.19685 97.1671 5.85912 96.8701 5.63397C96.573 5.39858 96.266 5.28089 95.949 5.28089H94.0301V7.99808H95.9644ZM108.346 8.8117C108.346 9.43596 108.188 9.90165 107.87 10.2087C107.563 10.5055 107.221 10.6539 106.842 10.6539H103.203C103.203 10.9404 103.372 11.181 103.71 11.3754C104.048 11.5698 104.385 11.6671 104.723 11.6671C105.317 11.6671 105.782 11.6056 106.12 11.4828L106.289 11.4214C106.535 11.3088 106.739 11.2526 106.903 11.2526C107.231 11.2526 107.512 11.4828 107.747 11.9434C107.881 12.2197 107.947 12.4551 107.947 12.6495C107.947 13.5604 106.857 14.0158 104.677 14.0158C103.92 14.0158 103.245 13.8879 102.651 13.632C102.067 13.3659 101.612 13.018 101.284 12.5881C100.64 11.7592 100.317 10.8329 100.317 9.80954C100.317 8.52003 100.732 7.49149 101.561 6.72392C102.4 5.94612 103.444 5.55722 104.692 5.55722C106.115 5.55722 107.159 6.05869 107.824 7.06165C108.173 7.59382 108.346 8.17715 108.346 8.8117ZM105.107 9.25689C105.496 9.25689 105.69 9.09317 105.69 8.76565C105.69 8.53023 105.598 8.34095 105.414 8.19765C105.24 8.05434 104.984 7.98273 104.646 7.98273C104.319 7.98273 103.992 8.12089 103.664 8.39721C103.337 8.66333 103.173 8.94986 103.173 9.25689H105.107ZM113.896 8.44327L112.898 8.38186V10.5003C112.898 10.7767 112.938 10.9762 113.02 11.0991C113.113 11.2219 113.276 11.2833 113.512 11.2833C113.757 11.2833 113.942 11.2935 114.064 11.314C114.197 11.3242 114.335 11.3702 114.479 11.4521C114.715 11.5852 114.832 11.928 114.832 12.4807C114.832 13.1254 114.688 13.5194 114.402 13.6627C114.249 13.7343 114.11 13.7804 113.988 13.8009C113.875 13.8111 113.706 13.8162 113.481 13.8162C112.416 13.8162 111.608 13.5758 111.056 13.0947C110.503 12.6137 110.227 11.8001 110.227 10.6539V8.38186C110.032 8.41257 109.822 8.42792 109.597 8.42792C109.372 8.42792 109.183 8.34095 109.029 8.16694C108.886 7.99294 108.814 7.6962 108.814 7.27657C108.814 6.85696 108.84 6.55505 108.891 6.37084C108.942 6.17639 109.014 6.03823 109.106 5.95635C109.269 5.82331 109.474 5.75678 109.72 5.75678L110.227 5.81819V4.237C110.227 4.00161 110.232 3.82763 110.242 3.71505C110.263 3.60247 110.313 3.47966 110.395 3.34662C110.528 3.09077 110.923 2.96284 111.577 2.96284C112.274 2.96284 112.688 3.15217 112.821 3.53084C112.872 3.69458 112.898 3.95556 112.898 4.31376V5.81819C113.348 5.77725 113.686 5.75678 113.911 5.75678C114.146 5.75678 114.32 5.76701 114.433 5.78749C114.556 5.79772 114.694 5.84377 114.847 5.92565C115.114 6.05869 115.246 6.45271 115.246 7.1077C115.246 7.75246 115.108 8.14645 114.832 8.28976C114.678 8.36137 114.54 8.40742 114.417 8.42792C114.305 8.43813 114.131 8.44327 113.896 8.44327ZM52.4556 18.744C53.1412 18.9896 53.4841 19.3172 53.4841 19.7265C53.4841 19.8595 53.4227 20.1103 53.2999 20.4787L50.3524 28.9987C50.3319 29.0703 50.2962 29.1574 50.245 29.2597C50.1938 29.362 50.0556 29.5002 49.8305 29.6742C49.6156 29.8379 49.3546 29.9198 49.0476 29.9198C48.7507 29.9198 48.4898 29.8379 48.2646 29.6742C48.0497 29.5002 47.9064 29.3313 47.8348 29.1676L46.0387 23.8714C44.9027 27.2282 44.3245 28.9373 44.304 28.9987C44.2835 29.0601 44.2374 29.1471 44.1658 29.2597C44.0942 29.3723 44.0123 29.4746 43.9202 29.5667C43.6848 29.8021 43.4034 29.9198 43.0759 29.9198C42.7484 29.9198 42.4772 29.8431 42.2623 29.6895C42.0576 29.536 41.9194 29.3825 41.8478 29.229L41.7403 28.9987L38.7775 20.4787C38.6649 20.141 38.6086 19.8902 38.6086 19.7265C38.6086 19.3172 38.9515 18.9948 39.6372 18.7594C39.934 18.6571 40.2 18.6059 40.4355 18.6059C40.6811 18.6059 40.8653 18.6878 40.9881 18.8515C41.1211 19.0152 41.2389 19.266 41.3412 19.6037L43.0298 24.7311L44.7031 19.6805C44.8464 19.2506 45.1074 18.9538 45.486 18.7901C45.6498 18.7185 45.8596 18.6826 46.1155 18.6826C46.3816 18.6826 46.6272 18.7696 46.8523 18.9436C47.0774 19.1073 47.2207 19.2711 47.2822 19.4348L49.0476 24.7618L50.7362 19.6037C50.8181 19.3683 50.8846 19.1944 50.9358 19.0818C50.987 18.9692 51.0791 18.8617 51.2121 18.7594C51.3554 18.6468 51.5293 18.5905 51.734 18.5905C51.9388 18.5905 52.1792 18.6417 52.4556 18.744ZM53.0191 25.8978C53.0191 24.6696 53.449 23.6565 54.3086 22.8582C55.1683 22.0599 56.1508 21.6608 57.2561 21.6608C58.3614 21.6608 59.3388 22.0599 60.1882 22.8582C61.0377 23.6462 61.4624 24.6543 61.4624 25.8824C61.4624 26.7319 61.2424 27.4892 60.8022 28.1544C60.3622 28.8094 59.8249 29.2955 59.1904 29.6128C58.5661 29.9198 57.9162 30.0733 57.2407 30.0733C56.5653 30.0733 55.9103 29.9096 55.2758 29.5821C54.6413 29.2444 54.104 28.7531 53.6639 28.1083C53.234 27.4534 53.0191 26.7165 53.0191 25.8978ZM56.2275 27.0031C56.5551 27.2487 56.8876 27.3715 57.2254 27.3715C57.5631 27.3715 57.9008 27.2435 58.2386 26.9877C58.5763 26.7319 58.7452 26.3532 58.7452 25.8517C58.7452 25.3502 58.5866 24.9767 58.2693 24.7311C57.952 24.4854 57.6092 24.3626 57.2407 24.3626C56.8723 24.3626 56.5295 24.4906 56.2122 24.7464C55.895 25.0022 55.7363 25.381 55.7363 25.8824C55.7363 26.3736 55.9001 26.7472 56.2275 27.0031ZM67.95 21.9371C68.1444 21.9985 68.3031 22.106 68.4259 22.2595C68.5589 22.4028 68.6255 22.6381 68.6255 22.9656C68.6255 23.2932 68.5282 23.6513 68.3338 24.0402C68.1393 24.4292 67.8579 24.6236 67.4894 24.6236C67.3052 24.6236 67.1262 24.5827 66.9522 24.5008C66.7884 24.4189 66.5684 24.378 66.292 24.378C66.0157 24.378 65.7547 24.4752 65.5091 24.6696C65.2737 24.8641 65.156 25.0995 65.156 25.3758V28.5996C65.156 28.835 65.1458 29.0141 65.1253 29.1369C65.1151 29.2495 65.0691 29.3825 64.9872 29.536C64.8337 29.8021 64.4345 29.9352 63.7898 29.9352C63.2985 29.9352 62.9454 29.8482 62.7305 29.6742C62.5668 29.5309 62.4747 29.3109 62.4542 29.0141C62.4542 28.9118 62.4542 28.7633 62.4542 28.5689V23.1806C62.4542 22.9452 62.4593 22.7712 62.4696 22.6586C62.49 22.5358 62.5361 22.4028 62.6077 22.2595C62.751 21.9832 63.1502 21.845 63.8051 21.845C64.4192 21.845 64.803 21.9627 64.9565 22.1981C65.0691 22.3618 65.1253 22.5307 65.1253 22.7047C65.1765 22.6331 65.2482 22.546 65.3403 22.4437C65.4426 22.3414 65.6524 22.2032 65.9697 22.0292C66.2869 21.8552 66.5632 21.7682 66.7986 21.7682C67.0443 21.7682 67.249 21.7836 67.4127 21.8143C67.5764 21.8348 67.7556 21.8757 67.95 21.9371ZM69.4702 19.3888C69.4702 19.1534 69.4754 18.9794 69.4856 18.8668C69.5061 18.744 69.5521 18.6059 69.6237 18.4524C69.7671 18.176 70.1662 18.0379 70.8212 18.0379C71.4455 18.0379 71.8343 18.176 71.9879 18.4524C72.0698 18.6059 72.1158 18.744 72.126 18.8668C72.1465 18.9896 72.1567 19.1687 72.1567 19.4041V26.5118C72.1567 26.8802 72.1874 27.1157 72.2488 27.218C72.3102 27.3101 72.4433 27.3561 72.648 27.3561C72.8629 27.3561 73.0062 27.3663 73.0778 27.3868C73.1495 27.397 73.2365 27.438 73.3388 27.5096C73.5435 27.6427 73.6458 28.006 73.6458 28.5996C73.6458 29.2443 73.5435 29.6383 73.3388 29.7816C73.0727 29.9659 72.4382 29.9966 71.4352 29.8738C70.6472 29.7714 70.1355 29.5105 69.9001 29.0908C69.6135 28.5894 69.4702 27.7911 69.4702 26.696V19.3888ZM79.9115 18.4831C79.9936 18.3295 80.1317 18.2221 80.3259 18.1607C80.5201 18.0993 80.7765 18.0686 81.0935 18.0686C81.4213 18.0686 81.6822 18.0993 81.8764 18.1607C82.0706 18.2221 82.2042 18.3295 82.2756 18.4831C82.3577 18.6366 82.4037 18.7747 82.4137 18.8975C82.4345 19.0101 82.4444 19.1841 82.4444 19.4195V28.5842C82.4444 28.8197 82.4345 28.9987 82.4137 29.1215C82.4037 29.2341 82.3577 29.362 82.2756 29.5053C82.1221 29.7816 81.6868 29.9198 80.9707 29.9198C80.2645 29.9198 79.8708 29.669 79.7886 29.1676C79.3588 29.6588 78.7601 29.9045 77.9925 29.9045C77.0715 29.9045 76.2323 29.5053 75.4749 28.7071C74.7176 27.8986 74.3389 26.9621 74.3389 25.8978C74.3389 24.8232 74.7176 23.8816 75.4749 23.0731C76.2425 22.2646 77.0814 21.8603 77.9925 21.8603C78.7501 21.8603 79.3381 22.1162 79.7579 22.6279V19.4041C79.7579 19.1687 79.7633 18.9948 79.7733 18.8822C79.794 18.7594 79.8401 18.6264 79.9115 18.4831ZM77.4245 26.8188C77.6909 27.0952 78.0133 27.2333 78.3917 27.2333C78.7701 27.2333 79.0825 27.0952 79.3281 26.8188C79.5837 26.5425 79.7119 26.2406 79.7119 25.9131C79.7119 25.5754 79.5891 25.2632 79.3435 24.9767C79.1078 24.6901 78.7854 24.5468 78.3763 24.5468C77.9672 24.5468 77.6395 24.6901 77.3938 24.9767C77.1482 25.253 77.0254 25.56 77.0254 25.8978C77.0254 26.2355 77.1582 26.5425 77.4245 26.8188ZM90.2675 27.6632H94.443C94.7808 27.6632 95.0264 27.7041 95.1799 27.786C95.3334 27.8576 95.4355 27.9753 95.4869 28.1391C95.5376 28.3028 95.5637 28.5228 95.5637 28.7992C95.5637 29.0653 95.5376 29.2802 95.4869 29.4439C95.4355 29.6076 95.3488 29.7202 95.226 29.7816C95.031 29.884 94.7654 29.9352 94.4277 29.9352H88.9012C88.1843 29.9352 87.7652 29.7407 87.6424 29.3518C87.581 29.1881 87.5503 28.9271 87.5503 28.5689V20.0335C87.5503 19.7981 87.5549 19.6242 87.5656 19.5116C87.5856 19.3888 87.637 19.2506 87.7192 19.0971C87.8619 18.8208 88.2611 18.6826 88.9166 18.6826C89.6327 18.6826 90.0572 18.872 90.1907 19.2506C90.2414 19.4246 90.2675 19.6907 90.2675 20.0489V27.6632ZM96.56 23.1959C96.56 22.9605 96.5654 22.7866 96.5753 22.674C96.5961 22.5512 96.6421 22.413 96.7135 22.2595C96.857 21.9934 97.2562 21.8603 97.9109 21.8603C98.4022 21.8603 98.7499 21.9473 98.9548 22.1213C99.129 22.2646 99.2211 22.4846 99.2311 22.7814C99.2411 22.8837 99.2465 23.0322 99.2465 23.2266V28.5996C99.2465 28.835 99.2365 29.0141 99.2158 29.1369C99.2058 29.2495 99.1597 29.3825 99.0776 29.536C98.9448 29.8021 98.5503 29.9352 97.8956 29.9352C97.2508 29.9352 96.857 29.797 96.7135 29.5207C96.6421 29.3672 96.5961 29.2341 96.5753 29.1215C96.5654 29.0089 96.56 28.8299 96.56 28.5842V23.1959ZM99.0776 20.3559C99.0062 20.4992 98.8727 20.6015 98.6785 20.6629C98.4843 20.7243 98.2233 20.7551 97.8956 20.7551C97.5786 20.7551 97.3222 20.7243 97.128 20.6629C96.9338 20.6015 96.7956 20.4941 96.7135 20.3406C96.6421 20.1871 96.5961 20.054 96.5753 19.9414C96.5654 19.8186 96.56 19.6395 96.56 19.4041C96.56 19.1687 96.5654 18.9948 96.5753 18.8822C96.5961 18.7594 96.6421 18.6264 96.7135 18.4831C96.857 18.2067 97.2562 18.0686 97.9109 18.0686C98.5557 18.0686 98.9448 18.2067 99.0776 18.4831C99.1597 18.6366 99.2058 18.7747 99.2158 18.8975C99.2365 19.0101 99.2465 19.1841 99.2465 19.4195C99.2465 19.6549 99.2365 19.834 99.2158 19.9568C99.2058 20.0694 99.1597 20.2024 99.0776 20.3559ZM103.113 22.9196C103.594 22.1929 104.173 21.8296 104.848 21.8296C105.892 21.8296 106.67 22.2748 107.182 23.1652C107.294 23.0117 107.427 22.853 107.581 22.6893C107.744 22.5153 108 22.3311 108.348 22.1367C108.696 21.932 109.054 21.8296 109.423 21.8296C110.241 21.8296 110.927 22.1469 111.48 22.7814C112.033 23.4057 112.309 24.4445 112.309 25.8978V28.5842C112.309 28.8197 112.298 28.9987 112.278 29.1215C112.267 29.2341 112.221 29.3672 112.14 29.5207C112.007 29.797 111.613 29.9352 110.958 29.9352C110.313 29.9352 109.919 29.7919 109.776 29.5053C109.704 29.3518 109.658 29.2188 109.638 29.1062C109.627 28.9834 109.622 28.8043 109.622 28.5689V25.8824C109.622 24.992 109.305 24.5468 108.671 24.5468C108.312 24.5468 108.067 24.6645 107.934 24.8999C107.811 25.1353 107.75 25.4679 107.75 25.8978V28.5842C107.75 28.8299 107.739 29.0089 107.719 29.1215C107.708 29.2341 107.662 29.3672 107.581 29.5207C107.437 29.797 107.038 29.9352 106.383 29.9352C105.739 29.9352 105.344 29.7919 105.201 29.5053C105.129 29.3518 105.083 29.2188 105.063 29.1062C105.052 28.9834 105.048 28.8043 105.048 28.5689V25.8824C105.048 24.992 104.73 24.5468 104.096 24.5468C103.482 24.5468 103.175 24.992 103.175 25.8824V28.5996C103.175 28.835 103.164 29.0141 103.144 29.1369C103.133 29.2495 103.087 29.3825 103.006 29.536C102.853 29.8021 102.453 29.9352 101.809 29.9352C101.164 29.9352 100.769 29.797 100.627 29.5207C100.554 29.3672 100.508 29.2341 100.488 29.1215C100.478 29.0089 100.473 28.8299 100.473 28.5842V23.1806C100.473 22.9452 100.478 22.7712 100.488 22.6586C100.508 22.5358 100.56 22.4028 100.642 22.2595C100.795 21.9832 101.158 21.845 101.732 21.845C102.304 21.845 102.678 21.9371 102.853 22.1213C103.026 22.3055 103.113 22.5717 103.113 22.9196ZM113.53 23.1959C113.53 22.9605 113.536 22.7866 113.545 22.674C113.566 22.5512 113.612 22.413 113.684 22.2595C113.827 21.9934 114.226 21.8603 114.881 21.8603C115.372 21.8603 115.721 21.9473 115.925 22.1213C116.099 22.2646 116.191 22.4846 116.201 22.7814C116.212 22.8837 116.217 23.0322 116.217 23.2266V28.5996C116.217 28.835 116.207 29.0141 116.186 29.1369C116.176 29.2495 116.13 29.3825 116.048 29.536C115.915 29.8021 115.521 29.9352 114.866 29.9352C114.221 29.9352 113.827 29.797 113.684 29.5207C113.612 29.3672 113.566 29.2341 113.545 29.1215C113.536 29.0089 113.53 28.8299 113.53 28.5842V23.1959ZM116.048 20.3559C115.976 20.4992 115.844 20.6015 115.649 20.6629C115.454 20.7243 115.193 20.7551 114.866 20.7551C114.549 20.7551 114.293 20.7243 114.098 20.6629C113.904 20.6015 113.766 20.4941 113.684 20.3406C113.612 20.1871 113.566 20.054 113.545 19.9414C113.536 19.8186 113.53 19.6395 113.53 19.4041C113.53 19.1687 113.536 18.9948 113.545 18.8822C113.566 18.7594 113.612 18.6264 113.684 18.4831C113.827 18.2067 114.226 18.0686 114.881 18.0686C115.526 18.0686 115.915 18.2067 116.048 18.4831C116.13 18.6366 116.176 18.7747 116.186 18.8975C116.207 19.0101 116.217 19.1841 116.217 19.4195C116.217 19.6549 116.207 19.834 116.186 19.9568C116.176 20.0694 116.13 20.2024 116.048 20.3559ZM122.141 24.5622L121.143 24.5008V26.6193C121.143 26.8956 121.184 27.0952 121.266 27.218C121.358 27.3408 121.521 27.4022 121.757 27.4022C122.003 27.4022 122.187 27.4124 122.31 27.4329C122.442 27.4431 122.581 27.4892 122.724 27.5711C122.96 27.7041 123.077 28.0469 123.077 28.5996C123.077 29.2443 122.934 29.6383 122.647 29.7816C122.494 29.8533 122.356 29.8993 122.233 29.9198C122.12 29.93 121.951 29.9352 121.726 29.9352C120.662 29.9352 119.853 29.6947 119.301 29.2136C118.748 28.7326 118.472 27.919 118.472 26.7728V24.5008C118.278 24.5315 118.067 24.5468 117.842 24.5468C117.617 24.5468 117.428 24.4599 117.274 24.2859C117.131 24.1119 117.059 23.8151 117.059 23.3955C117.059 22.9759 117.085 22.674 117.136 22.4898C117.188 22.2953 117.259 22.1572 117.351 22.0753C117.515 21.9422 117.72 21.8757 117.965 21.8757L118.472 21.9371V20.3559C118.472 20.1205 118.477 19.9466 118.487 19.834C118.508 19.7214 118.558 19.5986 118.641 19.4655C118.773 19.2097 119.168 19.0818 119.823 19.0818C120.519 19.0818 120.933 19.2711 121.066 19.6498C121.118 19.8135 121.143 20.0745 121.143 20.4327V21.9371C121.593 21.8962 121.931 21.8757 122.156 21.8757C122.392 21.8757 122.565 21.8859 122.678 21.9064C122.801 21.9166 122.939 21.9627 123.093 22.0446C123.359 22.1776 123.492 22.5717 123.492 23.2266C123.492 23.8714 123.353 24.2654 123.077 24.4087C122.924 24.4803 122.785 24.5263 122.663 24.5468C122.55 24.557 122.376 24.5622 122.141 24.5622ZM131.838 24.9306C131.838 25.5549 131.679 26.0206 131.362 26.3276C131.055 26.6244 130.712 26.7728 130.334 26.7728H126.695C126.695 27.0593 126.864 27.2999 127.202 27.4943C127.54 27.6887 127.878 27.786 128.215 27.786C128.809 27.786 129.274 27.7246 129.612 27.6018L129.781 27.5403C130.027 27.4277 130.231 27.3715 130.395 27.3715C130.722 27.3715 131.004 27.6018 131.239 28.0623C131.372 28.3386 131.439 28.574 131.439 28.7685C131.439 29.6793 130.349 30.1347 128.169 30.1347C127.412 30.1347 126.736 30.0068 126.143 29.7509C125.559 29.4848 125.104 29.1369 124.777 28.7071C124.132 27.8781 123.809 26.9519 123.809 25.9285C123.809 24.6389 124.224 23.6104 125.053 22.8428C125.892 22.0651 126.936 21.6761 128.185 21.6761C129.607 21.6761 130.651 22.1776 131.316 23.1806C131.664 23.7127 131.838 24.2961 131.838 24.9306ZM128.599 25.3758C128.987 25.3758 129.182 25.2121 129.182 24.8846C129.182 24.6492 129.09 24.4599 128.906 24.3166C128.732 24.1733 128.476 24.1016 128.138 24.1016C127.811 24.1016 127.483 24.2398 127.156 24.5161C126.828 24.7822 126.665 25.0688 126.665 25.3758H128.599ZM138.259 18.4831C138.34 18.3295 138.478 18.2221 138.673 18.1607C138.868 18.0993 139.123 18.0686 139.441 18.0686C139.768 18.0686 140.029 18.0993 140.224 18.1607C140.418 18.2221 140.551 18.3295 140.623 18.4831C140.704 18.6366 140.75 18.7747 140.761 18.8975C140.781 19.0101 140.792 19.1841 140.792 19.4195V28.5842C140.792 28.8197 140.781 28.9987 140.761 29.1215C140.75 29.2341 140.704 29.362 140.623 29.5053C140.469 29.7816 140.034 29.9198 139.318 29.9198C138.612 29.9198 138.217 29.669 138.136 29.1676C137.706 29.6588 137.108 29.9045 136.34 29.9045C135.419 29.9045 134.579 29.5053 133.822 28.7071C133.065 27.8986 132.686 26.9621 132.686 25.8978C132.686 24.8232 133.065 23.8816 133.822 23.0731C134.59 22.2646 135.429 21.8603 136.34 21.8603C137.097 21.8603 137.685 22.1162 138.105 22.6279V19.4041C138.105 19.1687 138.11 18.9948 138.121 18.8822C138.141 18.7594 138.187 18.6264 138.259 18.4831ZM135.772 26.8188C136.038 27.0952 136.36 27.2333 136.739 27.2333C137.117 27.2333 137.43 27.0952 137.676 26.8188C137.931 26.5425 138.059 26.2406 138.059 25.9131C138.059 25.5754 137.936 25.2632 137.691 24.9767C137.455 24.6901 137.133 24.5468 136.724 24.5468C136.314 24.5468 135.987 24.6901 135.741 24.9767C135.496 25.253 135.373 25.56 135.373 25.8978C135.373 26.2355 135.506 26.5425 135.772 26.8188Z" fill="#F08A4B"/>
</g>
<defs>
<clipPath id="clip0_90_13535">
<rect width="142" height="32.2378" fill="white"/>
</clipPath>
</defs>
</svg>
