<svg fill="none" height="889" viewBox="0 0 1721 889" width="1721" xmlns="http://www.w3.org/2000/svg" xmlns:xlink="http://www.w3.org/1999/xlink"><mask id="a" height="889" maskUnits="userSpaceOnUse" width="1721" x="0" y="0"><rect fill="#f08a4b" height="889" rx="28" width="1721"/></mask><rect fill="#f08a4b" height="889" rx="28" width="1721"/><g mask="url(#a)" stroke="#fff" stroke-dasharray="2.21 1.11" stroke-opacity=".19" stroke-width="221.12"><path d="m-279 850.602c184.7136 18.817 711.092-111.791 1338.89-784.7545 784.76-841.2045 646.33-733.4095 938.65-1159.1875"/><path d="m-279 1320.26c184.7136 18.82 711.092-111.79 1338.89-784.754 784.76-841.204 646.33-733.41 938.65-1159.19"/><path d="m-279 1823.53c184.7136 18.82 711.092-111.79 1338.89-784.75 784.76-841.209 646.33-733.415 938.65-1159.195"/><path d="m-279 2293.19c184.7136 18.82 711.092-111.79 1338.89-784.76 784.76-841.2 646.33-733.406 938.65-1159.186"/><path d="m-279 2729.68c184.7136 18.82 711.092-111.79 1338.89-784.76 784.76-841.2 646.33-733.41 938.65-1159.186"/><path d="m-279-46.0395c184.7136 18.8166 711.092-111.7915 1338.89-784.7545 784.76-841.206 646.33-733.406 938.65-1159.186"/><path d="m-279 423.619c184.7136 18.817 711.092-111.791 1338.89-784.754 784.76-841.205 646.33-733.415 938.65-1159.195"/></g></svg>