<svg xmlns="http://www.w3.org/2000/svg" xmlns:xlink="http://www.w3.org/1999/xlink" width="167.38" height="38" viewBox="0 0 167.38 38">
  <defs>
    <clipPath id="clip-path">
      <rect id="Rectangle_158" data-name="Rectangle 158" width="167.38" height="38" fill="#f08a4b"/>
    </clipPath>
  </defs>
  <g id="Frame" clip-path="url(#clip-path)">
    <path id="Path_4020" data-name="Path 4020" d="M27.728,6.1c-1.8-.324-3.61,1.415-4.06,3.888s.655,4.731,2.454,5.054,3.61-1.415,4.059-3.888S29.526,6.425,27.728,6.1Zm1.325,4.85c-.205,1.148-1.064,2.878-2.4,2.976a1.256,1.256,0,0,1-.329-.017,1.309,1.309,0,0,1-.314-.1,1.825,1.825,0,0,1-.807-.758,1.612,1.612,0,0,0,.387.224,1.459,1.459,0,0,0,.335.09,1.52,1.52,0,0,0,.354,0c1.441-.139,2.419-1.92,2.677-3.09a4.77,4.77,0,0,0,.1-.983A5.11,5.11,0,0,1,29.052,10.952Z" fill="#f08a4b"/>
    <path id="Path_4021" data-name="Path 4021" d="M6.08,17.194c-2.048-1.447-4.563-1.41-5.617.082S.214,21.151,2.268,22.6s4.563,1.409,5.617-.082S8.128,18.64,6.08,17.194ZM7.1,21.563a1.335,1.335,0,0,1-.156.292,1.317,1.317,0,0,1-.222.243c-1.021.866-2.845.237-3.8-.436A5.083,5.083,0,0,1,1.76,20.492a4.678,4.678,0,0,0,.764.626c1.005.653,2.949,1.233,4.075.322a1.472,1.472,0,0,0,.247-.253,1.439,1.439,0,0,0,.175-.3,1.7,1.7,0,0,0,.121-.432A1.834,1.834,0,0,1,7.1,21.563Z" fill="#f08a4b" fill-rule="evenodd"/>
    <path id="Path_4022" data-name="Path 4022" d="M21.467,6.461C20.96,3.545,18.828,1.483,16.7,1.852S13.269,4.885,13.775,7.8s2.638,4.978,4.764,4.609S21.975,9.376,21.467,6.461Zm-2.7,4.691a1.762,1.762,0,0,1-.861.15,2.96,2.96,0,0,1-2.151-1.527,2.657,2.657,0,0,0,1.823.951,1.95,1.95,0,0,0,.465-.03,2.016,2.016,0,0,0,.447-.139c1.459-.654,1.905-2.6,1.82-4.059.011.054.021.107.03.158C20.592,8.115,20.3,10.457,18.764,11.152Z" fill="#f08a4b"/>
    <path id="Path_4023" data-name="Path 4023" d="M11.592,8.694C9.909,6.261,7.106,5.284,5.334,6.511S3.49,10.7,5.174,13.138s4.486,3.41,6.258,2.184S13.277,11.126,11.592,8.694Zm-.479,5.392a1.838,1.838,0,0,1-.328.294,1.8,1.8,0,0,1-.39.2c-1.583.586-3.433-.88-4.275-2.1-.031-.043-.06-.087-.09-.139.961,1.1,2.647,2.173,4.145,1.613a1.979,1.979,0,0,0,.417-.214,1.931,1.931,0,0,0,.353-.3,2.655,2.655,0,0,0,.63-1.958A2.988,2.988,0,0,1,11.113,14.086Z" fill="#f08a4b" fill-rule="evenodd"/>
    <path id="Path_4024" data-name="Path 4024" d="M30.791,23.31c-.278-1.091-.637-.765-.522.037a11.656,11.656,0,0,1-.375,4.314,1.35,1.35,0,0,0-.107-.11,1.616,1.616,0,1,0-1.111,2.792,10.011,10.011,0,0,1-4.206,3.569,25.548,25.548,0,0,1-8.34-2.36.222.222,0,0,0-.221.383,17.593,17.593,0,0,0,6.467,2.656l-.176.043A10.055,10.055,0,0,1,10.355,23.372a14.67,14.67,0,0,0,5.415,4.453c.31.154.576-.231.364-.375a26.693,26.693,0,0,1-5.576-5.118A10.006,10.006,0,0,1,11.572,19.8c.139.151.278.31.391.424,2.854,2.984,5.331,5.317,10.414,7.122.5.178.833-.46.485-.642a41.173,41.173,0,0,1-10.187-7.465c-.122-.121-.286-.292-.446-.458,1.173-1.708,1.133-2.367-.06-1.38A11.63,11.63,0,1,0,30.791,23.31Z" fill="#f08a4b"/>
    <path id="Path_4025" data-name="Path 4025" d="M25.51,29.47a.61.61,0,1,0,.194-.139A.61.61,0,0,0,25.51,29.47Z" fill="#f08a4b"/>
    <path id="Path_4026" data-name="Path 4026" d="M18.677,17.486a.608.608,0,1,0,.193-.139A.609.609,0,0,0,18.677,17.486Z" fill="#f08a4b"/>
    <path id="Path_4027" data-name="Path 4027" d="M28.537,26.249a.362.362,0,1,0,.116-.084A.364.364,0,0,0,28.537,26.249Z" fill="#f08a4b"/>
    <path id="Path_4028" data-name="Path 4028" d="M14.089,16.783c1.271-.3,7.429-5,13.01.9a27.748,27.748,0,0,1,2.062,2.734c.565.768.94.348.35-.878A10.39,10.39,0,0,0,18.72,14.306a12.38,12.38,0,0,0-5.075,2.016C13.578,16.663,13.667,16.883,14.089,16.783Z" fill="#f08a4b"/>
    <path id="Path_4029" data-name="Path 4029" d="M52.874,8.288h3.185q.977.036,1.194.507a2.237,2.237,0,0,1,.181,1.013v3.981a1.581,1.581,0,0,1-.507,1.1,6.063,6.063,0,0,1-4.56,1.574,6.357,6.357,0,0,1-4.687-2.027,6.8,6.8,0,0,1-1.99-4.922,6.329,6.329,0,0,1,2.027-4.8A6.682,6.682,0,0,1,56.529,4.2a1.02,1.02,0,0,1,.489.814A1.828,1.828,0,0,1,56.6,6.026q-.706.959-1.285.959a2.507,2.507,0,0,1-1.1-.489A3.186,3.186,0,0,0,52.4,5.99a3.515,3.515,0,0,0-2.443.977A3.241,3.241,0,0,0,48.893,9.5a3.656,3.656,0,0,0,1.086,2.66,3.394,3.394,0,0,0,2.461,1.086,4.692,4.692,0,0,0,1.791-.326V10.948H52.8a1.6,1.6,0,0,1-.8-.145.675.675,0,0,1-.308-.416,3.238,3.238,0,0,1-.072-.76,3.337,3.337,0,0,1,.072-.778.625.625,0,0,1,.308-.4A1.956,1.956,0,0,1,52.874,8.288Zm6.005-4.433q0-.416.018-.615a1.933,1.933,0,0,1,.163-.489q.253-.489,1.411-.489,1.1,0,1.375.489a1.288,1.288,0,0,1,.163.489,4.132,4.132,0,0,1,.036.633V12.25a1.963,1.963,0,0,0,.109.832q.108.163.47.163a2.247,2.247,0,0,1,.507.036.765.765,0,0,1,.308.145q.362.235.362,1.285,0,1.14-.362,1.393a3.923,3.923,0,0,1-2.244.109,2.26,2.26,0,0,1-1.81-.923,5.94,5.94,0,0,1-.507-2.823Zm5.648,7.672a4.677,4.677,0,0,1,1.52-3.583,4.962,4.962,0,0,1,3.474-1.411,4.9,4.9,0,0,1,3.456,1.411,4.646,4.646,0,0,1,1.5,3.565,4.744,4.744,0,0,1-.778,2.678,4.954,4.954,0,0,1-1.9,1.719,5.146,5.146,0,0,1-2.3.543,4.99,4.99,0,0,1-2.316-.579,5.314,5.314,0,0,1-1.9-1.737A4.645,4.645,0,0,1,64.527,11.527Zm3.782,1.3a1.947,1.947,0,0,0,1.176.434,1.974,1.974,0,0,0,1.194-.452,1.575,1.575,0,0,0,.6-1.339,1.566,1.566,0,0,0-.561-1.321A1.941,1.941,0,0,0,69.5,9.717a1.894,1.894,0,0,0-1.212.452,1.618,1.618,0,0,0-.561,1.339A1.575,1.575,0,0,0,68.309,12.83ZM80.879,6.768a3.988,3.988,0,0,1,2.95,1.43,4.763,4.763,0,0,1,.018,6.641,3.943,3.943,0,0,1-2.877,1.411,2.563,2.563,0,0,1-2.19-.868q-.145.887-1.556.887-1.14,0-1.393-.488a1.994,1.994,0,0,1-.163-.47q-.018-.217-.018-.633V3.872q0-.416.018-.615a1.685,1.685,0,0,1,.163-.47q.253-.489,1.411-.489,1.14,0,1.375.489a1.289,1.289,0,0,1,.163.489,3.766,3.766,0,0,1,.036.615V7.654A2.511,2.511,0,0,1,80.879,6.768Zm-1.592,5.845a1.467,1.467,0,0,0,1.122.489,1.64,1.64,0,0,0,1.611-1.574,1.6,1.6,0,0,0-.434-1.086,1.577,1.577,0,0,0-2.316,0,1.7,1.7,0,0,0-.416,1.1A1.575,1.575,0,0,0,79.286,12.612Zm13.26-4.849q.109-1.013,1.43-1.013a3.745,3.745,0,0,1,1.049.109.724.724,0,0,1,.47.38,1.279,1.279,0,0,1,.163.489,3.731,3.731,0,0,1,.036.615v6.333a4.092,4.092,0,0,1-.036.633,1.441,1.441,0,0,1-.145.47q-.252.47-1.249.47a2.552,2.552,0,0,1-1.321-.235,1.02,1.02,0,0,1-.38-.724,2.542,2.542,0,0,1-2.244.959,3.94,3.94,0,0,1-2.9-1.429,4.764,4.764,0,0,1,0-6.623,4.043,4.043,0,0,1,2.968-1.43,2.816,2.816,0,0,1,1.122.217,2.323,2.323,0,0,1,.706.416A2.179,2.179,0,0,1,92.546,7.763Zm-3.293,3.764a1.532,1.532,0,0,0,.47,1.086,1.552,1.552,0,0,0,1.14.47,1.411,1.411,0,0,0,1.1-.489,1.539,1.539,0,0,0,.452-1.068,1.662,1.662,0,0,0-.434-1.1,1.394,1.394,0,0,0-1.14-.507,1.483,1.483,0,0,0-1.158.507A1.662,1.662,0,0,0,89.253,11.527Zm7.885-7.672c0-.277.005-.483.018-.615a1.879,1.879,0,0,1,.163-.489q.252-.489,1.411-.489,1.1,0,1.375.489a1.317,1.317,0,0,1,.163.489,4.3,4.3,0,0,1,.036.633V12.25a1.951,1.951,0,0,0,.109.832q.108.163.47.163a2.256,2.256,0,0,1,.507.036.768.768,0,0,1,.307.145q.362.235.362,1.285,0,1.14-.362,1.393a3.923,3.923,0,0,1-2.243.109,2.258,2.258,0,0,1-1.81-.923,5.931,5.931,0,0,1-.507-2.823ZM117.423,5.7a4.778,4.778,0,0,1,.47,2.135,4.778,4.778,0,0,1-.47,2.135,4.2,4.2,0,0,1-1.212,1.5A5.042,5.042,0,0,1,113.1,12.63h-2.262v2.045a4.036,4.036,0,0,1-.036.633,1.278,1.278,0,0,1-.163.47q-.253.489-1.411.488-1.266,0-1.484-.67a3.04,3.04,0,0,1-.108-.941V4.614q0-.416.018-.615a1.618,1.618,0,0,1,.181-.489q.253-.489,1.411-.489h3.872a5.02,5.02,0,0,1,3.1,1.158A4.166,4.166,0,0,1,117.423,5.7Zm-4.307,3.728a1.755,1.755,0,0,0,1.068-.4,1.4,1.4,0,0,0,.525-1.194,1.4,1.4,0,0,0-.525-1.194,1.731,1.731,0,0,0-1.086-.416h-2.262v3.2Zm14.6.959a2.191,2.191,0,0,1-.561,1.647,1.7,1.7,0,0,1-1.212.525h-4.289a.992.992,0,0,0,.6.851,2.375,2.375,0,0,0,1.195.344,4.977,4.977,0,0,0,1.646-.217l.2-.072a1.828,1.828,0,0,1,.724-.2q.579,0,.995.814a1.978,1.978,0,0,1,.235.832q0,1.611-3.854,1.611A5.984,5.984,0,0,1,121,16.069a4.131,4.131,0,0,1-1.611-1.231,5.2,5.2,0,0,1-1.14-3.275,4.718,4.718,0,0,1,1.466-3.637A5.225,5.225,0,0,1,123.4,6.55,4.112,4.112,0,0,1,127.1,8.324,3.694,3.694,0,0,1,127.711,10.387Zm-3.818.525q.688,0,.688-.579a.807.807,0,0,0-.326-.669,1.4,1.4,0,0,0-.9-.253,1.8,1.8,0,0,0-1.158.489,1.324,1.324,0,0,0-.579,1.013Zm10.359-.959-1.176-.072v2.5a1.307,1.307,0,0,0,.145.706.679.679,0,0,0,.579.217,4.3,4.3,0,0,1,.651.036,1.17,1.17,0,0,1,.489.163q.417.235.416,1.212,0,1.14-.507,1.393a1.91,1.91,0,0,1-.488.163q-.2.018-.6.018a4.235,4.235,0,0,1-2.859-.85,3.647,3.647,0,0,1-.977-2.877V9.88a4.767,4.767,0,0,1-.742.054.86.86,0,0,1-.67-.308,1.672,1.672,0,0,1-.253-1.05,4.455,4.455,0,0,1,.09-1.068.977.977,0,0,1,.254-.489,1.107,1.107,0,0,1,.723-.235l.6.072V4.994q0-.416.018-.615a1.273,1.273,0,0,1,.181-.434q.234-.452,1.393-.452,1.231,0,1.466.67a3.4,3.4,0,0,1,.09.923V6.858q.8-.072,1.194-.072a3.782,3.782,0,0,1,.616.036,1.292,1.292,0,0,1,.488.163q.471.235.471,1.393,0,1.14-.489,1.393a1.938,1.938,0,0,1-.488.163Q134.669,9.952,134.252,9.952Zm2.664,5.483a.754.754,0,0,1-.344-.688,2.98,2.98,0,0,1,.688-1.43.7.7,0,0,1,.633-.308,2.605,2.605,0,0,1,1.212.452,2.834,2.834,0,0,0,1.376.434q1.1,0,1.1-.434c0-.229-.4-.4-1.212-.507a5.923,5.923,0,0,1-2.262-.85,2.43,2.43,0,0,1-.868-1.013,3.765,3.765,0,0,1-.344-1.665q0-2.859,3.927-2.859a6.372,6.372,0,0,1,2.641.615q.635.29.634.724a2.129,2.129,0,0,1-.4,1.068q-.4.633-.815.633a2.525,2.525,0,0,1-.814-.271,2.943,2.943,0,0,0-1.267-.271q-1.066,0-1.067.4,0,.543,1.23.706a6.729,6.729,0,0,1,2.316.688,1.986,1.986,0,0,1,.869.887,3.024,3.024,0,0,1,.362,1.556,3.335,3.335,0,0,1-.362,1.611,2.248,2.248,0,0,1-.977.977,6.67,6.67,0,0,1-2.913.561A6.2,6.2,0,0,1,136.916,15.435ZM61.831,22.094q1.212.434,1.212,1.158a3.506,3.506,0,0,1-.217.887L59.352,34.182a1.865,1.865,0,0,1-.127.308,1.793,1.793,0,0,1-.489.489,1.478,1.478,0,0,1-.923.289,1.528,1.528,0,0,1-.923-.289,1.691,1.691,0,0,1-.507-.6l-2.117-6.243q-2.009,5.935-2.045,6.044a1.572,1.572,0,0,1-.163.308,2.107,2.107,0,0,1-.29.362,1.358,1.358,0,0,1-1,.416A1.609,1.609,0,0,1,49.816,35a1.529,1.529,0,0,1-.488-.543l-.127-.271L45.708,24.139a3.156,3.156,0,0,1-.2-.887q0-.724,1.212-1.14a2.925,2.925,0,0,1,.941-.181.763.763,0,0,1,.651.29,2.645,2.645,0,0,1,.416.887l1.99,6.044L52.693,23.2a1.644,1.644,0,0,1,.923-1.049,1.862,1.862,0,0,1,.742-.127,1.39,1.39,0,0,1,.869.308,1.366,1.366,0,0,1,.507.579l2.081,6.279,1.99-6.08q.145-.416.235-.615a1.037,1.037,0,0,1,.326-.38.965.965,0,0,1,.615-.2A2.508,2.508,0,0,1,61.831,22.094Zm.664,8.432a4.676,4.676,0,0,1,1.52-3.583,4.962,4.962,0,0,1,3.474-1.412,4.9,4.9,0,0,1,3.456,1.412,4.646,4.646,0,0,1,1.5,3.565,4.743,4.743,0,0,1-.778,2.678,4.954,4.954,0,0,1-1.9,1.719,5.145,5.145,0,0,1-2.3.543,4.99,4.99,0,0,1-2.316-.579,5.315,5.315,0,0,1-1.9-1.737A4.644,4.644,0,0,1,62.5,30.527Zm3.782,1.3a1.946,1.946,0,0,0,1.176.434,1.974,1.974,0,0,0,1.194-.452,1.817,1.817,0,0,0,.036-2.66,1.941,1.941,0,0,0-1.212-.434,1.894,1.894,0,0,0-1.212.452,1.618,1.618,0,0,0-.561,1.339A1.575,1.575,0,0,0,66.277,31.829Zm13.818-5.971a1.14,1.14,0,0,1,.561.38,1.2,1.2,0,0,1,.235.832,2.863,2.863,0,0,1-.344,1.267,1.078,1.078,0,0,1-1,.688,1.471,1.471,0,0,1-.633-.145,1.755,1.755,0,0,0-.778-.145,1.463,1.463,0,0,0-.923.344,1.045,1.045,0,0,0-.416.832v3.8a4.147,4.147,0,0,1-.036.633,1.289,1.289,0,0,1-.163.471q-.271.47-1.411.47a2,2,0,0,1-1.249-.308,1.086,1.086,0,0,1-.326-.778V27.324q0-.416.018-.615a1.689,1.689,0,0,1,.163-.47q.253-.489,1.411-.489,1.086,0,1.357.416a1.04,1.04,0,0,1,.2.6,3.666,3.666,0,0,1,.253-.308,3.659,3.659,0,0,1,.742-.489,2.1,2.1,0,0,1,.977-.308,4.023,4.023,0,0,1,.724.054A3.613,3.613,0,0,1,80.095,25.858Zm1.792-3q0-.416.018-.615a1.933,1.933,0,0,1,.163-.488q.253-.489,1.411-.489,1.1,0,1.375.489a1.288,1.288,0,0,1,.163.488,4.134,4.134,0,0,1,.036.633V31.25a1.963,1.963,0,0,0,.109.832q.108.163.47.163a2.247,2.247,0,0,1,.507.036.765.765,0,0,1,.308.145q.362.235.362,1.285,0,1.14-.362,1.393a3.922,3.922,0,0,1-2.244.109,2.259,2.259,0,0,1-1.81-.923,5.94,5.94,0,0,1-.507-2.823Zm12.307-1.068a.8.8,0,0,1,.489-.38,3.084,3.084,0,0,1,.9-.109,3.159,3.159,0,0,1,.923.109.726.726,0,0,1,.471.38,1.281,1.281,0,0,1,.163.489,3.747,3.747,0,0,1,.036.615v10.8a4.109,4.109,0,0,1-.036.633,1.141,1.141,0,0,1-.163.452q-.272.489-1.538.488-1.249,0-1.393-.887a2.665,2.665,0,0,1-2.117.868,4.024,4.024,0,0,1-2.968-1.411,4.786,4.786,0,0,1,0-6.641,4.043,4.043,0,0,1,2.968-1.43,2.541,2.541,0,0,1,2.081.9v-3.8q0-.416.018-.615A1.705,1.705,0,0,1,94.194,21.787Zm-2.931,9.826a1.525,1.525,0,0,0,1.14.489,1.412,1.412,0,0,0,1.1-.489,1.543,1.543,0,0,0,.452-1.068,1.662,1.662,0,0,0-.434-1.1,1.4,1.4,0,0,0-1.14-.507,1.45,1.45,0,0,0-1.158.507,1.6,1.6,0,0,0-.434,1.086A1.531,1.531,0,0,0,91.263,31.612Zm15.138,1h4.922a1.947,1.947,0,0,1,.869.145.657.657,0,0,1,.362.416,2.744,2.744,0,0,1,.09.778,2.664,2.664,0,0,1-.09.76.626.626,0,0,1-.308.4,2.042,2.042,0,0,1-.941.181h-6.514q-1.268,0-1.484-.688a2.853,2.853,0,0,1-.109-.923V23.614q0-.416.018-.615a1.645,1.645,0,0,1,.181-.488q.253-.489,1.412-.489,1.266,0,1.5.67a3.662,3.662,0,0,1,.09.941Zm7.417-5.266c0-.278.007-.483.019-.615a1.935,1.935,0,0,1,.162-.488q.255-.471,1.412-.471a1.911,1.911,0,0,1,1.23.308.994.994,0,0,1,.326.778q.018.181.018.525v6.333a4.164,4.164,0,0,1-.036.633,1.278,1.278,0,0,1-.163.471q-.236.47-1.393.47-1.14,0-1.394-.488a2,2,0,0,1-.162-.471c-.012-.133-.019-.344-.019-.633Zm2.968-3.348a.741.741,0,0,1-.47.362,3.166,3.166,0,0,1-.923.108,3.089,3.089,0,0,1-.9-.108.8.8,0,0,1-.489-.38,2,2,0,0,1-.162-.471c-.012-.145-.019-.356-.019-.633s.007-.483.019-.615a1.691,1.691,0,0,1,.162-.47q.255-.489,1.412-.489,1.14,0,1.375.489a1.281,1.281,0,0,1,.163.489,3.8,3.8,0,0,1,.036.615,4.163,4.163,0,0,1-.036.633A1.278,1.278,0,0,1,116.786,23.994Zm4.757,3.022a2.441,2.441,0,0,1,2.045-1.285,2.967,2.967,0,0,1,2.75,1.574,6.153,6.153,0,0,1,.471-.561,3.8,3.8,0,0,1,.9-.651,2.465,2.465,0,0,1,1.266-.362,3.087,3.087,0,0,1,2.425,1.122,5.509,5.509,0,0,1,.977,3.673v3.167a4.163,4.163,0,0,1-.036.633,1.316,1.316,0,0,1-.163.471q-.235.489-1.393.488-1.14,0-1.393-.507a1.881,1.881,0,0,1-.163-.471c-.013-.145-.018-.356-.018-.633V30.508q0-1.574-1.122-1.574a.91.91,0,0,0-.869.416,2.584,2.584,0,0,0-.217,1.176v3.167a4.074,4.074,0,0,1-.036.633,1.316,1.316,0,0,1-.163.471q-.253.489-1.412.488c-.759,0-1.225-.169-1.393-.507a1.964,1.964,0,0,1-.163-.471q-.018-.217-.018-.633V30.508q0-1.574-1.122-1.574-1.084,0-1.085,1.574v3.2a4.139,4.139,0,0,1-.037.633,1.312,1.312,0,0,1-.162.471q-.271.47-1.412.47t-1.393-.488a1.921,1.921,0,0,1-.163-.471c-.013-.133-.018-.344-.018-.633V27.324c0-.278,0-.483.018-.615a1.407,1.407,0,0,1,.181-.47q.271-.489,1.285-.489a1.882,1.882,0,0,1,1.321.326A1.324,1.324,0,0,1,121.543,27.016Zm12.279.326q0-.416.018-.615a1.9,1.9,0,0,1,.163-.488q.253-.471,1.411-.471a1.914,1.914,0,0,1,1.231.308,1,1,0,0,1,.325.778c.013.121.018.3.018.525v6.333a4.035,4.035,0,0,1-.036.633,1.278,1.278,0,0,1-.163.471q-.234.47-1.393.47-1.14,0-1.393-.488a1.964,1.964,0,0,1-.163-.471q-.018-.2-.018-.633Zm2.967-3.348a.736.736,0,0,1-.47.362,3.166,3.166,0,0,1-.923.108,3.093,3.093,0,0,1-.9-.108.792.792,0,0,1-.488-.38,1.964,1.964,0,0,1-.163-.471q-.018-.217-.018-.633t.018-.615a1.664,1.664,0,0,1,.163-.47q.253-.489,1.411-.489,1.14,0,1.375.489a1.281,1.281,0,0,1,.163.489,3.681,3.681,0,0,1,.036.615,4.035,4.035,0,0,1-.036.633A1.278,1.278,0,0,1,136.789,23.994Zm7.182,4.958-1.176-.072v2.5a1.307,1.307,0,0,0,.145.706.68.68,0,0,0,.579.217,4.3,4.3,0,0,1,.651.036,1.17,1.17,0,0,1,.489.163q.417.235.416,1.212,0,1.14-.507,1.393a1.923,1.923,0,0,1-.488.163q-.2.018-.6.018a4.235,4.235,0,0,1-2.859-.85,3.647,3.647,0,0,1-.977-2.877V28.88a4.766,4.766,0,0,1-.742.054.86.86,0,0,1-.67-.308,1.672,1.672,0,0,1-.253-1.049,4.454,4.454,0,0,1,.09-1.068.978.978,0,0,1,.254-.489,1.107,1.107,0,0,1,.723-.235l.6.072V23.994q0-.416.018-.615a1.273,1.273,0,0,1,.181-.434q.234-.452,1.393-.452,1.23,0,1.466.67a3.4,3.4,0,0,1,.09.923v1.773q.8-.072,1.194-.072a3.774,3.774,0,0,1,.616.036,1.291,1.291,0,0,1,.488.163q.471.235.471,1.393,0,1.14-.489,1.393a1.929,1.929,0,0,1-.489.163C144.453,28.946,144.249,28.952,143.971,28.952Zm11.431.434a2.195,2.195,0,0,1-.561,1.647,1.705,1.705,0,0,1-1.212.525H149.34a.992.992,0,0,0,.6.851,2.375,2.375,0,0,0,1.194.344,4.984,4.984,0,0,0,1.647-.217l.2-.072a1.824,1.824,0,0,1,.724-.2q.577,0,.995.814a1.993,1.993,0,0,1,.235.832q0,1.611-3.854,1.611a5.977,5.977,0,0,1-2.388-.452,4.124,4.124,0,0,1-1.611-1.231,5.2,5.2,0,0,1-1.14-3.275,4.718,4.718,0,0,1,1.466-3.637A5.222,5.222,0,0,1,151.1,25.55a4.114,4.114,0,0,1,3.692,1.773A3.694,3.694,0,0,1,155.4,29.386Zm-3.818.525q.687,0,.687-.579a.806.806,0,0,0-.325-.669,1.4,1.4,0,0,0-.9-.253,1.8,1.8,0,0,0-1.158.488,1.321,1.321,0,0,0-.579,1.013Zm11.386-8.125a.791.791,0,0,1,.489-.38,3.08,3.08,0,0,1,.9-.109,3.159,3.159,0,0,1,.922.109.728.728,0,0,1,.471.38,1.317,1.317,0,0,1,.163.489,3.916,3.916,0,0,1,.036.615v10.8a4.3,4.3,0,0,1-.036.633,1.173,1.173,0,0,1-.163.452q-.271.489-1.538.488-1.249,0-1.394-.887a2.663,2.663,0,0,1-2.117.868,4.023,4.023,0,0,1-2.967-1.411,4.786,4.786,0,0,1,0-6.641,4.04,4.04,0,0,1,2.967-1.43,2.542,2.542,0,0,1,2.081.9v-3.8q0-.416.018-.615A1.664,1.664,0,0,1,162.97,21.787Zm-2.931,9.826a1.522,1.522,0,0,0,1.14.489,1.414,1.414,0,0,0,1.1-.489,1.544,1.544,0,0,0,.452-1.068,1.664,1.664,0,0,0-.434-1.1,1.4,1.4,0,0,0-1.14-.507,1.447,1.447,0,0,0-1.158.507,1.594,1.594,0,0,0-.435,1.086A1.531,1.531,0,0,0,160.039,31.612Z" fill="#f08a4b"/>
  </g>
</svg>
